<svg width="70" height="70" viewBox="0 0 70 70" fill="none" xmlns="http://www.w3.org/2000/svg">
<g clip-path="url(#clip0_339_358)">
<path d="M15.0555 30.5619C15.1797 30.256 15.1807 29.9131 15.0583 29.6066C14.9359 29.3 14.6997 29.0541 14.4005 28.9216C14.1012 28.789 13.7626 28.7803 13.4571 28.8973C13.1515 29.0143 12.9034 29.2477 12.7657 29.5476C12.7005 29.6958 11.2022 33.241 13.7636 38.7903C13.8044 38.8975 15.8015 44.1617 17.7239 50.415C17.8371 51.5793 18.8432 62.8054 16.01 67.4273C15.8951 67.6192 15.8324 67.8385 15.8283 68.0629C15.8241 68.2873 15.8787 68.5088 15.9863 68.705C16.094 68.9012 16.2511 69.0651 16.4415 69.18C16.6319 69.295 16.849 69.3569 17.0707 69.3596C19.3076 69.1445 20.1023 62.6806 20.3315 60.1845C21.0331 62.9203 21.3197 65.7483 21.1815 68.5714C21.1602 68.7364 21.1714 68.904 21.2142 69.0646C21.2571 69.2253 21.3308 69.3757 21.4312 69.5075C21.5317 69.6392 21.6568 69.7496 21.7994 69.8323C21.942 69.915 22.0994 69.9684 22.2624 69.9895C22.4255 70.0105 22.5911 69.9988 22.7496 69.955C22.9082 69.9111 23.0567 69.8361 23.1865 69.7341C23.3164 69.6321 23.4251 69.5051 23.5064 69.3605C23.5877 69.2159 23.6401 69.0565 23.6604 68.8914C24.7101 60.574 16.4476 38.8014 16.0619 37.7994C13.9966 33.3195 15.0011 30.6972 15.0555 30.5619Z" fill="#E5EAEC"/>
<path d="M61.2742 20.2465L50.9953 15.8555C42.6499 12.8143 44.3849 1.94254 44.463 1.48109C44.5196 1.15047 44.4441 0.810635 44.2531 0.536358C44.0621 0.262081 43.7714 0.075825 43.4447 0.0185636C43.1181 -0.0386978 42.7824 0.0377264 42.5114 0.231023C42.2405 0.424321 42.0565 0.718657 41.9999 1.04928C41.2047 5.67745 41.8846 15.2248 50.0854 18.2116L60.2977 22.576C62.7968 23.763 64.8402 25.7501 66.1119 28.2303C67.3836 30.7104 67.813 33.5455 67.3336 36.2974C67.0594 40.1947 66.7696 47.8363 64.8225 51.1667C64.6189 51.4254 64.5234 51.7545 64.5565 52.0835C64.5897 52.4125 64.7488 52.7154 64.9998 52.9271C65.2507 53.1389 65.5737 53.2427 65.8994 53.2164C66.2251 53.1901 66.5276 53.0357 66.7423 52.7863C66.8629 52.6308 66.9728 52.467 67.0713 52.2963C67.428 56.3018 67.4965 61.6597 65.9855 65.4435C65.8673 65.7533 65.8742 66.0978 66.0047 66.4026C66.1353 66.7074 66.3789 66.948 66.6831 67.0725C66.9874 67.197 67.3277 67.1955 67.6308 67.0682C67.934 66.941 68.1755 66.6982 68.3033 66.3923C71.0882 59.4178 69.1719 48.3805 68.8207 46.5308C69.3525 43.2191 69.6862 39.8779 69.8198 36.5254C70.3234 33.2417 69.7631 29.8812 68.2226 26.9467C66.6822 24.0123 64.2444 21.6616 61.2742 20.2465Z" fill="#E5EAEC"/>
<path d="M55.6109 28.9104C55.3091 29.0439 55.071 29.2918 54.9477 29.601C54.8245 29.9102 54.826 30.256 54.9518 30.5642C54.9964 30.6735 56.0223 33.2977 53.9071 37.8906L53.4213 39.1756C53.3621 39.3307 53.3337 39.4962 53.3378 39.6625C53.3418 39.8287 53.3782 39.9926 53.4449 40.1446C53.5115 40.2966 53.6071 40.4339 53.7262 40.5484C53.8453 40.663 53.9856 40.7527 54.1389 40.8124C54.2923 40.8721 54.4558 40.9006 54.6201 40.8962C54.7843 40.8919 54.9461 40.8548 55.0962 40.7872C55.2463 40.7195 55.3817 40.6225 55.4948 40.5018C55.6078 40.3811 55.6962 40.239 55.755 40.0837L56.2084 38.8747C58.8069 33.2415 57.3075 29.6987 57.2422 29.5504C57.1085 29.2476 56.8621 29.0105 56.5566 28.8907C56.2512 28.7708 55.9113 28.7779 55.6109 28.9104Z" fill="#E5EAEC"/>
<path d="M52.284 50.4028C52.8679 48.5004 53.4625 46.696 53.9973 45.0967C54.1026 44.7791 54.0792 44.4322 53.9323 44.1321C53.7853 43.8319 53.5267 43.603 53.2133 43.4956C52.8998 43.3881 52.557 43.4109 52.2601 43.5589C51.9632 43.7068 51.7364 43.968 51.6294 44.285C49.5844 50.5131 43.4825 69.4713 47.5866 69.994C47.7643 69.9938 47.9399 69.9554 48.1017 69.8812C48.2636 69.8071 48.4081 69.6989 48.5255 69.564C48.6429 69.429 48.7306 69.2703 48.7828 69.0984C48.835 68.9265 48.8505 68.7453 48.8283 68.5669C48.6934 65.7667 48.9805 62.9621 49.6798 60.2495C49.7806 63.2164 50.5296 66.1238 51.8729 68.7627C51.9587 68.9055 52.0715 69.0298 52.205 69.1282C52.3385 69.2267 52.4899 69.2973 52.6505 69.3362C52.8111 69.3751 52.9777 69.3813 53.1407 69.3546C53.3037 69.3279 53.4599 69.2688 53.6002 69.1806C53.7405 69.0925 53.8621 68.9771 53.9581 68.841C54.0541 68.705 54.1225 68.5511 54.1593 68.3882C54.1962 68.2252 54.2008 68.0565 54.1729 67.8918C54.145 67.727 54.0851 67.5695 53.9966 67.4283C51.148 62.7811 52.1801 51.4615 52.284 50.4028Z" fill="#E5EAEC"/>
<path d="M25.7358 24.0417C25.9847 24.2581 26.3078 24.3667 26.6352 24.3441C26.9627 24.3214 27.2681 24.1694 27.4857 23.9207C27.7033 23.672 27.8156 23.3467 27.7983 23.015C27.781 22.6832 27.6355 22.3717 27.3932 22.1476L21.9177 17.2409C28.2133 13.5063 28.7291 5.2556 28.0065 1.05028C27.9452 0.724168 27.7598 0.435504 27.4901 0.246527C27.2205 0.0575499 26.8883 -0.0166032 26.5652 0.0400556C26.2421 0.0967145 25.9539 0.279647 25.7627 0.549412C25.5716 0.819176 25.4929 1.15416 25.5435 1.48215C25.6184 1.92448 27.1907 11.9169 19.9126 15.4442L12.5048 8.80605C12.9411 7.84136 13.0198 6.74996 12.7267 5.73132C12.4335 4.71269 11.788 3.83486 10.9082 3.25828C10.0283 2.68171 8.97288 2.44489 7.93474 2.59112C6.89661 2.73735 5.94513 3.25686 5.25422 4.05469C4.5633 4.85252 4.1791 5.87539 4.17182 6.93634C4.16455 7.99729 4.5347 9.02546 5.21461 9.83292C5.89452 10.6404 6.83878 11.1732 7.87481 11.334C8.91084 11.4948 9.96943 11.2728 10.8571 10.7087L17.3781 16.5524L8.73229 20.2481C8.63038 20.2913 -1.44096 24.7459 0.175657 36.4035C0.312884 39.7964 0.650305 43.1779 1.18611 46.5301C0.835735 48.3755 -1.08242 59.417 1.70317 66.3933C1.83178 66.6981 2.07338 66.9397 2.37604 67.0661C2.67871 67.1926 3.01829 67.1938 3.32183 67.0695C3.62536 66.9452 3.86863 66.7054 3.99935 66.4015C4.13008 66.0976 4.13783 65.754 4.02095 65.4444C2.50989 61.6608 2.57845 56.3027 2.93515 52.2973C3.76347 54.1763 6.33741 52.8992 5.18421 51.1676C3.2249 47.765 2.95037 40.18 2.66172 36.1756C2.20013 33.441 2.63953 30.6287 3.91226 28.1717C5.18499 25.7148 7.22044 23.7496 9.70507 22.5789L19.4521 18.4109L25.7358 24.0417ZM9.9653 8.18358C9.76376 8.42701 9.50481 8.61503 9.21241 8.73023C8.92001 8.84543 8.60362 8.88408 8.29255 8.84261C7.98147 8.80114 7.68576 8.68088 7.4328 8.49297C7.17984 8.30507 6.9778 8.05558 6.84541 7.76763C6.71302 7.47968 6.65455 7.16257 6.67541 6.84566C6.69628 6.52876 6.7958 6.2223 6.96476 5.95468C7.13373 5.68706 7.36667 5.46692 7.64203 5.31464C7.91738 5.16237 8.22624 5.0829 8.54 5.08357C8.89299 5.08795 9.23757 5.19317 9.53406 5.38712C9.83054 5.58107 10.0669 5.85585 10.2158 6.17982C10.3648 6.50379 10.4203 6.86376 10.376 7.21826C10.3316 7.57277 10.1893 7.90739 9.9653 8.18358Z" fill="#E5EAEC"/>
<path d="M31.2539 23.5498C31.3743 21.9498 29.4627 18.5256 27.7533 20.3281C27.6564 20.4622 27.5865 20.6143 27.5477 20.7757C27.5088 20.9372 27.5018 21.1048 27.5269 21.269C27.5521 21.4332 27.609 21.5907 27.6943 21.7327C27.7797 21.8746 27.8918 21.9981 28.0243 22.0962C28.2415 22.2565 28.4199 22.4646 28.5461 22.7048C28.6723 22.9451 28.743 23.2112 28.7529 23.4831C28.7628 23.755 28.7116 24.0256 28.6032 24.2746C28.4947 24.5235 28.3319 24.7443 28.127 24.9204C27.922 25.0964 27.6802 25.223 27.4199 25.2908C27.1596 25.3585 26.8875 25.3656 26.6241 25.3114C26.3606 25.2572 26.1128 25.1433 25.8992 24.9781C25.6856 24.8129 25.5118 24.6008 25.391 24.3578C25.2389 24.0631 24.9784 23.8407 24.6658 23.7389C24.3531 23.6371 24.0134 23.6639 23.7201 23.8135C23.4268 23.9632 23.2035 24.2237 23.0984 24.5387C22.9933 24.8537 23.015 25.198 23.1586 25.497C23.5986 26.3567 24.3099 27.0428 25.1795 27.4462C26.049 27.8496 27.0268 27.9471 27.9574 27.7233C28.888 27.4994 29.718 26.9671 30.3153 26.2108C30.9126 25.4546 31.243 24.5179 31.2539 23.5498Z" fill="#E5EAEC"/>
<path d="M52.0203 28.717C52.01 27.5758 51.555 26.4849 50.7543 25.6817C49.9535 24.8784 48.8717 24.4277 47.7443 24.4277C46.617 24.4277 45.5352 24.8784 44.7344 25.6817C43.9337 26.485 43.4787 27.5759 43.4685 28.7171C43.4787 29.8582 43.9337 30.9491 44.7345 31.7524C45.5353 32.5556 46.6171 33.0063 47.7444 33.0063C48.8718 33.0063 49.9536 32.5556 50.7543 31.7523C51.5551 30.949 52.0101 29.8581 52.0203 28.717ZM45.9682 28.717C45.975 28.2446 46.1651 27.794 46.4975 27.4624C46.8298 27.1308 47.2778 26.945 47.7444 26.945C48.2111 26.945 48.659 27.1309 48.9913 27.4625C49.3237 27.7941 49.5138 28.2447 49.5206 28.717C49.5133 29.189 49.3229 29.6391 48.9906 29.9702C48.6583 30.3014 48.2107 30.4869 47.7444 30.4869C47.2781 30.4869 46.8305 30.3013 46.4982 29.9702C46.1659 29.639 45.9755 29.1889 45.9682 28.717Z" fill="#E5EAEC"/>
<path d="M32.5078 37.3027C31.3805 37.3131 30.3028 37.7736 29.5093 38.5842C28.7157 39.3948 28.2705 40.4898 28.2705 41.631C28.2705 42.7722 28.7157 43.8672 29.5093 44.6778C30.3029 45.4884 31.3806 45.9489 32.5079 45.9592C33.6352 45.9489 34.7129 45.4883 35.5065 44.6777C36.3 43.8672 36.7452 42.7721 36.7452 41.6309C36.7452 40.4898 36.3 39.3947 35.5064 38.5842C34.7129 37.7736 33.6352 37.313 32.5078 37.3027ZM32.5078 43.4289C32.0412 43.4221 31.596 43.2296 31.2685 42.8932C30.9409 42.5567 30.7573 42.1033 30.7573 41.631C30.7573 41.1586 30.9409 40.7052 31.2685 40.3688C31.5961 40.0323 32.0413 39.8399 32.5079 39.833C32.9745 39.8399 33.4197 40.0324 33.7473 40.3688C34.0748 40.7053 34.2585 41.1587 34.2584 41.631C34.2584 42.1034 34.0748 42.5568 33.7472 42.8932C33.4196 43.2297 32.9744 43.4221 32.5078 43.4289Z" fill="#E5EAEC"/>
<path d="M32.5076 55.9307C31.3804 55.9412 30.3029 56.4018 29.5095 57.2124C28.7161 58.023 28.271 59.1179 28.271 60.259C28.271 61.4 28.7161 62.495 29.5096 63.3055C30.303 64.1161 31.3805 64.5767 32.5077 64.5872C33.6349 64.5767 34.7125 64.116 35.5059 63.3054C36.2993 62.4949 36.7444 61.4 36.7444 60.2589C36.7444 59.1178 36.2992 58.0229 35.5058 57.2123C34.7124 56.4018 33.6349 55.9412 32.5076 55.9307ZM32.5076 62.0569C32.041 62.05 31.5958 61.8576 31.2683 61.5211C30.9407 61.1847 30.7571 60.7313 30.7571 60.2589C30.7571 59.7865 30.9408 59.3331 31.2683 58.9967C31.5959 58.6603 32.0411 58.4678 32.5077 58.461C32.9743 58.4679 33.4195 58.6603 33.7471 58.9968C34.0747 59.3332 34.2583 59.7866 34.2583 60.259C34.2582 60.7313 34.0746 61.1847 33.747 61.5212C33.4195 61.8576 32.9743 62.05 32.5076 62.0569Z" fill="#E5EAEC"/>
</g>
<defs>
<clipPath id="clip0_339_358">
<rect width="70" height="70" fill="white"/>
</clipPath>
</defs>
</svg>
