<svg width="70" height="70" viewBox="0 0 70 70" fill="none" xmlns="http://www.w3.org/2000/svg">
<g clip-path="url(#clip0_339_378)">
<path d="M16.9614 23.8143C18.3924 25.2452 19.2583 27.1411 19.4 29.154L19.9494 39.5387C19.9497 39.5452 19.9501 39.5517 19.9506 39.5583C20.0037 40.2933 19.7673 41.0024 19.2855 41.5552C18.8063 42.1049 18.1409 42.4347 17.4106 42.4843C17.31 42.4904 17.1656 42.4271 17.1413 42.2592L16.4406 30.2878C16.4075 29.7226 15.9255 29.291 15.357 29.324C14.7917 29.3571 14.3602 29.8422 14.3933 30.4077L15.0946 42.3899C15.1188 42.8759 15.3145 43.3738 15.7255 43.8316L19.9323 48.0384C20.1326 48.2386 20.3951 48.3386 20.6575 48.3386C20.9198 48.3386 21.1823 48.2386 21.3826 48.0384C21.7831 47.6378 21.7831 46.9887 21.3826 46.5882L18.9975 44.2032C19.6962 43.926 20.3236 43.4857 20.8314 42.9032C21.6727 41.9381 22.0864 40.7021 21.9969 39.4217L21.4476 29.0373C21.4316 28.806 21.4005 28.4948 21.3242 28.0055C25.3446 21.9746 29.7132 18.2922 35.0239 16.4576C40.2597 18.0231 44.4958 21.5972 48.6818 27.9797C48.6228 28.3231 48.579 28.6701 48.5547 29.0204C48.5544 29.026 48.554 29.0316 48.5537 29.0372L48.3856 32.2118C48.3555 32.7773 48.7897 33.26 49.3553 33.29C49.3738 33.2911 49.3922 33.2915 49.4104 33.2915C49.9518 33.2915 50.4045 32.8673 50.4333 32.3202L50.6012 29.1544C50.743 27.1415 51.6089 25.2454 53.0399 23.8145L69.7005 7.15396C70.1009 6.75337 70.1009 6.10423 69.7005 5.70378C69.2999 5.30347 68.6507 5.30347 68.2503 5.70378L57.5954 16.3587C57.4155 16.0922 57.2223 15.8347 57.0172 15.5869C58.3734 11.4294 56.7335 6.78919 53.0309 4.42778C52.4259 4.03854 51.8061 3.65764 51.1891 3.29561C50.7009 3.00919 50.0724 3.17256 49.7857 3.66106C49.4991 4.14942 49.6628 4.77778 50.1512 5.06448C50.7442 5.41243 51.3398 5.7787 51.9224 6.15331C54.5613 7.84658 55.8668 10.9178 55.3104 13.9654L49.7752 9.77855C49.3237 9.43703 48.6805 9.52617 48.3388 9.97775C47.9972 10.4295 48.0863 11.0725 48.538 11.4141L54.142 15.6531C54.9306 16.2497 55.5994 16.9999 56.1088 17.8454L51.5896 22.3646C50.6875 23.2667 49.9669 24.3179 49.4514 25.461C45.4907 19.8161 41.3845 16.4422 36.4265 14.7521C38.4174 10.1872 37.2493 8.30554 36.2959 6.77361C35.6036 5.66126 35.0909 4.83534 35.7794 2.81751C38.1542 2.18778 40.481 2.05079 42.047 2.05079C43.1157 2.05079 44.4486 2.36688 46.0086 2.99059C46.1334 3.04049 46.2622 3.06415 46.3889 3.06415C46.7959 3.06415 47.1809 2.8201 47.3413 2.41911C47.5516 1.89329 47.2956 1.29651 46.7698 1.08637C44.9666 0.365587 43.3777 0 42.047 0C40.2941 0 37.6524 0.160645 34.9629 0.913967C33.9675 0.655158 31.5479 0 27.954 0C25.2426 0 21.5476 1.48942 16.9715 4.42669C13.3166 6.74804 11.6188 11.3732 12.984 15.5853C12.779 15.8329 12.5849 16.0895 12.4048 16.3572L9.36624 13.3186C8.96565 12.9183 8.31651 12.9183 7.91606 13.3186C7.51561 13.7192 7.51561 14.3683 7.91606 14.7688L16.9614 23.8143ZM15.8592 15.6524L21.4631 11.4134C21.9149 11.0718 22.004 10.4288 21.6623 9.97707C21.3208 9.52535 20.6776 9.43635 20.226 9.77787L14.691 13.9645C14.1343 10.9176 15.4398 7.84644 18.0792 6.15236C22.2598 3.46911 25.6744 2.05079 27.954 2.05079C30.5183 2.05079 32.5195 2.43428 33.6693 2.70444C32.9559 5.28788 33.7997 6.64359 34.5548 7.8567C35.4383 9.27625 36.2047 10.5084 34.2671 14.5472C28.9716 16.397 24.5714 19.9068 20.5649 25.4958C20.0485 24.339 19.3229 23.2753 18.4117 22.3641L13.8897 17.8421C14.3997 16.9917 15.0607 16.2564 15.8592 15.6524Z" fill="#E5EAEC"/>
<path d="M4.52829 11.3802C4.72858 11.5805 4.99095 11.6805 5.25345 11.6805C5.51581 11.6805 5.77831 11.5805 5.97847 11.3803C6.37906 10.9797 6.37906 10.3306 5.97861 9.93026L1.75124 5.70275C1.35079 5.3023 0.701506 5.30216 0.301191 5.70261C-0.0993976 6.1032 -0.0993975 6.75235 0.301054 7.15266L4.52829 11.3802Z" fill="#E5EAEC"/>
<path d="M68.2502 23.5112L62.0437 29.7176C61.2918 30.4697 60.8022 31.4636 60.6651 32.516L59.4779 41.6389C59.3656 42.5271 58.9538 43.3662 58.3186 44.0012L48.4615 53.8583C47.878 54.4422 46.9305 54.4441 46.3499 53.8632C45.769 53.2824 45.7713 52.3349 46.3548 51.7516L54.2759 43.8305C54.5545 43.5089 54.8592 42.9788 54.9066 42.389L55.608 30.4068C55.6411 29.8414 55.2096 29.3563 54.6442 29.3232C54.077 29.2889 53.5935 29.7216 53.5606 30.2869L52.8599 42.2583C52.8553 42.3368 52.7875 42.4857 52.5902 42.4835C51.8601 42.4337 51.1948 42.104 50.7158 41.5544C50.3548 41.142 50.0185 40.3722 50.0518 39.5378L50.1804 37.1042C50.2103 36.5387 49.7761 36.0559 49.2105 36.0261C48.6464 35.9922 48.1622 36.4304 48.1324 36.996L48.0042 39.4202C47.9146 40.7007 48.3284 41.9368 49.1697 42.902C49.6775 43.4844 50.3048 43.9247 51.0034 44.2019C50.8332 44.3611 44.9913 50.2351 44.8052 50.3893C40.7291 54.0639 37.247 56.0876 35.0003 56.0876C32.8068 56.1766 28.5443 53.5958 24.7688 49.9723C24.3682 49.572 23.7191 49.572 23.3186 49.9723C22.9182 50.3729 22.9182 51.022 23.3186 51.4225L23.6462 51.7501C24.2297 52.3343 24.2318 53.2824 23.6507 53.8633C23.37 54.144 22.9969 54.2986 22.5998 54.2986C22.2001 54.2986 21.8235 54.1421 21.5394 53.8579L11.6818 44.0003C11.0466 43.3651 10.6353 42.5266 10.523 41.6345L9.33596 32.5141C9.1976 31.4614 8.70815 30.4681 7.95756 29.7172L1.75052 23.5102C1.34993 23.1099 0.700787 23.1099 0.300337 23.5102C-0.100112 23.9108 -0.100112 24.5599 0.300337 24.9604L6.50738 31.1673C6.94037 31.6004 7.22283 32.1735 7.3024 32.7799L8.48871 41.8948C8.65688 43.232 9.27594 44.4948 10.2315 45.4504L20.089 55.308C20.7606 55.9795 21.6523 56.3493 22.5996 56.3493C23.5445 56.3493 24.4326 55.9815 25.1008 55.3135C25.5437 54.8705 25.8436 54.3379 26.0019 53.7731C26.5146 54.185 27.0156 54.5689 27.5044 54.9229V58.8768C27.5044 60.2603 26.5131 61.424 25.1472 61.644L15.7976 63.1494C12.6869 63.6502 10.0819 65.6753 8.82901 68.5661C8.60397 69.0858 8.84254 69.6895 9.36207 69.9147C9.49496 69.9722 9.63319 69.9994 9.76936 69.9994C10.1656 69.9994 10.5431 69.7684 10.7108 69.3815C11.684 67.1359 13.7074 65.5629 16.1236 65.1739L25.4733 63.6685C27.8386 63.2876 29.5552 61.2724 29.5552 58.8767V56.2787C31.6339 57.5141 33.4548 58.1381 35 58.1381C36.5452 58.1381 38.3662 57.5143 40.4449 56.2787V58.8767C40.4449 61.2723 42.1617 63.2876 44.5268 63.6685L53.8764 65.1739C56.2927 65.563 58.3161 67.136 59.2893 69.3815C59.457 69.7683 59.8344 69.9994 60.2307 69.9994C60.3667 69.9994 60.5051 69.9722 60.638 69.9147C61.1577 69.6895 61.3962 69.0858 61.1711 68.5661C59.9182 65.6752 57.3131 63.6502 54.2025 63.1494L44.8528 61.644C43.487 61.424 42.4957 60.2603 42.4957 58.8768V54.9229C42.9844 54.5689 43.4855 54.1852 43.9981 53.7732C44.1564 54.3376 44.4562 54.8701 44.8992 55.3131C45.5885 56.0024 46.4941 56.347 47.4006 56.347C48.3092 56.3468 49.2188 56.0005 49.9112 55.3082L59.7682 45.4511C60.7233 44.4959 61.3426 43.2333 61.5115 41.8994L62.6982 32.7804C62.7771 32.1741 63.0596 31.6014 63.4934 31.1676L69.6999 24.9611C70.1003 24.5605 70.1003 23.9113 69.6999 23.5109C69.3 23.1108 68.6508 23.1108 68.2502 23.5112Z" fill="#E5EAEC"/>
<path d="M31.4367 41.9572C31.2393 42.4881 31.5094 43.0783 32.0402 43.2759C32.9528 43.6152 33.8715 43.785 34.7903 43.785C35.709 43.785 36.6279 43.6154 37.5404 43.2759C38.0711 43.0785 38.3413 42.4881 38.1439 41.9572C37.9463 41.4263 37.3562 41.1562 36.8252 41.3537C35.4558 41.8633 34.1245 41.8633 32.7551 41.3537C32.2243 41.1565 31.634 41.4265 31.4367 41.9572Z" fill="#E5EAEC"/>
<path d="M47.0449 30.1781C47.2134 29.6375 46.9116 29.0626 46.3709 28.8941C44.1502 28.2023 41.3868 27.3418 38.099 28.9522C37.5904 29.2015 37.3801 29.8156 37.6292 30.3242C37.8784 30.8328 38.4927 31.0429 39.0012 30.794C41.3782 29.6293 43.2209 30.0609 45.7609 30.8521C45.8623 30.8837 45.9651 30.8988 46.066 30.8988C46.5032 30.8988 46.9082 30.6172 47.0449 30.1781Z" fill="#E5EAEC"/>
<path d="M31.9028 28.9524C28.6151 27.3416 25.8515 28.2024 23.6309 28.8943C23.0901 29.0626 22.7884 29.6377 22.9568 30.1783C23.0936 30.6176 23.4985 30.8989 23.9355 30.8989C24.0364 30.8989 24.1392 30.8839 24.2406 30.8522C26.7809 30.061 28.6236 29.6293 31.0003 30.7941C31.5088 31.0433 32.1231 30.8329 32.3723 30.3243C32.6217 29.8158 32.4114 29.2017 31.9028 28.9524Z" fill="#E5EAEC"/>
<path d="M30.0078 48.7628C31.3585 49.4323 32.8564 49.4682 34.4604 48.8697C34.6289 48.8067 34.8147 48.8067 34.9837 48.8697C35.7404 49.152 36.4734 49.2932 37.1787 49.2932C37.9681 49.2932 38.7228 49.1163 39.4362 48.7628C39.9437 48.5113 40.1511 47.8962 39.8997 47.3887C39.6483 46.8812 39.033 46.6737 38.5257 46.9253C37.6796 47.3446 36.7818 47.352 35.7009 46.9484C35.0694 46.7125 34.3743 46.7125 33.7433 46.9484C32.662 47.3517 31.7645 47.3443 30.9184 46.9253C30.4109 46.6733 29.7958 46.8814 29.5444 47.3887C29.2929 47.8962 29.5004 48.5113 30.0078 48.7628Z" fill="#E5EAEC"/>
<path d="M24.04 36.6187C25.0899 37.0156 26.1471 37.2141 27.2044 37.2141C28.2616 37.2141 29.319 37.0156 30.3689 36.6187C30.8987 36.4182 31.1657 35.8265 30.9654 35.2969C30.7651 34.7671 30.173 34.5002 29.6436 34.7003C28.0023 35.3208 26.4069 35.3211 24.7653 34.7003C24.2361 34.5001 23.6439 34.7671 23.4435 35.2969C23.2432 35.8265 23.5102 36.4182 24.04 36.6187Z" fill="#E5EAEC"/>
<path d="M45.9614 36.6187C46.4912 36.4182 46.7582 35.8265 46.5579 35.2969C46.3576 34.7671 45.7654 34.5002 45.2361 34.7003C43.5945 35.3211 41.9992 35.3208 40.3578 34.7003C39.8287 34.5001 39.2363 34.7671 39.036 35.2969C38.8357 35.8265 39.1028 36.4182 39.6325 36.6187C40.6824 37.0156 41.7397 37.2141 42.7971 37.2141C43.8543 37.2141 44.9116 37.0156 45.9614 36.6187Z" fill="#E5EAEC"/>
</g>
<defs>
<clipPath id="clip0_339_378">
<rect width="70" height="70" fill="white"/>
</clipPath>
</defs>
</svg>
