<svg width="70" height="70" viewBox="0 0 70 70" fill="none" xmlns="http://www.w3.org/2000/svg">
<g clip-path="url(#clip0_1064_55)">
<path d="M69.933 52.0283C69.9262 51.6674 69.7812 51.3297 69.5242 51.0781C69.2604 50.8197 68.9131 50.6789 68.5413 50.6872C68.1763 50.6941 67.8359 50.8417 67.5814 51.1056C67.3285 51.3681 67.1932 51.714 67.2 52.079C67.2437 54.462 67.2656 56.8382 67.2656 59.1404C67.2656 61.9063 67.2342 64.6394 67.1713 67.2658H58.4363C58.1328 60.2396 57.698 54.8827 57.5958 53.67C58.5996 50.2102 61.7654 39.9781 61.7654 39.9781C61.8406 39.7428 61.8502 39.4912 61.7941 39.2507L61.7928 39.2479C61.6465 38.6273 61.101 38.1937 60.4639 38.1937C60.3585 38.1937 60.2533 38.2062 60.1494 38.2308C59.66 38.3456 59.273 38.7203 59.1418 39.2056C58.9053 39.9521 56.7738 46.6787 54.8994 53.1496C54.2705 55.3111 53.725 57.2689 53.2766 58.971C52.7598 60.9287 52.4057 62.4259 52.1912 63.547C51.9668 64.7201 51.822 65.971 51.7617 67.2658H36.3672V39.6484C36.3672 38.8951 35.7533 38.2812 35 38.2812C34.2467 38.2812 33.6328 38.8951 33.6328 39.6484V67.2656H18.2381C18.1781 65.9709 18.0331 64.7199 17.8088 63.5469C17.4085 61.4601 16.523 58.0617 15.1022 53.1568C15.1015 53.1543 15.1011 53.1519 15.1004 53.1494C13.2165 46.6457 11.0919 39.9438 10.8567 39.2012C10.7239 38.7172 10.3385 38.3454 9.85045 38.2305C9.44986 38.1362 9.01783 38.2319 8.69381 38.4848C8.44771 38.6775 8.27955 38.9415 8.20709 39.2476L8.20559 39.2504C8.14953 39.4911 8.1591 39.7426 8.2343 39.9778C8.2343 39.9778 8.2343 39.9778 8.24934 40.0284C8.29309 40.1636 8.42297 40.5724 8.61848 41.1945C9.26584 43.2564 10.9188 48.5525 12.4035 53.6681C12.3225 54.6376 12.0801 57.646 11.8408 61.7939C11.7328 63.6683 11.6386 65.5085 11.5634 67.2655H2.82967C2.7665 64.6398 2.73438 61.914 2.73438 59.1403C2.73438 50.2796 3.06387 42.3389 3.34004 37.2366C3.49727 34.3463 3.65312 32.0482 3.75703 30.6291C3.80352 29.9891 4.09268 26.1596 4.37213 25.2556C5.87016 26.2289 7.65461 26.7969 9.57031 26.7969C14.8474 26.7969 19.1406 22.5036 19.1406 17.2266C19.1406 16.2065 18.9786 15.2239 18.6817 14.3012C19.3983 14.0026 20.1712 13.6819 21.0109 13.3342C23.1738 12.4385 25.0551 10.9743 26.4523 9.09986C27.84 7.23926 28.7027 5.03795 28.9475 2.73424H41.0525C41.2727 4.80143 42.0014 6.80846 43.158 8.53795C45.779 12.6059 49.8224 13.5689 53.2647 15.1096C60.2142 18.1059 66.2409 21.4755 66.1212 29.0294C66.2374 30.4743 66.5327 34.4188 66.7911 39.8163C66.8266 40.5683 67.4677 41.1534 68.2225 41.1167C68.9758 41.0796 69.5583 40.437 69.5227 39.6851C69.2096 33.1596 68.8528 28.8392 68.7844 28.0394C68.084 13.1845 48.2978 13.1363 45.4316 7.01777C44.3078 5.33887 43.7145 3.38379 43.7145 1.36719C43.7145 1.00762 43.5694 0.654883 43.3137 0.400586C43.0596 0.146152 42.7082 0 42.3473 0H27.6527C27.2918 0 26.9404 0.146152 26.6848 0.400586C26.4305 0.654883 26.2855 1.00762 26.2855 1.36719C26.2855 5.51236 23.8041 9.21895 19.9652 10.8076C19.0663 11.1794 18.2402 11.5224 17.4763 11.8407C15.7514 9.3167 12.8514 7.65625 9.57031 7.65625C4.29324 7.65625 0 11.9495 0 17.2266C0 19.529 0.817578 21.6439 2.17738 23.297C1.54533 24.7831 1.22268 26.3754 1.21529 28.0396C1.09088 29.4916 0 42.7053 0 59.1403C0 59.3837 0.0500391 65.8145 0.130156 68.6287C0.130156 68.6301 0.13002 68.6314 0.13002 68.6328C0.13002 68.6372 0.130566 68.6414 0.130703 68.6458C0.130977 68.6541 0.131113 68.6628 0.131387 68.6711C0.131387 68.6721 0.13207 68.6727 0.13207 68.6737C0.153945 69.408 0.757559 70 1.49707 70H1.4998H1.53535H12.8748C13.6129 70 14.2119 69.423 14.2406 68.6861C14.3268 66.5164 14.4348 64.314 14.57 61.9514C14.5754 61.8543 14.5809 61.7559 14.5879 61.6602C14.823 62.6227 15.0035 63.4292 15.1223 64.0596C15.393 65.4719 15.5325 67.0113 15.5379 68.6369C15.5395 69.002 15.6816 69.3451 15.9399 69.6008C16.1969 69.8578 16.5401 70 16.9051 70H53.0946C53.4596 70 53.8029 69.8578 54.06 69.6008C54.3184 69.3451 54.4605 69.002 54.4618 68.6369C54.4659 67.0141 54.6053 65.4745 54.876 64.0596C54.9977 63.4279 55.1768 62.6199 55.412 61.6588C55.5514 64.0227 55.6676 66.3864 55.7579 68.6874C55.788 69.423 56.3868 70 57.1236 70H68.5027C68.8595 70 69.1972 69.8619 69.4542 69.6117C69.7112 69.3629 69.8589 69.0278 69.8685 68.6711C69.956 65.5989 69.9997 62.3928 69.9997 59.1403C70 56.8215 69.9768 54.429 69.933 52.0283ZM9.57031 10.3906C13.3396 10.3906 16.4062 13.4572 16.4062 17.2266C16.4062 20.9959 13.3396 24.0625 9.57031 24.0625C5.80098 24.0625 2.73438 20.9959 2.73438 17.2266C2.73438 13.4572 5.80098 10.3906 9.57031 10.3906Z" fill="white"/>
<path d="M68.3605 44.5361C67.6072 44.5607 67.0152 45.1949 67.0398 45.9483C67.0521 46.3051 67.1998 46.6373 67.4568 46.8861C67.7125 47.1337 68.0503 47.269 68.4056 47.269H68.4521C68.8171 47.2567 69.1548 47.1035 69.405 46.8369C69.6539 46.569 69.7851 46.2217 69.7728 45.8566C69.7605 45.5 69.6129 45.1662 69.3558 44.9189C69.0879 44.6604 68.7337 44.5224 68.3605 44.5361Z" fill="white"/>
<path d="M9.57031 21.3281C11.8319 21.3281 13.6719 19.4882 13.6719 17.2266C13.6719 14.965 11.8319 13.125 9.57031 13.125C7.30871 13.125 5.46875 14.965 5.46875 17.2266C5.46875 19.4882 7.30871 21.3281 9.57031 21.3281ZM9.57031 15.8594C10.3242 15.8594 10.9375 16.4727 10.9375 17.2266C10.9375 17.9804 10.3242 18.5938 9.57031 18.5938C8.81645 18.5938 8.20312 17.9804 8.20312 17.2266C8.20312 16.4727 8.81645 15.8594 9.57031 15.8594Z" fill="white"/>
<path d="M27.3624 26.327C27.6101 26.5355 27.9222 26.6484 28.243 26.6484C28.2899 26.6484 28.337 26.6459 28.3842 26.641L32.541 26.2094C33.292 26.1315 33.8375 25.4594 33.7596 24.7084C33.6817 23.9575 33.0102 23.4099 32.2585 23.4898L29.5113 23.775L29.3764 21.7787C29.3263 21.0379 28.6998 20.4731 27.9518 20.5052L23.2521 20.7134C22.4976 20.7468 21.9133 21.3855 21.9467 22.1398C21.9802 22.8942 22.6211 23.4802 23.3731 23.4452L26.7384 23.2961L26.8788 25.3735C26.9041 25.7436 27.0785 26.0878 27.3624 26.327Z" fill="white"/>
<path d="M25.4396 30.5534C25.3231 30.2022 25.0694 29.9132 24.7361 29.7524C24.4027 29.5916 24.0187 29.5729 23.6713 29.7L21.7162 30.4166L20.4837 27.2815C20.2074 26.5787 19.4139 26.2327 18.711 26.5094C18.0083 26.7857 17.6626 27.5793 17.9389 28.2821L19.6602 32.6603C19.932 33.3515 20.7063 33.6995 21.4031 33.4435L23.2879 32.7527L24.2213 35.5686C24.4116 36.1425 24.9456 36.5059 25.5188 36.5059C25.6614 36.5059 25.8064 36.4833 25.9492 36.436C26.6658 36.1984 27.0543 35.4249 26.8168 34.708L25.4396 30.5534Z" fill="white"/>
</g>
<defs>
<clipPath id="clip0_1064_55">
<rect width="70" height="70" fill="white"/>
</clipPath>
</defs>
</svg>
