<svg width="70" height="70" viewBox="0 0 70 70" fill="none" xmlns="http://www.w3.org/2000/svg">
<path d="M68.7592 51.0044C68.564 51.0205 49.0592 52.5621 37.2159 49.9611C35.6407 49.6143 34.6368 50.0908 32.2078 51.2434C30.4403 52.0812 27.7666 53.3474 23.2991 55.0901C13.3135 58.9835 7.94121 59.1977 7.04509 57.6838C6.20434 56.2573 8.10732 49.9611 10.3542 44.9327C10.4138 44.8016 10.4469 44.66 10.4515 44.516C10.4562 44.3721 10.4324 44.2286 10.3814 44.0939C10.3305 43.9592 10.2534 43.8359 10.1546 43.731C10.0559 43.6262 9.93734 43.542 9.80589 43.4831C9.67444 43.4242 9.53265 43.392 9.38868 43.3881C9.24471 43.3842 9.10139 43.4088 8.96696 43.4605C8.83254 43.5122 8.70966 43.59 8.60539 43.6894C8.50112 43.7887 8.41753 43.9077 8.3594 44.0395C8.21369 44.3629 7.97035 44.9225 7.68185 45.6204C5.11443 43.8428 2.18565 41.1865 2.18565 39.5924C2.35322 38.8726 4.85652 36.7044 7.72265 34.7461C7.76862 34.8888 7.80321 35.035 7.8261 35.1832C7.77283 35.6642 7.68813 36.1412 7.57256 36.6112C7.2229 37.6655 7.13145 38.7883 7.30591 39.8853C7.63813 40.8863 8.67559 41.2389 9.43328 41.4983C9.54111 41.5347 9.68245 41.5828 9.79319 41.6236C10.0846 42.272 10.6937 43.3328 11.1206 44.0482C11.1876 44.3178 11.3319 44.8642 11.5315 45.4281C11.6768 45.8401 11.9178 46.2117 12.2347 46.5124C12.5516 46.8131 12.9353 47.0342 13.3543 47.1577C13.7688 47.2817 14.207 47.3047 14.6321 47.2246C15.0573 47.1445 15.457 46.9636 15.7979 46.6972C16.0893 46.4685 16.4696 46.1537 16.8893 45.7895L16.133 48.6323C16.0899 48.7941 16.0846 48.9636 16.1174 49.1278C16.1503 49.292 16.2206 49.4464 16.3227 49.5791C16.4248 49.7118 16.5561 49.8192 16.7064 49.8931C16.8567 49.9669 17.022 50.0051 17.1894 50.0048C17.2992 50.0056 17.4084 49.9889 17.5129 49.9553C20.2208 49.0539 22.8019 47.8091 25.1933 46.2514C30.5278 42.7222 31.386 38.9658 31.4195 38.8026C31.4815 38.5198 31.4286 38.2238 31.2725 37.9799C31.1163 37.7361 30.8697 37.5642 30.5868 37.5022C30.3039 37.4402 30.008 37.493 29.7641 37.6492C29.5202 37.8054 29.3483 38.052 29.2863 38.3349C29.098 38.9378 28.8258 39.5112 28.4776 40.0383L24.0888 40.4477C23.9453 40.4543 23.8045 40.4891 23.6744 40.5501C23.5444 40.6112 23.4276 40.6972 23.3308 40.8033C23.1353 41.0177 23.0329 41.301 23.0463 41.5908C23.0596 41.8806 23.1875 42.1533 23.4019 42.3488C23.6163 42.5443 23.8995 42.6467 24.1894 42.6334H24.2914L26.5134 42.4265C25.7349 43.1726 24.8891 43.8452 23.9868 44.4358C22.3426 45.5059 20.6015 46.4192 18.7864 47.1635L19.8851 43.0384C21.3453 41.7937 22.5933 40.3198 23.5803 38.6744C23.8307 37.3874 23.6969 36.0552 23.1956 34.8437C23.074 34.587 22.8573 34.3878 22.5913 34.2882C22.3253 34.1886 22.031 34.1964 21.7707 34.3101C21.5104 34.4238 21.3046 34.6343 21.1969 34.8971C21.0891 35.1599 21.088 35.4543 21.1936 35.718C21.4909 36.4721 21.5853 37.291 21.4675 38.093C19.3553 40.6073 17.0074 42.9137 14.4559 44.9808C14.3882 45.0342 14.3087 45.0706 14.224 45.0868C14.1393 45.103 14.0519 45.0986 13.9692 45.074C13.8821 45.0483 13.8024 45.0022 13.7365 44.9397C13.6706 44.8771 13.6206 44.7998 13.5904 44.7141C13.4403 44.2838 13.3124 43.8461 13.2072 43.4027C13.1807 43.291 13.1375 43.1839 13.079 43.0851C12.4961 42.0651 12.1668 41.4109 11.7574 40.6925C11.5827 40.3883 11.3497 40.1216 11.0716 39.9078C10.7935 39.694 10.4759 39.5373 10.1371 39.4467C9.87491 39.3662 9.61999 39.2639 9.375 39.1407C9.43139 38.448 9.54346 37.7609 9.71013 37.0862C9.89849 36.4104 9.99649 35.7127 10.0016 35.0113C9.76055 33.8285 9.39975 32.6734 8.92476 31.5638C8.53571 30.4913 8.03884 29.1158 7.43414 27.3629C7.37003 27.175 7.32631 26.9855 7.27823 26.7961C9.29923 27.9006 12.4233 27.8671 15.6784 27.5727C19.1492 27.2624 24.0947 27.0074 26.955 28.3669C27.0846 28.4285 27.2251 28.464 27.3684 28.4713C27.5118 28.4786 27.6552 28.4576 27.7904 28.4095C27.9257 28.3614 28.0501 28.2871 28.1566 28.1909C28.2632 28.0947 28.3497 27.9785 28.4113 27.8489C28.4729 27.7192 28.5084 27.5787 28.5157 27.4354C28.523 27.292 28.5021 27.1486 28.4539 27.0134C28.4058 26.8782 28.3316 26.7537 28.2354 26.6472C28.1392 26.5407 28.023 26.4541 27.8933 26.3925C25.3128 25.1671 21.4821 24.8553 15.4817 25.3958C8.14812 26.0515 7.36128 24.5318 7.20829 23.0514C6.99409 20.9721 9.63291 18.2167 10.6675 17.3293C10.8319 17.189 10.9506 17.0028 11.0084 16.7946C11.2515 16.0657 11.6412 15.3944 12.1537 14.822C12.6662 14.2496 13.2905 13.7883 13.9882 13.4665C15.1966 12.9341 16.4938 12.6316 17.8131 12.5748C19.0296 14.33 20.878 15.5466 22.9712 15.9698C28.4966 17.4109 29.3184 18.8214 29.4393 19.2192C29.6224 19.8677 29.6841 20.5445 29.6214 21.2154C28.9129 20.8985 28.1825 20.6331 27.4358 20.4213C25.6662 19.9482 23.8598 19.626 22.0358 19.4581C20.7142 19.2906 19.1638 19.0968 17.2608 18.7937C15.7934 18.5987 14.3713 18.149 13.0586 17.4648C12.9342 17.3935 12.797 17.3473 12.6547 17.3289C12.5125 17.3106 12.3681 17.3204 12.2297 17.3579C12.0912 17.3954 11.9616 17.4598 11.848 17.5474C11.7345 17.635 11.6393 17.7441 11.5679 17.8684C11.4966 17.9928 11.4504 18.13 11.432 18.2723C11.4137 18.4145 11.4236 18.5589 11.461 18.6973C11.4985 18.8358 11.5629 18.9654 11.6505 19.079C11.7381 19.1925 11.8472 19.2877 11.9716 19.3591C13.5111 20.1808 15.1856 20.7197 16.9155 20.9502C18.8491 21.2591 20.4213 21.4573 21.7633 21.6263C23.4653 21.7828 25.1515 22.0791 26.8049 22.5122C29.365 23.2889 30.3617 23.9926 30.4782 25.1146C30.4842 25.7917 30.3314 26.4607 30.032 27.068C29.7326 27.6753 29.2951 28.204 28.7545 28.6117C28.6044 28.7201 28.4843 28.8648 28.4054 29.0323C28.3265 29.1997 28.2914 29.3845 28.3033 29.5692C28.3153 29.7539 28.3739 29.9326 28.4737 30.0885C28.5735 30.2445 28.7112 30.3725 28.874 30.4607L31.3117 31.7721C31.4712 31.8578 31.6494 31.9028 31.8304 31.9033C31.8836 31.903 31.9366 31.8991 31.9892 31.8916L35.0492 31.4399C35.1911 31.4189 35.3276 31.3702 35.4508 31.2965C35.5739 31.2229 35.6813 31.1256 35.7669 31.0104C35.8525 30.8952 35.9146 30.7643 35.9495 30.6251C35.9845 30.4859 35.9917 30.3412 35.9708 30.1992C35.9498 30.0572 35.9011 29.9207 35.8274 29.7976C35.7537 29.6744 35.6565 29.567 35.5413 29.4814C35.4261 29.3958 35.2951 29.3338 35.1559 29.2988C35.0168 29.2638 34.872 29.2566 34.73 29.2776L32.0315 29.6753L31.2199 29.2382C31.7393 28.6453 32.1341 27.9538 32.3807 27.2051C32.6273 26.4563 32.7206 25.6656 32.6551 24.88C32.5671 24.0344 32.2024 23.2416 31.6177 22.6244C31.9256 21.2889 31.896 19.8978 31.5317 18.5766C30.9489 16.6474 28.3261 15.0999 23.5176 13.8468C22.1987 13.5657 20.9931 12.8987 20.0541 11.9307C21.4529 11.3229 22.9955 11.1243 24.5026 11.3581C25.2596 11.4121 25.9798 11.7055 26.5589 12.1958C27.1381 12.6862 27.5462 13.3481 27.7243 14.0858C27.7998 14.3611 27.98 14.5959 28.2264 14.7401C28.4728 14.8842 28.7658 14.9262 29.0428 14.8571C29.3197 14.788 29.5587 14.6133 29.7085 14.3703C29.8583 14.1273 29.9071 13.8354 29.8444 13.5569C29.566 12.4205 28.9474 11.3961 28.0712 10.6207C27.195 9.84528 26.1031 9.35578 24.9412 9.21762C22.6264 8.8619 20.2588 9.27118 18.1978 10.3833C16.4495 10.3803 14.7202 10.7457 13.1227 11.4557C12.1795 11.8839 11.3309 12.4952 10.626 13.2541C9.92112 14.0131 9.37404 14.9045 9.01655 15.8766C8.02718 16.7742 4.70499 20.0424 5.03575 23.2612C5.04449 23.3471 5.06489 23.4215 5.078 23.5045C5.0557 23.548 5.03717 23.5934 5.02263 23.64C4.75671 25.1195 4.87614 26.6424 5.36942 28.0623C5.97704 29.8298 6.47828 31.2155 6.8717 32.2967C6.91104 32.4074 6.94455 32.5007 6.9839 32.607C4.2256 34.424 0 37.5466 0 39.5487C0 42.7995 4.74578 46.3096 6.85858 47.7085C5.46996 51.408 3.89775 56.6522 5.16252 58.797C5.97558 60.174 7.68913 60.7189 9.89664 60.7189C13.841 60.7189 19.3576 58.9704 24.0932 57.1301C28.6321 55.3597 31.3481 54.0702 33.1447 53.2221C35.4193 52.141 35.9278 51.9195 36.7467 52.0987C48.9149 54.7725 68.1269 53.2513 68.9355 53.1842C69.0785 53.1727 69.2177 53.1331 69.3454 53.0677C69.473 53.0023 69.5865 52.9124 69.6794 52.8031C69.7723 52.6939 69.8427 52.5674 69.8867 52.4309C69.9307 52.2944 69.9474 52.1506 69.9358 52.0076C69.9243 51.8647 69.8847 51.7254 69.8193 51.5978C69.7539 51.4702 69.664 51.3567 69.5547 51.2638C69.4454 51.1709 69.319 51.1005 69.1825 51.0565C69.046 51.0125 68.9022 50.9958 68.7592 51.0073V51.0044Z" fill="#E5EAEC"/>
<path d="M34.134 38.2244C34.3158 38.4984 34.5665 38.7198 34.8608 38.8663C35.1552 39.0129 35.4829 39.0794 35.8111 39.0593C36.1242 39.0551 36.4354 39.0121 36.7378 38.9311C38.74 38.2651 40.6176 37.2709 42.2938 35.9892C42.38 36.3792 42.5667 36.7398 42.8355 37.0353C43.1042 37.3308 43.4455 37.5508 43.8256 37.6735C44.2057 37.7962 44.6112 37.8173 45.002 37.7348C45.3928 37.6523 45.7551 37.4689 46.0531 37.203C50.2481 33.4276 50.3618 32.9483 50.4536 32.5665C50.5803 32.0332 50.6998 31.4343 50.8003 30.8908L58.8144 31.0657H58.8392C59.129 31.0688 59.4082 30.9566 59.6153 30.7538C59.8225 30.5511 59.9406 30.2743 59.9437 29.9845C59.9468 29.6947 59.8346 29.4155 59.6318 29.2084C59.4291 29.0012 59.1523 28.8831 58.8625 28.88L51.9369 28.7343L69.6232 10.9183C69.737 10.8196 69.8291 10.6985 69.8938 10.5625C69.9585 10.4266 69.9945 10.2787 69.9993 10.1282C70.0042 9.97765 69.9779 9.82775 69.9221 9.68788C69.8663 9.54801 69.7822 9.42118 69.6751 9.31535C69.5679 9.20952 69.4401 9.12697 69.2995 9.0729C69.159 9.01882 69.0088 8.99437 68.8583 9.00109C68.7079 9.00781 68.5604 9.04555 68.4253 9.11194C68.2901 9.17833 68.1701 9.27194 68.0728 9.3869L49.2179 28.3613C49.0561 28.5257 48.9496 28.7366 48.9134 28.9645C48.9134 28.982 48.6511 30.6621 48.3582 31.9254C47.1829 33.2245 45.9231 34.4448 44.5873 35.5783L44.4416 35.4414L46.8735 32.2153C47.0336 32.0009 47.1095 31.7351 47.0868 31.4683C47.064 31.2016 46.9441 30.9525 46.7498 30.7684C46.5556 30.5842 46.3005 30.4777 46.0329 30.4691C45.7654 30.4605 45.504 30.5504 45.2983 30.7218L42.3142 33.2266C40.4814 34.7489 38.4116 35.9608 36.1871 36.814C36.1229 36.83 36.0661 36.8416 36.0166 36.8518C36.4795 35.3836 37.2471 34.0296 38.2693 32.8783C40.1438 30.9433 42.4129 29.4346 44.9224 28.4546C45.121 28.3794 45.2932 28.2477 45.4178 28.0757L57.5846 11.2272C57.6687 11.1109 57.7291 10.9791 57.7622 10.8394C57.7954 10.6998 57.8008 10.5549 57.778 10.4132C57.7552 10.2715 57.7047 10.1356 57.6294 10.0134C57.5541 9.8912 57.4554 9.78501 57.3391 9.70091C57.2228 9.61681 57.091 9.55645 56.9513 9.52327C56.8117 9.4901 56.6668 9.48476 56.5251 9.50756C56.3834 9.53036 56.2475 9.58085 56.1253 9.65615C56.0031 9.73145 55.8969 9.83009 55.8128 9.94643L43.8369 26.5399C41.0775 27.637 38.5965 29.3337 36.5732 31.5072C35.6989 32.6029 32.9115 36.3258 34.134 38.2244Z" fill="#E5EAEC"/>
<path d="M68.1035 24.1636L58.9442 32.6818L56.7309 32.4282C55.1985 32.2529 53.6529 32.6167 52.3595 33.457C46.1712 37.5048 45.8973 38.8701 46.1246 39.8303C46.2773 40.4891 46.6126 41.0915 47.0919 41.5685C47.5713 42.0456 48.1753 42.3779 48.8348 42.5274C49.6243 42.6677 50.4257 42.7292 51.2274 42.711C52.1235 42.711 53.0225 42.6629 53.6301 42.6163C56.7802 42.5292 59.7966 41.3242 62.1396 39.2169L69.4004 35C69.5247 34.9279 69.6337 34.832 69.721 34.7177C69.8083 34.6035 69.8722 34.4732 69.9092 34.3342C69.9461 34.1952 69.9553 34.0504 69.9363 33.9078C69.9172 33.7653 69.8703 33.628 69.7982 33.5036C69.726 33.3792 69.6301 33.2703 69.5158 33.183C69.4016 33.0957 69.2713 33.0317 69.1323 32.9948C68.9934 32.9578 68.8485 32.9486 68.706 32.9677C68.5635 32.9867 68.4261 33.0337 68.3017 33.1058L60.9069 37.4072C60.8032 37.469 60.7094 37.5461 60.6286 37.6359C60.5441 37.735 58.4619 40.0387 53.4582 40.4365C52.0829 40.5746 50.6967 40.5609 49.3244 40.3957C49.0918 40.3429 48.8763 40.2321 48.6979 40.0736C48.5196 39.9151 48.3843 39.7142 48.3044 39.4894C48.4968 39.1717 49.4162 37.9958 53.5587 35.2871C54.4255 34.7222 55.4629 34.4788 56.4904 34.5993L59.2021 34.9097C59.3602 34.9258 59.5198 34.9081 59.6705 34.8579C59.8213 34.8076 59.9596 34.726 60.0764 34.6183L69.6044 25.7576C69.8169 25.5602 69.9423 25.2863 69.953 24.9964C69.9636 24.7065 69.8587 24.4242 69.6612 24.2116C69.4637 23.9991 69.1899 23.8737 68.9 23.863C68.61 23.8524 68.3278 23.9573 68.1152 24.1548L68.1035 24.1636Z" fill="#E5EAEC"/>
</svg>
