<svg width="70" height="70" viewBox="0 0 70 70" fill="none" xmlns="http://www.w3.org/2000/svg">
<g clip-path="url(#clip0_339_344)">
<path d="M35.8096 44.5637C35.9234 45.3135 36.6232 45.8233 37.3664 45.7104C38.113 45.597 38.6264 44.9 38.513 44.1535C38.376 43.2509 38.2139 42.324 38.0312 41.3984C37.8849 40.6576 37.1657 40.176 36.4251 40.322C35.6843 40.4683 35.2024 41.1873 35.3487 41.9282C35.5235 42.8142 35.6786 43.7011 35.8096 44.5637Z" fill="#E5EAEC"/>
<path d="M36.5932 62.0362C37.3387 62.1666 38.0458 61.6686 38.1764 60.9262C38.3403 59.9924 38.485 59.0646 38.6061 58.1685C38.7071 57.4203 38.1825 56.7318 37.4343 56.6306C36.6866 56.5297 35.9975 57.0541 35.8963 57.8024C35.78 58.6628 35.6411 59.5545 35.4833 60.453C35.3525 61.1967 35.8494 61.9055 36.5932 62.0362Z" fill="#E5EAEC"/>
<path d="M39.0848 52.5748C39.0962 52.1786 39.1019 51.7856 39.1019 51.4065C39.1018 50.8648 39.0902 50.3061 39.0672 49.7459C39.0364 48.9914 38.3999 48.4083 37.6456 48.4355C36.891 48.4664 36.3044 49.1029 36.3351 49.8572C36.3565 50.3809 36.3674 50.9024 36.3675 51.4069C36.3675 51.7597 36.3622 52.1262 36.3515 52.4966C36.3299 53.2514 36.9243 53.8807 37.6791 53.9023C37.6925 53.9027 37.7056 53.9029 37.719 53.9029C38.4559 53.9029 39.0636 53.3162 39.0848 52.5748Z" fill="#E5EAEC"/>
<path d="M33.703 35.4319C33.7045 35.4366 33.8611 35.9083 34.0942 36.7202C34.3017 37.4435 35.0563 37.8661 35.7854 37.6573C36.5113 37.4489 36.9307 36.6917 36.7225 35.966C36.4716 35.0923 36.3041 34.5885 36.2973 34.5679C36.2958 34.5635 36.1469 34.1149 35.9236 33.3403C35.7145 32.6147 34.9565 32.1963 34.2312 32.4054C33.5056 32.6146 33.0871 33.3723 33.2963 34.0978C33.5369 34.9325 33.6965 35.4124 33.703 35.4319Z" fill="#E5EAEC"/>
<path d="M34.0962 12.2573C34.2115 11.3981 34.3496 10.5062 34.5068 9.60656C34.6368 8.86281 34.1393 8.15447 33.3954 8.02445C32.6514 7.89484 31.9433 8.39195 31.8133 9.13584C31.6498 10.071 31.5061 10.9989 31.3861 11.8939C31.2857 12.6423 31.811 13.3302 32.5594 13.4306C33.306 13.5308 33.9956 13.0072 34.0962 12.2573Z" fill="#E5EAEC"/>
<path d="M30.9139 17.4901C30.9038 17.8614 30.8986 18.2329 30.8984 18.5943C30.8984 19.1552 30.911 19.736 30.9358 20.3207C30.9669 21.0555 31.5723 21.6301 32.3008 21.6301C32.3203 21.6301 32.34 21.6297 32.3597 21.6289C33.1141 21.5969 33.6998 20.9595 33.6677 20.2049C33.6446 19.6586 33.6328 19.1167 33.6328 18.5945C33.6328 18.2579 33.6377 17.9116 33.6472 17.5649C33.6677 16.8101 33.0727 16.1814 32.3179 16.1608C31.5591 16.138 30.9345 16.7356 30.9139 17.4901Z" fill="#E5EAEC"/>
<path d="M31.982 28.6662C32.1294 29.4094 32.8517 29.8879 33.5892 29.741C34.3298 29.5941 34.8112 28.8745 34.6641 28.1339C34.488 27.2465 34.3318 26.3597 34.2 25.4985C34.0859 24.752 33.3882 24.2397 32.6419 24.3538C31.8955 24.4679 31.3829 25.1656 31.4971 25.9118C31.6351 26.8129 31.7982 27.7395 31.982 28.6662Z" fill="#E5EAEC"/>
<path d="M1.36741 60.9764H12.5809C13.2507 61.578 13.9887 62.0864 14.7847 62.4999C14.6059 64.2187 14.4925 66.5353 14.4925 68.6327C14.4925 69.3876 15.1046 69.9998 15.8597 69.9998H54.1409C54.8958 69.9998 55.508 69.3876 55.508 68.6327C55.508 60.6166 53.8219 56.3269 52.3343 52.5423C50.959 49.0432 49.7713 46.0216 50.0377 40.535C50.1923 37.344 51.1711 34.4934 52.3046 31.1924C52.7057 30.0242 53.1131 28.8362 53.4983 27.592L59.3902 43.7468C59.6306 44.4063 60.33 44.7741 61.006 44.6045L68.9644 42.6153C69.3196 42.5265 69.6244 42.299 69.8104 41.9838C69.9965 41.6684 70.0483 41.2917 69.9544 40.938L67.6855 32.398C67.4917 31.6681 66.7415 31.2341 66.0132 31.4276C65.2834 31.6215 64.8489 32.3703 65.0428 33.0999L66.9553 40.299L61.5372 41.6532L54.7078 22.9284C55.2438 20.3064 55.5079 17.7209 55.5079 15.0392C55.5079 14.2842 54.8957 13.672 54.1407 13.672C53.3858 13.672 52.7735 14.2842 52.7735 15.0392C52.7735 20.9513 51.4624 25.2248 49.7183 30.3045C48.5671 33.6569 47.4798 36.8236 47.3063 40.4023C47.0115 46.4754 48.3608 49.9081 49.7892 53.5425C51.1645 57.0413 52.5835 60.6513 52.7559 67.2655H36.7959C36.8665 66.9944 36.9425 66.6969 37.0228 66.3728C37.2042 65.6399 36.7572 64.8986 36.0243 64.717C35.2911 64.5353 34.5501 64.9827 34.3685 65.7155C34.2152 66.3343 34.0774 66.8574 33.9663 67.2656H17.2422C17.2716 65.9347 17.3415 64.5967 17.4393 63.4613C18.1877 63.6253 18.9519 63.7109 19.726 63.7109H29.5314C31.793 63.7109 33.633 61.871 33.633 59.6094V54.1406C33.633 51.879 31.793 50.0391 29.5314 50.0391H28.027C27.4758 47.3356 25.3238 45.2083 22.608 44.6916C22.7394 43.3527 22.7682 41.9376 22.694 40.4025C22.5205 36.8235 21.4332 33.6569 20.2821 30.3045C18.6757 25.6261 17.2269 21.1819 17.2269 15.0392C17.2269 14.2842 16.6148 13.672 15.8597 13.672C15.1046 13.672 14.4925 14.2842 14.4925 15.0392C14.4925 17.721 14.7567 20.3062 15.2925 22.9274L8.46337 41.6536L3.04522 40.2994C3.04522 40.2994 9.64461 15.4593 9.64612 15.4527C10.7127 11.1844 14.5305 8.20352 18.9304 8.20352H24.0628C27.364 8.20352 30.1261 5.85114 30.7615 2.73341H33.2046C33.1296 3.02271 33.0488 3.34003 32.9629 3.68757C32.782 4.42052 33.2295 5.16153 33.9627 5.34255C34.6943 5.52274 35.4364 5.07759 35.6177 4.34272C35.7767 3.69864 35.9197 3.1556 36.0341 2.73464H39.2392C39.8744 5.851 42.6367 8.20338 45.9377 8.20338H51.0702C55.4702 8.20338 59.2879 11.1845 60.3544 15.4526C60.3562 15.4592 61.8829 21.2068 61.8829 21.2068C62.0768 21.9365 62.8253 22.3714 63.5553 22.1772C64.2851 21.9834 64.7196 21.2346 64.5257 20.5049L63.0047 14.7797C61.6297 9.29672 56.7237 5.46874 51.07 5.46874H45.9376C43.676 5.46874 41.8361 3.62878 41.8361 1.36718C41.8361 0.612225 41.2238 0 40.4689 0C37.0485 0 32.954 0 29.5314 0C28.7763 0 28.1642 0.612225 28.1642 1.36718C28.1642 3.62878 26.3243 5.46874 24.0627 5.46874H18.9303C13.2765 5.46874 8.3704 9.29699 6.99569 14.7797L0.0461604 40.938C-0.149757 41.6755 0.296355 42.4304 1.036 42.6154L8.99438 44.6047C9.67155 44.7742 10.37 44.4056 10.6103 43.7469L16.5023 27.5921C16.8874 28.8364 17.2948 30.0243 17.696 31.1926C18.8294 34.4935 19.8083 37.3442 19.9629 40.535C20.0334 41.9921 20.0035 43.3225 19.8725 44.5705H19.7261C17.0624 44.5705 14.5472 45.5372 12.5809 47.3049H1.36741C0.612311 47.3049 0.000223038 47.9171 0.000223038 48.672V59.6095C0.000223038 60.3643 0.612311 60.9764 1.36741 60.9764ZM2.73459 50.0389H13.1252C13.4878 50.0389 13.8356 49.8948 14.0919 49.6385C15.5971 48.1334 17.5979 47.3046 19.726 47.3046H21.3283C23.1108 47.3046 24.6313 48.4474 25.1957 50.0389H21.3283C20.5732 50.0389 19.9611 50.6512 19.9611 51.4061C19.9611 52.1611 20.5732 52.7733 21.3283 52.7733H29.5314C30.2853 52.7733 30.8986 53.3866 30.8986 54.1405V59.6092C30.8986 60.3631 30.2853 60.9764 29.5314 60.9764H19.726C17.6316 60.9764 15.5998 60.1505 14.0919 58.6426C13.8356 58.3862 13.4878 58.2421 13.1252 58.2421H2.73459V50.0389Z" fill="#E5EAEC"/>
<path d="M47.3047 18.5938C47.3047 17.8388 46.6925 17.2266 45.9375 17.2266H41.0352L41.4356 16.8261C41.9695 16.2922 41.9695 15.4265 41.4356 14.8925C40.9016 14.3587 40.0362 14.3587 39.502 14.8925L36.7676 17.6269C36.2262 18.1683 36.2452 19.0381 36.7676 19.5605L39.502 22.2949C40.0362 22.8288 40.9014 22.8286 41.4356 22.2949C41.9695 21.761 41.9695 20.8953 41.4356 20.3613L41.0352 19.9608H45.9375C46.6926 19.9609 47.3047 19.3489 47.3047 18.5938Z" fill="#E5EAEC"/>
<path d="M64.8047 28.1641C65.5598 28.1641 66.1719 27.552 66.1719 26.7969C66.1719 26.0418 65.5598 25.4297 64.8047 25.4297C64.0496 25.4297 63.4375 26.0418 63.4375 26.7969C63.4375 27.552 64.0496 28.1641 64.8047 28.1641Z" fill="#E5EAEC"/>
</g>
<defs>
<clipPath id="clip0_339_344">
<rect width="70" height="70" fill="white"/>
</clipPath>
</defs>
</svg>
