<svg width="70" height="70" viewBox="0 0 70 70" fill="none" xmlns="http://www.w3.org/2000/svg">
<g clip-path="url(#clip0_339_340)">
<path d="M82.776 61.6802H56.6925C57.8319 60.2953 59.2401 58.457 60.7097 56.2305C61.4566 55.0989 62.1704 53.9391 62.8318 52.7831C63.2445 52.0611 62.9851 51.1461 62.2521 50.7395C61.5198 50.3332 60.5901 50.5886 60.1769 51.3104C59.6986 52.1471 59.1906 52.9859 58.662 53.8139L57.7181 53.7054C52.1807 52.8473 48.989 51.7899 46.0346 48.2178C51.0863 43.6437 51.0148 38.5159 50.5807 33.8312L52.9099 35.0404C55.7124 36.4953 59.179 35.4415 60.6585 32.6776C62.1371 29.9154 61.064 26.5024 58.259 25.0463C58.1219 24.9749 58.2621 25.0405 54.6534 23.6492C56.6978 24.1421 58.83 24.0017 60.7839 23.2471C61.2255 23.4236 61.6675 23.6502 62.1034 23.9273C65.0333 25.7886 66.6647 29.1443 66.3611 32.6846C66.0141 36.7346 64.9634 40.9076 63.238 45.0882C62.9212 45.8559 63.2963 46.7311 64.0757 47.043C64.8508 47.3532 65.7424 46.9897 66.0607 46.218C67.9016 41.7567 69.0242 37.2885 69.3972 32.9368C69.7941 28.3061 67.6495 23.9041 63.7985 21.4344C65.9219 19.594 67.2656 16.9007 67.2656 13.9025V11.8021C67.2656 11.0608 67.1811 10.3389 67.0255 9.64292C70.4918 8.39368 71.4551 4.01303 68.8575 1.45453C66.5185 -0.848311 62.5592 -0.356416 60.8997 2.50294C59.7179 2.02985 58.4276 1.76679 57.0754 1.76679C51.4566 1.76679 46.8855 6.26867 46.8855 11.8021V13.9025C46.8855 16.5745 47.9533 19.0039 49.6884 20.8041C49.4915 21.0391 49.3055 21.2796 49.1322 21.5256L35.6169 16.3278C27.5498 13.2252 20.4067 13.1858 19.9777 13.1316C17.5505 13.0054 16.6576 16.2202 18.7983 17.3316L25.1911 20.6502C25.9357 21.0367 26.8569 20.7557 27.2492 20.0225C27.6416 19.2896 27.3562 18.3822 26.612 17.9957L23.5811 16.4224C27.3223 16.8633 30.9865 17.7683 34.5084 19.1228L56.9056 27.7366C58.1613 28.4328 58.6486 29.9977 57.9631 31.2781C57.2702 32.5728 55.6452 33.0685 54.3304 32.3857L32.9188 21.2702C32.1743 20.8837 31.253 21.1645 30.8607 21.8979C30.4683 22.6308 30.7537 23.5382 31.4979 23.9247L47.3579 32.1583C47.886 37.5939 48.4617 42.0274 43.824 46.1378L15.083 28.1559L12.5191 25.9015C11.3099 24.8383 10.2293 23.6332 9.30712 22.3202L6.24847 17.9645C4.01734 14.7865 -0.969578 16.9815 -0.27611 20.6613L1.26967 28.862C1.63692 30.8108 3.05473 32.4005 4.96959 33.0108C5.81073 33.3379 7.27851 33.5101 8.83425 34.8898L28.3251 52.9139C31.6269 55.9673 33.4676 58.3976 35.8117 61.68H-12.7758C-15.105 61.6802 -17 63.5464 -17 65.8402C-17 68.134 -15.105 70 -12.776 70H82.776C85.1052 70 87 68.134 87 65.8402C87 63.5464 85.1052 61.6802 82.776 61.6802ZM49.9321 13.9027V11.8023C49.9321 11.5375 49.9484 11.2762 49.9776 11.0188H55.2841C56.0291 11.0188 56.6352 11.6157 56.6352 12.3494C56.6352 13.405 57.0257 14.4222 57.7342 15.2138L61.4995 19.4194C56.8542 23.0405 49.9321 19.7877 49.9321 13.9027ZM66.7025 3.57635C67.749 4.60714 67.3385 6.37409 65.9276 6.84158C65.304 5.76637 64.486 4.81438 63.5185 4.03463C64.1598 2.86881 65.757 2.64517 66.7025 3.57635ZM57.0752 4.76757C61.0142 4.76757 64.2185 7.92319 64.2185 11.8023V13.9027C64.2185 15.0396 63.9417 16.1134 63.4533 17.0646L60.0195 13.2294C59.802 12.9862 59.6821 12.6739 59.6821 12.3494C59.6821 9.96118 57.7092 8.0182 55.2841 8.0182H51.0585C52.329 6.06543 54.5504 4.76757 57.0752 4.76757ZM5.90763 30.1561C5.05755 29.8852 4.42827 29.1795 4.26536 28.3143L2.71958 20.1135C2.60928 19.5288 3.41853 19.21 3.74231 19.6711L6.80117 24.0267C7.86006 25.5348 9.10136 26.9187 10.4899 28.1399L11.9699 29.4413L9.7085 31.7696C8.07985 30.6964 6.78472 30.4753 5.90763 30.1561ZM38.9394 60.846C36.5326 57.4602 34.4469 54.459 30.4108 50.7265L12.0255 33.7248L14.398 31.2823L42.8849 49.1054C44.7222 51.5972 46.702 53.3052 49.0953 54.4672C51.3359 55.555 53.8023 56.1191 56.777 56.5964C55.073 58.9701 53.5624 60.7224 52.6922 61.6804H39.8715C39.5078 61.4739 39.1864 61.1939 38.9394 60.846ZM82.776 66.9994H-12.776C-13.4252 66.9994 -13.9531 66.4793 -13.9531 65.8402C-13.9531 65.2009 -13.425 64.6808 -12.776 64.6808H82.776C83.425 64.6808 83.9531 65.2009 83.9531 65.8402C83.9531 66.4793 83.425 66.9994 82.776 66.9994Z" fill="#E5EAEC"/>
</g>
<defs>
<clipPath id="clip0_339_340">
<rect width="70" height="70" fill="white"/>
</clipPath>
</defs>
</svg>
