<svg width="36" height="36" viewBox="0 0 36 36" fill="none" xmlns="http://www.w3.org/2000/svg">
<path d="M28.2879 21.9775C27.5624 21.2221 26.6874 20.8182 25.7599 20.8182C24.84 20.8182 23.9574 21.2146 23.202 21.97L20.8386 24.326C20.6441 24.2213 20.4496 24.1241 20.2627 24.0268C19.9934 23.8922 19.7391 23.7651 19.5222 23.6304C17.3084 22.2243 15.2964 20.3919 13.3668 18.021C12.4319 16.8393 11.8036 15.8445 11.3474 14.8348C11.9607 14.2739 12.5291 13.6905 13.0826 13.1295C13.292 12.9201 13.5014 12.7032 13.7108 12.4938C15.2815 10.9232 15.2815 8.88881 13.7108 7.31816L11.669 5.27632C11.4371 5.04446 11.1978 4.80513 10.9734 4.56579C10.5247 4.10208 10.0535 3.6234 9.56732 3.17465C8.84183 2.45664 7.97423 2.0752 7.06176 2.0752C6.14929 2.0752 5.26674 2.45664 4.51881 3.17465C4.51133 3.18213 4.51133 3.18213 4.50386 3.18961L1.96091 5.75499C1.00356 6.71234 0.457573 7.87911 0.337905 9.23285C0.158403 11.4168 0.801619 13.4512 1.29525 14.7825C2.50689 18.0509 4.31687 21.08 7.01689 24.326C10.2928 28.2377 14.2344 31.3266 18.7369 33.5031C20.4571 34.3183 22.7533 35.2831 25.3186 35.4477C25.4757 35.4552 25.6403 35.4626 25.7898 35.4626C27.5176 35.4626 28.9685 34.8419 30.1054 33.6078C30.1129 33.5928 30.1278 33.5853 30.1353 33.5704C30.5242 33.0992 30.973 32.6729 31.4442 32.2166C31.7658 31.91 32.0949 31.5884 32.4165 31.2518C33.1569 30.4814 33.5458 29.5839 33.5458 28.664C33.5458 27.7366 33.1494 26.8465 32.394 26.0986L28.2879 21.9775ZM30.9655 29.8532C30.958 29.8532 30.958 29.8607 30.9655 29.8532C30.6738 30.1673 30.3746 30.4515 30.053 30.7657C29.5669 31.2294 29.0732 31.7155 28.6095 32.2615C27.8541 33.0693 26.9641 33.4507 25.7973 33.4507C25.6851 33.4507 25.5655 33.4507 25.4533 33.4432C23.2319 33.3011 21.1677 32.4335 19.6194 31.6931C15.3862 29.6438 11.669 26.7343 8.58006 23.0471C6.02963 19.9731 4.32435 17.131 3.19498 14.0794C2.49941 12.2171 2.24512 10.7661 2.35731 9.3974C2.4321 8.52232 2.76867 7.79683 3.38945 7.17605L5.93987 4.62562C6.30636 4.28158 6.69528 4.0946 7.07672 4.0946C7.54792 4.0946 7.92936 4.37881 8.1687 4.61815C8.17617 4.62562 8.18365 4.6331 8.19113 4.64058C8.64737 5.0669 9.08117 5.50818 9.5374 5.97937C9.76926 6.21871 10.0086 6.45804 10.2479 6.70486L12.2898 8.7467C13.0826 9.5395 13.0826 10.2725 12.2898 11.0653C12.0729 11.2822 11.8635 11.4991 11.6466 11.7085C11.0183 12.3517 10.42 12.95 9.76926 13.5334C9.7543 13.5484 9.73934 13.5559 9.73186 13.5708C9.08864 14.214 9.20831 14.8423 9.34294 15.2686C9.35042 15.2911 9.3579 15.3135 9.36538 15.3359C9.89641 16.6224 10.6443 17.834 11.7812 19.2775L11.7887 19.285C13.8529 21.8279 16.0294 23.8099 18.4302 25.3282C18.7369 25.5227 19.051 25.6798 19.3502 25.8293C19.6194 25.964 19.8737 26.0911 20.0906 26.2257C20.1206 26.2407 20.1505 26.2631 20.1804 26.2781C20.4347 26.4052 20.674 26.4651 20.9208 26.4651C21.5416 26.4651 21.9305 26.0762 22.0577 25.949L24.6156 23.3911C24.8699 23.1368 25.2738 22.8302 25.745 22.8302C26.2087 22.8302 26.5901 23.1218 26.822 23.3761C26.8295 23.3836 26.8295 23.3836 26.8369 23.3911L30.958 27.5122C31.7284 28.2751 31.7284 29.0604 30.9655 29.8532Z" fill="#023047"/>
<path d="M19.4322 8.45515C21.3918 8.78424 23.1718 9.71167 24.5929 11.1327C26.0139 12.5538 26.9339 14.3339 27.2705 16.2934C27.3527 16.7871 27.779 17.1311 28.2652 17.1311C28.325 17.1311 28.3774 17.1236 28.4372 17.1161C28.9907 17.0264 29.3572 16.5028 29.2674 15.9494C28.8635 13.5784 27.7417 11.4169 26.0289 9.70419C24.3161 7.99144 22.1546 6.86955 19.7837 6.46567C19.2302 6.37592 18.7142 6.7424 18.6169 7.28839C18.5197 7.83437 18.8787 8.3654 19.4322 8.45515Z" fill="#023047"/>
<path d="M35.6772 15.6575C35.0115 11.7533 33.1716 8.20066 30.3445 5.3735C27.5173 2.54634 23.9647 0.706438 20.0605 0.0407841C19.5145 -0.0564464 18.9984 0.317517 18.9012 0.863503C18.8115 1.41697 19.1779 1.93304 19.7314 2.03027C23.2167 2.62113 26.3954 4.27405 28.9234 6.79456C31.4514 9.32255 33.0968 12.5012 33.6877 15.9866C33.77 16.4802 34.1963 16.8243 34.6825 16.8243C34.7423 16.8243 34.7946 16.8168 34.8545 16.8093C35.4005 16.727 35.7744 16.2035 35.6772 15.6575Z" fill="#023047"/>
</svg>
