<svg width="49" height="37" viewBox="0 0 49 37" fill="none" xmlns="http://www.w3.org/2000/svg">
<path d="M49 4.54625C49 2.03948 46.9771 0 44.4907 0H4.50926C2.02336 9.64886e-05 0.000861332 2.03861 0 4.54703V4.5478V32.4522C0 34.9903 2.04346 37 4.51079 37H44.4891C47.0065 37 48.9999 34.9399 48.9999 32.4522V4.5478C48.9999 4.5476 48.9999 4.54741 48.9999 4.54722C49 4.54693 49 4.54664 49 4.54625ZM4.50926 2.89475H44.4907C45.394 2.89475 46.1289 3.63569 46.1289 4.54867C46.1289 5.03381 45.8897 5.48412 45.4887 5.75352L25.4097 19.25C24.8572 19.6213 24.143 19.6214 23.5904 19.25C23.5904 19.25 3.51088 5.75323 3.51127 5.75352C3.51136 5.75361 3.51098 5.75333 3.51088 5.75323C3.11027 5.48412 2.87111 5.03381 2.87111 4.54625C2.87111 3.63559 3.60601 2.89475 4.50926 2.89475ZM44.4892 34.1053H4.51079C3.61702 34.1053 2.87111 33.3768 2.87111 32.4522V8.80227L21.9977 21.6583C22.7578 22.1692 23.6289 22.4246 24.5 22.4246C25.3712 22.4246 26.2424 22.1692 27.0024 21.6583L46.1289 8.80227V32.4523C46.1289 33.3533 45.4062 34.1053 44.4892 34.1053Z" fill="#023047"/>
</svg>
