<svg width="60" height="61" viewBox="0 0 60 61" fill="none" xmlns="http://www.w3.org/2000/svg">
<path d="M16.8221 8.66867L16.5631 11.48C16.5148 12.0029 16.7397 12.4994 17.1645 12.8082C17.5893 13.1169 18.1312 13.1773 18.6139 12.9699L21.2075 11.8548L23.8012 12.97C23.9908 13.0515 24.1894 13.0915 24.3865 13.0915C24.6914 13.0915 24.9924 12.9957 25.2505 12.8082C25.6753 12.4994 25.9001 12.0029 25.8519 11.48L25.5929 8.66867L27.455 6.54653C27.8014 6.15172 27.9112 5.6177 27.7489 5.11825C27.5866 4.61868 27.1838 4.25153 26.6716 4.13575L23.9178 3.51325L22.475 1.08666C22.2065 0.635253 21.7327 0.365723 21.2075 0.365723C20.6823 0.365723 20.2085 0.635253 19.94 1.08666L18.4972 3.51337L15.7434 4.13575C15.2311 4.25142 14.8284 4.6188 14.6661 5.11825C14.5038 5.6177 14.6136 6.15161 14.9601 6.54653L16.8221 8.66867ZM19.0036 5.2011C19.3966 5.11227 19.7401 4.86266 19.946 4.51638L21.2076 2.39458L22.4692 4.51649C22.6751 4.86278 23.0186 5.11227 23.4117 5.2011L25.8195 5.74544L24.1913 7.60086C23.9254 7.90391 23.7943 8.30773 23.8313 8.70875L24.0578 11.167L21.7898 10.1919C21.6048 10.1123 21.4062 10.0726 21.2076 10.0726C21.009 10.0726 20.8102 10.1123 20.6251 10.192L18.3571 11.167L18.5837 8.70875C18.6206 8.3075 18.4895 7.90367 18.2237 7.60098L16.5955 5.7452L19.0036 5.2011Z" fill="#023853"/>
<path d="M3.51561 12.9788L5.57705 12.0926L7.63849 12.9788C7.81427 13.0545 7.99826 13.0916 8.18107 13.0916C8.46349 13.0916 8.74263 13.0027 8.98181 12.8289C9.37568 12.5428 9.58415 12.0825 9.53939 11.5977L9.33337 9.3633L10.8134 7.67663C11.1344 7.31065 11.2363 6.81577 11.0859 6.35276C10.9354 5.88987 10.5622 5.54945 10.0874 5.4421L7.89865 4.94745L6.75186 3.01879C6.50307 2.60043 6.06385 2.35059 5.57705 2.35059C5.09026 2.35059 4.65116 2.60043 4.40225 3.01879L3.25558 4.94757L1.06675 5.44222C0.591911 5.54956 0.21867 5.88999 0.0682015 6.35288C-0.0822668 6.81589 0.0195688 7.31077 0.340779 7.67686L1.82074 9.3633L1.61484 11.5977C1.57019 12.0825 1.77867 12.5427 2.17253 12.8289C2.56628 13.1151 3.06855 13.1709 3.51561 12.9788ZM2.09577 7.01171L3.80706 6.62499C4.17116 6.54261 4.48944 6.3114 4.68046 5.99042L5.57694 4.48246L6.47377 5.99065C6.66467 6.31151 6.98295 6.54272 7.34717 6.62499L9.05833 7.01171L7.90111 8.33041C7.6549 8.61108 7.53338 8.98526 7.56748 9.35733L7.72849 11.1041L6.1167 10.4112C5.77369 10.2638 5.38018 10.2637 5.03717 10.4113L3.4255 11.1042L3.58651 9.35744C3.62073 8.98573 3.49933 8.61155 3.25288 8.3303L2.09577 7.01171Z" fill="#023853"/>
<path d="M32.3126 9.3633L32.1067 11.5977C32.062 12.0825 32.2705 12.5427 32.6644 12.8289C33.0582 13.1151 33.5604 13.1709 34.0076 12.9786L36.069 12.0925L38.1304 12.9788C38.3061 13.0543 38.4902 13.0915 38.673 13.0915C38.9554 13.0915 39.2346 13.0026 39.4738 12.8288C39.8676 12.5427 40.0761 12.0824 40.0313 11.5976L39.8254 9.3633L41.3055 7.67663C41.6265 7.31065 41.7283 6.81577 41.578 6.35276C41.4275 5.88987 41.0543 5.54945 40.5794 5.4421L38.3906 4.94745L37.2437 3.01879C36.9949 2.60043 36.5557 2.35059 36.0689 2.35059C35.5821 2.35059 35.143 2.60043 34.8942 3.01879L33.7475 4.94757L31.5587 5.44222C31.0839 5.54956 30.7106 5.88999 30.5601 6.35288C30.4097 6.81589 30.5115 7.31077 30.8327 7.67674L32.3126 9.3633ZM34.299 6.62499C34.6631 6.54261 34.9814 6.3114 35.1724 5.99042L36.0689 4.48246L36.9656 5.99066C37.1565 6.31151 37.4749 6.54272 37.839 6.62499L39.5502 7.01171L38.3929 8.33042C38.1467 8.61108 38.0252 8.98526 38.0593 9.35733L38.2203 11.1042L36.6085 10.4112C36.2655 10.2638 35.872 10.2637 35.529 10.4113L33.9173 11.1042L34.0783 9.35744C34.1127 8.98561 33.991 8.61131 33.7446 8.33042L32.5875 7.01171L34.299 6.62499Z" fill="#023853"/>
<path d="M59.3847 47.3398C59.3847 46.3804 58.9743 45.5152 58.3198 44.9104C58.9743 44.3056 59.3847 43.4403 59.3847 42.481C59.3847 40.6569 57.9005 39.1727 56.0776 39.1727L47.2478 39.1592C46.5772 39.1582 46.0315 38.6116 46.0315 37.941V31.6671C46.0315 30.0616 45.2206 28.592 43.8623 27.7359C43.2111 27.3253 42.4243 27.2463 41.7035 27.5191C40.9818 27.7922 40.4437 28.3733 40.2269 29.1134L36.718 41.0949C36.2684 42.6301 34.8373 43.7021 33.2377 43.7021H31.7166V43.2004C31.7166 42.1842 30.8899 41.3574 29.8736 41.3574H24.0607C23.0444 41.3574 22.2177 42.1842 22.2177 43.2004V48.8444H7.20331C6.42882 48.8444 5.70589 48.4985 5.22004 47.8952C4.73418 47.292 4.55019 46.512 4.71519 45.7552C5.43168 42.47 7.26847 39.499 9.88713 37.3898C12.5059 35.2806 15.7999 34.119 19.1625 34.119H20.8359C25.7055 34.119 30.3371 36.224 33.5431 39.8944C33.8625 40.2601 34.4176 40.2974 34.7833 39.9781C35.1489 39.6588 35.1863 39.1036 34.867 38.7381C32.3504 35.857 29.0379 33.8505 25.4011 32.9306C28.2767 31.3236 30.2265 28.2502 30.2265 24.7285C30.2265 19.5504 26.014 15.3379 20.8361 15.3379C18.6853 15.3379 16.5834 16.0836 14.9174 17.4375C14.5406 17.7436 14.4834 18.2972 14.7897 18.674C15.0959 19.0505 15.6495 19.1078 16.026 18.8017C17.3796 17.7016 19.0879 17.0957 20.8361 17.0957C25.0447 17.0957 28.4687 20.5198 28.4687 24.7285C28.4687 28.9371 25.0447 32.3612 20.8361 32.3612C16.6273 32.3612 13.2033 28.9371 13.2033 24.7285C13.2033 23.572 13.455 22.4617 13.9514 21.4282C14.1617 20.9908 13.9773 20.4657 13.5397 20.2554C13.1022 20.0453 12.5772 20.2296 12.3669 20.6672C11.7554 21.94 11.4454 23.3064 11.4454 24.7285C11.4454 28.085 13.2167 31.0342 15.8725 32.6948C13.2928 33.2205 10.8508 34.3567 8.78452 36.0207C5.85449 38.3808 3.79926 41.7048 2.9977 45.3806C2.71879 46.6597 3.02969 47.978 3.85094 48.9976C4.67207 50.0172 5.89398 50.602 7.20319 50.602H22.2176V58.0209C22.2176 59.0371 23.0443 59.8639 24.0606 59.8639H29.8735C30.8898 59.8639 31.7165 59.0371 31.7165 58.0209V57.9931H34.5496C36.4619 57.9931 38.2673 58.3566 39.9158 59.0733C41.8304 59.9058 43.8596 60.3278 45.9436 60.3278L56.0762 60.3658C57.9005 60.3658 59.3845 58.8816 59.3845 57.0575C59.3845 56.0982 58.9742 55.233 58.3197 54.6282C58.9742 54.0234 59.3845 53.1581 59.3845 52.1988C59.3845 51.2395 58.9742 50.3742 58.3197 49.7694C58.9742 49.1643 59.3847 48.299 59.3847 47.3398ZM29.9587 58.021C29.9587 58.0679 29.9205 58.1062 29.8735 58.1062H24.0606C24.0136 58.1062 23.9754 58.068 23.9754 58.021V43.2003C23.9754 43.1534 24.0136 43.1151 24.0606 43.1151H29.8735C29.9205 43.1151 29.9587 43.1533 29.9587 43.2003V58.021ZM53.1911 45.7892H56.0763C56.9313 45.7892 57.6269 46.4848 57.6269 47.3397C57.6269 48.1946 56.9312 48.8901 56.0763 48.8901H53.1911C52.7057 48.8901 52.3122 49.2835 52.3122 49.769C52.3122 50.2545 52.7057 50.6479 53.1911 50.6479H56.0763C56.9313 50.6479 57.6269 51.3435 57.6269 52.1984C57.6269 53.0533 56.9312 53.7489 56.0763 53.7489H53.1911C52.7057 53.7489 52.3122 54.1423 52.3122 54.6278C52.3122 55.1133 52.7057 55.5067 53.1911 55.5067H56.0763C56.9313 55.5067 57.6269 56.2024 57.6269 57.0571C57.6269 57.9121 56.9312 58.6076 56.0795 58.6076L45.9468 58.5698C44.102 58.5698 42.3087 58.1966 40.6165 57.4611C38.7457 56.6476 36.7045 56.2351 34.5496 56.2351H31.7165V45.4596H33.2376C35.6125 45.4596 37.7373 43.8678 38.4048 41.5888L41.9137 29.6071C41.974 29.4008 42.1242 29.2389 42.3255 29.1627C42.5259 29.087 42.7443 29.1087 42.925 29.2226C43.7696 29.7548 44.2737 30.6686 44.2737 31.6666V37.9405C44.2737 39.5789 45.6067 40.9139 47.2451 40.9166L56.0762 40.9301C56.9312 40.9301 57.6267 41.6257 57.6267 42.4806C57.6267 43.3354 56.9311 44.0311 56.0762 44.0311H53.191C52.7056 44.0311 52.3121 44.4245 52.3121 44.91C52.3121 45.3955 52.7056 45.7892 53.1911 45.7892Z" fill="#023853"/>
</svg>
