<svg width="62" height="59" viewBox="0 0 62 59" fill="none" xmlns="http://www.w3.org/2000/svg">
<path d="M9.29886 10.1216L11.2822 14.1682L15.7814 14.7726C16.6732 14.8908 16.9927 15.9813 16.3804 16.5594L13.0925 19.6732L13.9045 24.0878C14.0642 24.9549 13.1325 25.6118 12.3604 25.1914L8.35376 23.063L4.34711 25.1914C3.57507 25.5987 2.60335 24.9681 2.81633 24.0221L3.615 19.6601L0.32715 16.5463C-0.311784 15.9419 0.0343051 14.8646 0.939462 14.7463L5.42531 14.1419L7.40867 10.0953C7.78139 9.32012 8.92614 9.33326 9.29886 10.1216ZM9.61832 15.5872L8.35376 12.9858L7.0759 15.5872C6.92947 15.8894 6.62332 16.1259 6.26392 16.1784L3.3754 16.5594L5.49187 18.5565C5.73147 18.793 5.86458 19.1346 5.79803 19.4893L5.27889 22.3272L7.83463 20.974C8.14079 20.8163 8.52681 20.79 8.84628 20.974L11.4153 22.3404L10.9095 19.555C10.8296 19.2134 10.9228 18.8324 11.2023 18.5565L13.3188 16.5594L10.4569 16.1784C10.1108 16.139 9.77806 15.9156 9.61832 15.5872ZM31.9544 0.596169L33.9378 4.64282L38.4502 5.24719C39.3421 5.36544 39.6616 6.45593 39.0492 7.04716L35.7614 10.161L36.5734 14.5755C36.7331 15.4427 35.8013 16.0996 35.0293 15.6791L30.996 13.5507L26.9894 15.6791C26.2173 16.0864 25.2456 15.4558 25.4586 14.5098L26.2572 10.1478L22.9561 7.03403C22.3171 6.42966 22.6632 5.3523 23.5684 5.23405L28.0542 4.62968L30.0376 0.596169C30.4369 -0.205279 31.5684 -0.19214 31.9544 0.596169ZM32.2739 6.06178L30.996 3.46036L29.7314 6.06178C29.585 6.36396 29.2789 6.60046 28.9195 6.65301L26.0176 7.03403L28.1341 9.03107C28.387 9.26757 28.5068 9.60917 28.4403 9.96391L27.9211 12.8018L30.4902 11.4486C30.7963 11.2909 31.1691 11.2646 31.5018 11.4486L34.0709 12.815L33.5651 10.0296C33.4852 9.688 33.5784 9.30698 33.8579 9.03107L35.9744 7.03403L33.1125 6.63987C32.7531 6.61359 32.4336 6.39024 32.2739 6.06178ZM54.5966 10.1216L56.58 14.1682L61.0792 14.7726C61.971 14.8908 62.3038 15.9813 61.6782 16.5594L58.3903 19.6732L59.2023 24.0878C59.362 24.9549 58.4303 25.6118 57.6582 25.1914L53.6516 23.063L49.6449 25.1914C48.8729 25.5987 47.9011 24.9681 48.1008 24.0221L48.8995 19.6601L45.6116 16.5463C44.9727 15.9419 45.3188 14.8646 46.2239 14.7463L50.7098 14.1419L52.6932 10.0953C53.0792 9.32012 54.2239 9.33326 54.5966 10.1216ZM54.9161 15.5872L53.6516 12.9858L52.3737 15.5872C52.2273 15.8894 51.9344 16.1259 51.5617 16.1784L48.6732 16.5594L50.7764 18.5565C51.016 18.793 51.1491 19.1346 51.0825 19.4893L50.5634 22.3272L53.1324 20.974C53.4386 20.8163 53.8246 20.79 54.1441 20.974L56.7264 22.3404L56.2206 19.555C56.1407 19.2134 56.2339 18.8324 56.5135 18.5565L58.6166 16.5594L55.7547 16.1784C55.4086 16.139 55.0759 15.9156 54.9161 15.5872ZM26.0576 36.9504C25.7647 36.4511 25.9378 35.8073 26.4436 35.5183C26.9494 35.2292 27.6017 35.4 27.8945 35.8993L29.2922 38.2905L34.2572 33.3898C34.6699 32.9825 35.3487 32.9825 35.7614 33.3898C36.174 33.7971 36.174 34.4672 35.7614 34.8745L29.8113 40.7474C29.3188 41.2335 28.4935 41.1284 28.1474 40.5372L26.0576 36.9504ZM30.996 25.8483C36.7864 25.8483 41.4852 30.4862 41.4852 36.2015C41.4852 41.9167 36.7864 46.5546 30.996 46.5546C25.2057 46.5546 20.5068 41.9167 20.5068 36.2015C20.5068 30.4862 25.2057 25.8483 30.996 25.8483ZM36.9062 30.368C33.6449 27.149 28.3471 27.149 25.0859 30.368C21.8246 33.5869 21.8246 38.816 25.0859 42.0349C28.3471 45.2539 33.6449 45.2539 36.9062 42.0349C40.1674 38.8029 40.1674 33.5869 36.9062 30.368ZM30.996 19.3448C40.4203 19.3448 48.0609 26.8863 48.0609 36.1883C48.0609 39.7094 46.9694 42.9809 45.0925 45.6874L50.1907 54.3983C50.6832 55.2128 50.0043 56.1325 49.1258 56.0012L43.9078 55.1866L41.1125 58.5763C40.62 59.2069 39.7015 59.1018 39.3421 58.4712L35.7747 52.3749C32.6599 53.2683 29.3188 53.2683 26.2173 52.3749L22.6499 58.4712C22.2905 59.1018 21.3721 59.2069 20.8795 58.5763L18.0842 55.1866L12.8662 56.0012C11.9744 56.1457 11.3488 55.1866 11.7747 54.4377L16.8995 45.6874C12.2672 39 13.1325 30.0001 18.9361 24.2717C22.011 21.2367 26.2839 19.3448 30.996 19.3448ZM43.6815 47.4611C42.0576 49.248 40.0609 50.6801 37.798 51.6523L40.407 56.1063L42.6433 53.3997C42.8962 53.0844 43.2822 52.9662 43.6549 53.0319L47.2489 53.5968L43.6815 47.4611ZM24.1807 51.6523C21.9311 50.6801 19.9345 49.248 18.3105 47.4743L14.7298 53.5968L18.3238 53.0319C18.6832 52.9662 19.0825 53.0975 19.3355 53.3997L21.5717 56.1063L24.1807 51.6523ZM41.565 25.7695C35.7348 20.0148 26.2706 20.0148 20.4403 25.7695C14.61 31.5242 14.61 40.8656 20.4403 46.6203C26.2839 52.3749 35.7348 52.3749 41.565 46.6203C47.3953 40.8656 47.3953 31.5242 41.565 25.7695Z" fill="#023047"/>
</svg>
