<svg width="46" height="45" viewBox="0 0 46 45" fill="none" xmlns="http://www.w3.org/2000/svg">
<path d="M36.0373 27.876C35.116 26.9167 34.0048 26.4039 32.8271 26.4039C31.6589 26.4039 30.5382 26.9073 29.5789 27.8665L26.5777 30.8582C26.3308 30.7253 26.0838 30.6018 25.8464 30.4783C25.5045 30.3074 25.1816 30.1459 24.9062 29.975C22.0949 28.1894 19.54 25.8625 17.0897 22.8518C15.9025 21.3512 15.1047 20.088 14.5253 18.8058C15.3041 18.0935 16.0259 17.3527 16.7288 16.6404C16.9947 16.3745 17.2606 16.099 17.5266 15.8331C19.521 13.8386 19.521 11.2553 17.5266 9.26081L14.9337 6.66798C14.6393 6.37355 14.3354 6.06963 14.0505 5.76571C13.4806 5.17686 12.8823 4.56902 12.2649 3.99917C11.3437 3.0874 10.2419 2.60303 9.08324 2.60303C7.92454 2.60303 6.80382 3.0874 5.85407 3.99917C5.84457 4.00866 5.84457 4.00866 5.83507 4.01816L2.60591 7.27582C1.39022 8.49151 0.696901 9.97312 0.54494 11.6922C0.316999 14.4655 1.13379 17.0488 1.76063 18.7394C3.29923 22.8898 5.59764 26.7363 9.02625 30.8582C13.1862 35.8254 18.1914 39.7479 23.9089 42.5117C26.0933 43.547 29.0091 44.7721 32.2668 44.9811C32.4662 44.9906 32.6751 45.0001 32.8651 45.0001C35.059 45.0001 36.9016 44.2118 38.3452 42.6447C38.3547 42.6257 38.3737 42.6162 38.3832 42.5972C38.877 41.9989 39.4469 41.4575 40.0452 40.8781C40.4536 40.4887 40.8715 40.0803 41.2799 39.653C42.2202 38.6747 42.7141 37.535 42.7141 36.3668C42.7141 35.1891 42.2107 34.0589 41.2514 33.1091L36.0373 27.876ZM39.4374 37.8769C39.4279 37.8769 39.4279 37.8864 39.4374 37.8769C39.067 38.2758 38.6871 38.6367 38.2787 39.0356C37.6614 39.6245 37.0345 40.2418 36.4457 40.9351C35.4864 41.9609 34.3562 42.4452 32.8746 42.4452C32.7321 42.4452 32.5802 42.4452 32.4377 42.4357C29.6169 42.2553 26.9956 41.1536 25.0296 40.2133C19.654 37.611 14.9337 33.9164 11.0112 29.2341C7.77257 25.3307 5.60713 21.7216 4.173 17.8466C3.28973 15.4817 2.96682 13.6392 3.10928 11.9011C3.20425 10.7899 3.63164 9.86865 4.41994 9.08036L7.6586 5.84169C8.12398 5.4048 8.61786 5.16736 9.10223 5.16736C9.70058 5.16736 10.185 5.52827 10.4889 5.83219C10.4984 5.84169 10.5079 5.85119 10.5174 5.86069C11.0967 6.40205 11.6476 6.9624 12.2269 7.56075C12.5213 7.86467 12.8253 8.16859 13.1292 8.48201L15.722 11.0748C16.7288 12.0816 16.7288 13.0123 15.722 14.0191C15.4466 14.2945 15.1807 14.5699 14.9052 14.8359C14.1074 15.6527 13.3476 16.4125 12.5213 17.1533C12.5024 17.1723 12.4834 17.1818 12.4739 17.2008C11.6571 18.0175 11.809 18.8153 11.98 19.3567C11.9895 19.3852 11.999 19.4137 12.0085 19.4422C12.6828 21.0758 13.6326 22.6144 15.0762 24.4474L15.0857 24.4569C17.707 27.6861 20.4708 30.2029 23.5195 32.1309C23.9089 32.3778 24.3078 32.5773 24.6877 32.7672C25.0296 32.9382 25.3525 33.0997 25.628 33.2706C25.666 33.2896 25.7039 33.3181 25.7419 33.3371C26.0649 33.4985 26.3688 33.5745 26.6822 33.5745C27.4705 33.5745 27.9644 33.0807 28.1258 32.9192L31.374 29.671C31.6969 29.3481 32.2098 28.9587 32.8081 28.9587C33.397 28.9587 33.8813 29.3291 34.1758 29.652C34.1853 29.6615 34.1853 29.6615 34.1948 29.671L39.4279 34.9042C40.4062 35.8729 40.4062 36.8702 39.4374 37.8769Z" fill="#023047"/>
<path d="M24.7917 10.7046C27.2801 11.1225 29.5405 12.3002 31.345 14.1048C33.1496 15.9093 34.3178 18.1697 34.7451 20.6581C34.8496 21.2849 35.391 21.7218 36.0083 21.7218C36.0843 21.7218 36.1508 21.7123 36.2268 21.7028C36.9296 21.5888 37.395 20.924 37.281 20.2212C36.7681 17.2105 35.3435 14.4657 33.1686 12.2907C30.9936 10.1158 28.2488 8.69117 25.2381 8.1783C24.5353 8.06433 23.88 8.52971 23.7565 9.22303C23.633 9.91635 24.0889 10.5907 24.7917 10.7046Z" fill="#023047"/>
<path d="M45.4207 19.8504C44.5755 14.8927 42.2391 10.3814 38.649 6.7913C35.0589 3.20123 30.5476 0.864829 25.5899 0.0195474C24.8965 -0.103921 24.2412 0.370957 24.1177 1.06428C24.0038 1.7671 24.4692 2.42243 25.172 2.54589C29.5978 3.2962 33.6343 5.39516 36.8445 8.59583C40.0546 11.806 42.1441 15.8425 42.8944 20.2683C42.9989 20.8952 43.5402 21.332 44.1576 21.332C44.2335 21.332 44.3 21.3225 44.376 21.313C45.0693 21.2086 45.5442 20.5437 45.4207 19.8504Z" fill="#023047"/>
</svg>
