<svg width="34" height="27" viewBox="0 0 34 27" fill="none" xmlns="http://www.w3.org/2000/svg">
<path d="M33.0295 3.18963L26.5294 0.589618C26.3742 0.527419 26.201 0.527419 26.0458 0.589618L19.5458 3.18963C19.4253 3.23792 19.322 3.32118 19.2493 3.42869C19.1765 3.5362 19.1376 3.66303 19.1376 3.79284V10.5113C19.141 11.7457 19.4622 12.9585 20.0704 14.0328C20.6786 15.1071 21.5532 16.0066 22.6099 16.6447L25.9535 18.6506C26.0545 18.7111 26.17 18.7431 26.2876 18.7431C26.4053 18.7431 26.5208 18.7111 26.6217 18.6506L29.5377 16.9008V24.1809C29.5373 24.4635 29.4249 24.7344 29.2251 24.9343C29.0252 25.1341 28.7543 25.2465 28.4717 25.2469H3.30351C3.0209 25.2465 2.74995 25.1341 2.55011 24.9343C2.35027 24.7344 2.23785 24.4635 2.23751 24.1809V9.64287H17.1876C17.36 9.64287 17.5253 9.57439 17.6472 9.45249C17.7691 9.33059 17.8376 9.16526 17.8376 8.99287C17.8376 8.82048 17.7691 8.65514 17.6472 8.53324C17.5253 8.41134 17.36 8.34286 17.1876 8.34286H2.23751V6.80885C2.23785 6.52624 2.35027 6.25529 2.55011 6.05545C2.74995 5.85561 3.0209 5.74319 3.30351 5.74285H17.1876C17.36 5.74285 17.5253 5.67437 17.6472 5.55247C17.7691 5.43057 17.8376 5.26524 17.8376 5.09284C17.8376 4.92045 17.7691 4.75512 17.6472 4.63322C17.5253 4.51132 17.36 4.44284 17.1876 4.44284H3.30351C2.67611 4.44318 2.07451 4.69257 1.63087 5.13621C1.18723 5.57985 0.937844 6.18145 0.9375 6.80885V24.177C0.937844 24.8044 1.18723 25.406 1.63087 25.8496C2.07451 26.2932 2.67611 26.5426 3.30351 26.543H28.4717C29.0991 26.5426 29.7007 26.2932 30.1443 25.8496C30.5879 25.406 30.8373 24.8044 30.8377 24.177V16.0129C31.6474 15.3416 32.2999 14.5007 32.7491 13.5496C33.1984 12.5986 33.4334 11.5605 33.4377 10.5087V3.79284C33.4377 3.66303 33.3988 3.5362 33.326 3.42869C33.2533 3.32118 33.15 3.23792 33.0295 3.18963ZM32.1377 10.5113C32.135 11.5214 31.8721 12.5138 31.3744 13.3927C30.8766 14.2716 30.1608 15.0075 29.2959 15.5293L26.2876 17.335L23.2794 15.5293C22.4145 15.0075 21.6987 14.2716 21.2009 13.3927C20.7032 12.5138 20.4403 11.5214 20.4376 10.5113V4.23224L26.2876 1.89223L32.1377 4.23224V10.5113Z" fill="#023047"/>
<path d="M24.1496 8.64377C24.0893 8.58334 24.0176 8.53538 23.9387 8.50264C23.8599 8.4699 23.7753 8.45302 23.6899 8.45296C23.6045 8.4529 23.5199 8.46966 23.441 8.50229C23.362 8.53492 23.2903 8.58277 23.2299 8.64312C23.1694 8.70347 23.1215 8.77513 23.0887 8.85402C23.056 8.9329 23.0391 9.01746 23.0391 9.10287C23.039 9.18827 23.0558 9.27286 23.0884 9.35179C23.121 9.43071 23.1689 9.50244 23.2292 9.56288L24.9634 11.2958C25.0853 11.4176 25.2506 11.4861 25.423 11.4861C25.5953 11.4861 25.7606 11.4176 25.8825 11.2958L29.3497 7.82867C29.4715 7.70661 29.5399 7.54114 29.5398 7.36866C29.5397 7.19617 29.4711 7.03079 29.349 6.90891C29.227 6.78703 29.0615 6.71863 28.889 6.71875C28.7165 6.71887 28.5511 6.78751 28.4293 6.90956L25.4223 9.91778L24.1496 8.64377Z" fill="#023047"/>
<path d="M5.48594 21.3438C5.31355 21.3438 5.14822 21.4122 5.02632 21.5341C4.90442 21.656 4.83594 21.8214 4.83594 21.9938C4.83594 22.1661 4.90442 22.3315 5.02632 22.4534C5.14822 22.5753 5.31355 22.6438 5.48594 22.6438H10.686C10.8584 22.6438 11.0237 22.5753 11.1456 22.4534C11.2675 22.3315 11.336 22.1661 11.336 21.9938C11.336 21.8214 11.2675 21.656 11.1456 21.5341C11.0237 21.4122 10.8584 21.3438 10.686 21.3438H5.48594Z" fill="#023047"/>
</svg>
