<svg width="50" height="50" viewBox="0 0 50 50" fill="none" xmlns="http://www.w3.org/2000/svg">
<path fill-rule="evenodd" clip-rule="evenodd" d="M32.5194 3.09302C28.9522 3.61695 25.57 5.74292 23.5971 8.70122C22.097 10.9505 21.3714 13.3236 21.3726 15.9766C21.3737 18.7846 22.199 21.3722 23.8048 23.6025C24.9106 25.1383 26.9021 26.837 28.5777 27.6735C31.5378 29.1513 35.2975 29.4209 38.4088 28.3786C41.6476 27.2935 44.3433 25.012 45.8971 22.0409C46.997 19.9376 47.434 17.9657 47.3488 15.491C47.2898 13.7797 47.0498 12.6128 46.4523 11.131C46.1642 10.4167 46.1288 10.2527 46.2346 10.1243C46.7507 9.49761 47.7247 8.38843 48.2875 7.78658C49.1108 6.90591 49.3418 6.42154 49.3418 5.57622C49.3418 4.81704 49.1151 4.25884 48.6006 3.75161C48.0277 3.18667 47.6386 3.03716 46.7417 3.03716C45.6554 3.03716 45.3367 3.24224 44.0582 4.76421C43.5027 5.42564 43.0172 6.00259 42.9795 6.04624C42.9418 6.08999 42.6205 5.90591 42.2657 5.63726C39.913 3.8565 37.24 2.97281 34.2906 3.00064C33.6192 3.00699 32.8221 3.04859 32.5194 3.09302ZM33.2652 4.61236C30.6255 4.89771 28.2033 6.05288 26.3293 7.91997C24.5867 9.6562 23.4965 11.7605 23.1123 14.1293C21.9809 21.1061 27.3297 27.4024 34.3882 27.4024C41.8539 27.4024 47.3109 20.3257 45.418 13.0988C45.3072 12.6755 45.1535 12.1787 45.0766 11.9947L44.9368 11.66L41.942 15.2587C36.3874 21.9334 36.0898 22.2233 34.7902 22.2256C33.6801 22.2277 33.7321 22.2665 30.3484 18.9137C28.1766 16.7618 27.1806 15.7074 27.0519 15.424C26.6102 14.4513 26.7583 13.4216 27.4538 12.6316C27.9819 12.0316 28.5958 11.7431 29.3528 11.7393C30.4153 11.7338 30.5426 11.818 32.6936 13.9486L34.6611 15.8974L35.394 15.0336C38.732 11.1003 41.809 7.4188 41.8095 7.35796C41.8106 7.21822 40.4899 6.30806 39.6588 5.87593C38.6852 5.36968 37.5848 4.98345 36.5452 4.78325C35.7739 4.63472 33.9414 4.53921 33.2652 4.61236ZM46.2814 4.71724C46.1357 4.81372 43.6163 7.74908 40.6829 11.2403C37.7495 14.7315 35.2786 17.6429 35.192 17.71C35.1054 17.7772 34.8811 17.8321 34.6936 17.8321C34.3796 17.8321 34.1747 17.6551 32.0933 15.586C29.8557 13.3617 29.8298 13.3399 29.418 13.3399C28.8298 13.3399 28.4312 13.7399 28.4312 14.33V14.7493L31.3595 17.6823L34.2878 20.6153H34.7233C35.0876 20.6153 35.2168 20.5596 35.5159 20.2735C36.1257 19.6899 38.1299 17.3527 41.4197 13.3887C43.158 11.294 45.1106 8.97447 45.7587 8.23413C47.7884 5.91577 47.7671 5.944 47.7671 5.57407C47.7671 4.84751 46.868 4.32896 46.2814 4.71724ZM17.5569 26.5853C16.4578 26.821 15.3775 27.3565 11.7021 29.4873C9.77884 30.6021 8.1472 31.5367 8.0761 31.5639C7.99427 31.5953 7.81995 31.3872 7.6012 30.9972C7.01741 29.9562 6.43753 29.5508 5.53177 29.5508C5.1677 29.5508 4.84895 29.6204 4.57474 29.7594C3.50979 30.2998 1.88587 31.2706 1.6013 31.537C1.17093 31.9399 0.954424 32.5416 1.00804 33.186C1.04661 33.6505 1.42317 34.359 4.83694 40.3907C6.91936 44.0699 8.71468 47.1787 8.82659 47.299C9.20843 47.7097 9.8304 47.9371 10.45 47.8922C10.9334 47.8573 11.2087 47.742 12.4031 47.0751C13.1678 46.6482 13.9461 46.1738 14.1327 46.0209C14.6181 45.6232 14.857 45.099 14.857 44.4317C14.857 43.9509 14.7915 43.7538 14.3775 42.9857L13.8981 42.0962L14.6289 41.6701L15.3599 41.244L17.3789 41.7894C22.8695 43.2728 26.0186 44.112 26.771 44.2921C28.2968 44.6575 29.8792 44.5242 31.1892 43.9201C32.151 43.4765 47.9627 33.7053 48.4322 33.2643C48.6637 33.0469 48.9713 32.6168 49.1157 32.3085C49.3462 31.8168 49.3783 31.6284 49.3778 30.7715C49.3768 29.5274 49.1615 28.9956 48.3589 28.2559C47.1306 27.1236 45.4575 27.0217 43.2168 27.9428C42.364 28.2934 42.3534 28.2994 36.6831 31.6007C32.5299 34.0188 32.391 34.0959 31.8468 34.2879L31.4761 34.4188L31.6861 33.9624C31.9829 33.3171 31.9829 32.0345 31.686 31.3891C31.4271 30.8264 30.7727 30.1033 30.2396 29.7909C30.0139 29.6585 29.2662 29.4274 28.5249 29.2607C26.9256 28.901 25.1455 28.352 22.4011 27.372C19.6106 26.3756 18.9982 26.2761 17.5569 26.5853ZM17.5712 28.23C16.781 28.4476 15.8915 28.9132 12.2916 30.9942C9.64993 32.5212 8.81214 33.0497 8.85462 33.162C8.9472 33.4072 12.9218 40.43 13.0393 40.5561C13.1223 40.6452 13.3671 40.5473 14.0757 40.1418C14.586 39.8498 15.0991 39.6106 15.2161 39.6102C15.3331 39.6097 18.0545 40.3134 21.2636 41.1739C24.4728 42.0342 27.4028 42.7885 27.7747 42.85C28.6167 42.989 29.6884 42.8438 30.4739 42.4842C30.7704 42.3484 34.6986 39.967 39.2032 37.1921C48.0965 31.7136 47.6666 32.0203 47.8226 31.045C47.9486 30.257 47.489 29.3765 46.8019 29.0894C46.049 28.7749 44.5103 29.0227 43.2431 29.6626C43.0189 29.7758 40.6862 31.1213 38.0593 32.6525C33.3283 35.4101 32.5923 35.7967 31.6897 35.9991C30.9686 36.1607 29.4682 36.1187 28.2847 35.9038C26.9829 35.6674 22.2213 34.3777 21.9082 34.1767C21.5871 33.9705 21.4617 33.5841 21.6042 33.2401C21.8573 32.6293 22.1083 32.6351 24.5166 33.3075C27.8991 34.2517 28.4971 34.3742 29.084 34.2428C29.9773 34.0429 30.5189 33.1477 30.281 32.2643C30.1374 31.7309 29.5709 31.1613 29.0624 31.039C26.02 30.3072 25.2418 30.0699 21.0093 28.584C19.7403 28.1385 19.5122 28.0877 18.812 28.0952C18.3824 28.0998 17.824 28.1604 17.5712 28.23ZM4.02259 31.8849C3.28704 32.3117 2.66946 32.7369 2.61819 32.8519C2.54153 33.0237 3.13206 34.1269 6.24544 39.628C8.54271 43.687 10.0392 46.2323 10.1602 46.2863C10.3142 46.3549 10.6128 46.2323 11.5567 45.7124C13.0631 44.8826 13.2945 44.7196 13.2945 44.4883C13.2945 44.3092 6.18558 31.6325 5.88978 31.2842C5.80999 31.1903 5.65257 31.1156 5.54007 31.1182C5.42757 31.1209 4.74466 31.466 4.02259 31.8849ZM4.55638 33.0909C4.4055 33.2219 4.2803 33.4565 4.24593 33.6723C4.19622 33.9848 4.22884 34.0744 4.48587 34.3315C4.97894 34.8246 5.66946 34.71 5.92747 34.0923C6.28646 33.2334 5.25735 32.4818 4.55638 33.0909Z" fill="#023047"/>
</svg>
