<svg width="50" height="50" viewBox="0 0 50 50" fill="none" xmlns="http://www.w3.org/2000/svg">
<path d="M26.1962 37.38H23.9773C23.4399 37.38 23.0042 36.9442 23.0042 36.4068C23.0042 35.8693 23.4399 35.4336 23.9773 35.4336H26.1962C26.7337 35.4336 27.1694 35.8693 27.1694 36.4068C27.1694 36.9443 26.7337 37.38 26.1962 37.38Z" fill="#023047"/>
<path d="M38.8669 41.5208C38.46 41.5208 38.0879 41.2589 37.9506 40.8759C37.8153 40.4984 37.9317 40.0657 38.2374 39.8063C38.5561 39.5359 39.0252 39.5011 39.3804 39.7217C39.7203 39.9327 39.8997 40.3461 39.8206 40.7383C39.7298 41.1881 39.3262 41.5208 38.8669 41.5208Z" fill="#023047"/>
<path d="M42.5074 10.9307H27.7637C27.2263 10.9307 26.7905 10.495 26.7905 9.95756C26.7905 9.42017 27.2263 8.98438 27.7637 8.98438H42.5074C43.0448 8.98438 43.4806 9.42017 43.4806 9.95756C43.4806 10.495 43.0448 10.9307 42.5074 10.9307Z" fill="#023047"/>
<path d="M38.6634 15.3096H27.7637C27.2263 15.3096 26.7905 14.874 26.7905 14.3365C26.7905 13.7991 27.2263 13.3633 27.7637 13.3633H38.6634C39.2008 13.3633 39.6366 13.7991 39.6366 14.3365C39.6366 14.874 39.2008 15.3096 38.6634 15.3096Z" fill="#023047"/>
<path d="M29.9706 22.2308C29.0632 21.7716 28.0312 21.6933 27.0647 22.0102C26.3474 22.2454 25.747 22.6747 25.3026 23.2207L24.0553 22.6661C24.3014 21.7804 24.2979 20.8155 23.9907 19.8784C23.2655 17.6673 21.085 16.3325 18.8582 16.5879L18.5657 15.696C19.0888 15.35 19.5156 14.8727 19.8065 14.2979C20.2479 13.4256 20.3234 12.4337 20.0187 11.5048C19.7141 10.5759 19.0659 9.82116 18.1936 9.37973C17.3214 8.93819 16.3295 8.86277 15.4005 9.16757C14.4716 9.47218 13.7169 10.1203 13.2755 10.9926C12.834 11.8648 12.7586 12.8567 13.0632 13.7857C13.5684 15.326 15.0042 16.3055 16.5436 16.3055C16.6009 16.3055 16.6584 16.3041 16.7159 16.3014L17.0088 17.1945C15.2574 18.1966 14.2993 20.2147 14.6547 22.2206L12.5057 22.9255C12.2093 22.5137 11.8166 22.1763 11.351 21.9407C10.5863 21.5535 9.71644 21.4875 8.90237 21.7547C8.08801 22.0218 7.42634 22.59 7.0394 23.3546C6.65247 24.1193 6.58648 24.9889 6.85352 25.8033C7.12057 26.6176 7.68881 27.2793 8.45344 27.6663C8.90938 27.897 9.40239 28.0136 9.89901 28.0136C10.2353 28.0136 10.5733 27.96 10.9022 27.8522C12.261 27.4066 13.122 26.1345 13.1109 24.7754L15.3745 24.033C16.2671 25.3898 17.7953 26.2072 19.4098 26.2072C19.9069 26.2072 20.4124 26.1297 20.9098 25.9665C21.8322 25.664 22.6021 25.1082 23.1676 24.4015L24.4975 24.993C24.3965 25.5839 24.4338 26.2069 24.6332 26.8151C25.1587 28.4176 26.6528 29.4367 28.2542 29.4367C28.6465 29.4366 29.0454 29.3754 29.438 29.2467C30.4045 28.9297 31.1896 28.2554 31.649 27.3478C32.1082 26.4403 32.1866 25.4083 31.8697 24.4419C31.5525 23.4753 30.8782 22.6901 29.9706 22.2308ZM11.0282 25.3732C10.876 25.674 10.6158 25.8976 10.2954 26.0027C9.97501 26.1075 9.63274 26.0816 9.33222 25.9295C9.03132 25.7773 8.80787 25.5171 8.70277 25.1967C8.59776 24.8763 8.62365 24.5342 8.77595 24.2334C8.92806 23.9325 9.18839 23.7091 9.50876 23.604C9.6381 23.5615 9.77103 23.5405 9.90339 23.5405C10.0987 23.5405 10.2927 23.5865 10.472 23.6772C10.7728 23.8294 10.9964 24.0896 11.1015 24.41C11.2064 24.7303 11.1804 25.0724 11.0282 25.3732ZM14.9126 13.1791C14.77 12.7442 14.8052 12.2798 15.0119 11.8715C15.2185 11.4631 15.5719 11.1596 16.0069 11.017C16.1827 10.9594 16.363 10.9308 16.5427 10.9308C16.8078 10.9308 17.0713 10.9932 17.3147 11.1163C17.723 11.323 18.0265 11.6762 18.1691 12.1113C18.3118 12.5462 18.2766 13.0106 18.0699 13.419C17.8632 13.8274 17.5099 14.1308 17.0749 14.2735C16.6398 14.4161 16.1753 14.3809 15.7671 14.1741C15.3587 13.9673 15.0552 13.614 14.9126 13.1791ZM20.3031 24.1168C18.7945 24.6114 17.1658 23.7868 16.6712 22.2788C16.1766 20.7707 17.0012 19.1414 18.5092 18.6469C18.8062 18.5496 19.1076 18.5032 19.4041 18.5032C20.6146 18.5032 21.744 19.2736 22.1413 20.4848C22.6356 21.993 21.8112 23.6223 20.3031 24.1168ZM29.9121 26.4688C29.6875 26.9125 29.3037 27.2421 28.8312 27.3971C27.856 27.7166 26.8021 27.1836 26.4823 26.2083C26.3274 25.7359 26.3658 25.2314 26.5903 24.7878C26.8148 24.3441 27.1986 24.0145 27.6711 23.8595C27.8618 23.7969 28.0579 23.7659 28.2531 23.7659C28.541 23.7659 28.8271 23.8335 29.0916 23.9674C29.5352 24.1919 29.8648 24.5757 30.0198 25.0481C30.1749 25.5207 30.1367 26.0253 29.9121 26.4688Z" fill="#023047"/>
<path d="M45.0728 2.77734H5.10042C2.38349 2.77734 0.173096 4.98881 0.173096 7.7071V36.5914C0.173096 39.3097 2.38349 41.5211 5.10042 41.5211H17.9337V45.336H15.3066C14.7692 45.336 14.3334 45.7718 14.3334 46.3092C14.3334 46.8466 14.7692 47.2824 15.3066 47.2824H34.8666C35.4041 47.2824 35.8398 46.8466 35.8398 46.3092C35.8398 45.7718 35.4041 45.336 34.8666 45.336H32.2395V41.5211H34.4494C34.9868 41.5211 35.4226 41.0853 35.4226 40.5479C35.4226 40.0105 34.9868 39.5747 34.4494 39.5747H5.10042C3.45672 39.5747 2.11946 38.2364 2.11946 36.5914V33.7266H48.0537V36.5914C48.0537 38.2364 46.7165 39.5747 45.0728 39.5747H43.2482C42.7108 39.5747 42.275 40.0105 42.275 40.5479C42.275 41.0853 42.7108 41.5211 43.2482 41.5211H45.0728C47.7897 41.5211 50.0001 39.3096 50.0001 36.5914V7.7071C50.0001 4.98881 47.7897 2.77734 45.0728 2.77734ZM30.2931 41.5211V45.336H19.8801V41.5211H30.2931ZM2.11946 31.7803V7.7071C2.11946 6.06203 3.45672 4.72371 5.10042 4.72371H45.0728C46.7165 4.72371 48.0537 6.06203 48.0537 7.7071V31.7803H2.11946Z" fill="#023047"/>
</svg>
