<svg width="29" height="40" viewBox="0 0 29 40" fill="none" xmlns="http://www.w3.org/2000/svg">
<path d="M13.0874 39.4781C13.3048 39.8041 13.6707 40 14.0625 40C14.4543 40 14.8202 39.8042 15.0376 39.4781C17.8109 35.3182 21.8959 30.1806 24.7424 24.9555C27.0185 20.7777 28.125 17.2145 28.125 14.0625C28.125 6.30844 21.8166 0 14.0625 0C6.30844 0 0 6.30844 0 14.0625C0 17.2145 1.10648 20.7777 3.38258 24.9555C6.22703 30.1766 10.3198 35.3268 13.0874 39.4781ZM14.0625 2.34375C20.5242 2.34375 25.7812 7.60078 25.7812 14.0625C25.7812 16.8128 24.7682 20.0092 22.6843 23.8343C20.2306 28.3381 16.7292 32.9068 14.0625 36.7476C11.3962 32.9073 7.89453 28.3384 5.4407 23.8343C3.3568 20.0092 2.34375 16.8128 2.34375 14.0625C2.34375 7.60078 7.60078 2.34375 14.0625 2.34375Z" fill="#023047"/>
<path d="M14.0625 21.0937C17.9395 21.0937 21.0937 17.9395 21.0937 14.0625C21.0937 10.1855 17.9395 7.03125 14.0625 7.03125C10.1855 7.03125 7.03125 10.1855 7.03125 14.0625C7.03125 17.9395 10.1855 21.0937 14.0625 21.0937ZM14.0625 9.375C16.6472 9.375 18.75 11.4778 18.75 14.0625C18.75 16.6472 16.6472 18.75 14.0625 18.75C11.4778 18.75 9.375 16.6472 9.375 14.0625C9.375 11.4778 11.4778 9.375 14.0625 9.375Z" fill="#023047"/>
</svg>
