<svg width="50" height="50" viewBox="0 0 50 50" fill="none" xmlns="http://www.w3.org/2000/svg">
<path d="M18.6747 27.7097C14.6912 27.7097 11.4502 24.4688 11.4502 20.4852C11.4502 16.5017 14.6912 13.2607 18.6747 13.2607C22.6582 13.2607 25.8992 16.5017 25.8992 20.4852C25.8992 24.4688 22.6582 27.7097 18.6747 27.7097ZM18.6747 15.9699C16.1851 15.9699 14.1594 17.9956 14.1594 20.4852C14.1594 22.9748 16.1851 25.0005 18.6747 25.0005C21.1643 25.0005 23.19 22.9748 23.19 20.4852C23.19 17.9956 21.1643 15.9699 18.6747 15.9699Z" fill="#023047"/>
<path d="M34.9296 25.9031C31.9417 25.9031 29.5112 23.4726 29.5112 20.4848C29.5112 17.4969 31.9417 15.0664 34.9296 15.0664C37.9175 15.0664 40.348 17.4969 40.348 20.4848C40.348 23.4726 37.9175 25.9031 34.9296 25.9031ZM34.9296 17.7756C33.4357 17.7756 32.2204 18.9908 32.2204 20.4848C32.2204 21.9787 33.4357 23.194 34.9296 23.194C36.4235 23.194 37.6388 21.9787 37.6388 20.4848C37.6388 18.9908 36.4235 17.7756 34.9296 17.7756Z" fill="#023047"/>
<path d="M3.8956 31.7439C3.17465 31.7439 2.57496 31.1759 2.54322 30.4484C2.3686 26.4657 2.27115 14.882 3.49919 12.7941C4.90626 10.402 22.1839 0.605469 24.9958 0.605469C27.8073 0.605469 45.0854 10.402 46.492 12.7941C47.5803 14.6426 47.5794 23.6529 47.553 26.3705C47.5459 27.1183 46.97 27.703 46.1851 27.7119C45.4373 27.7048 44.8367 27.0919 44.8438 26.344C44.9064 19.8683 44.5289 14.9689 44.1436 14.1434C42.8428 12.3492 27.2332 3.50558 24.9729 3.31377C22.7585 3.50602 7.14804 12.3492 5.8199 14.1902C5.32604 15.2613 4.94241 23.3121 5.24975 30.3302C5.24975 31.2602 4.55664 31.7439 3.8956 31.7439Z" fill="#023047"/>
<path d="M24.9962 49.395C22.3765 49.395 9.22484 41.8725 5.281 38.9111C4.82815 38.5715 4.63457 37.9851 4.79596 37.4418C5.88378 33.782 9.18824 31.3232 13.0192 31.3232H24.759C28.5511 31.3232 31.9747 33.8111 33.4818 37.6614C33.7552 38.3581 33.4113 39.1439 32.7146 39.4164C32.0205 39.6871 31.2321 39.3467 30.9596 38.6491C29.8616 35.8447 27.4276 34.0324 24.759 34.0324H13.0192C10.7161 34.0324 8.69173 35.3288 7.72958 37.3395C12.7551 40.8609 23.4115 46.55 25.0191 46.6867C26.7142 46.5395 39.1039 39.8203 43.2382 36.6305V35.4214C43.2382 33.1805 41.4154 31.3576 39.1745 31.3576H32.853C32.1052 31.3576 31.4984 30.7509 31.4984 30.003C31.4984 29.2552 32.1052 28.6484 32.853 28.6484H39.1745C42.9093 28.6484 45.9474 31.6866 45.9474 35.4214V37.2787C45.9474 37.6773 45.7719 38.0565 45.4668 38.3131C42.0247 41.2216 27.7072 49.395 24.9962 49.395Z" fill="#023047"/>
</svg>
