<svg width="27" height="27" viewBox="0 0 27 27" fill="none" xmlns="http://www.w3.org/2000/svg">
<path d="M26.1752 25.1285L19.4624 18.523C21.2203 16.6131 22.3004 14.0873 22.3004 11.3079C22.2995 5.3622 17.4022 0.542969 11.3607 0.542969C5.31915 0.542969 0.421875 5.3622 0.421875 11.3079C0.421875 17.2535 5.31915 22.0728 11.3607 22.0728C13.9711 22.0728 16.3652 21.1699 18.2458 19.6688L24.9847 26.3004C25.313 26.6238 25.8461 26.6238 26.1744 26.3004C26.5035 25.9769 26.5035 25.4519 26.1752 25.1285ZM11.3607 20.4165C6.24889 20.4165 2.10497 16.3384 2.10497 11.3079C2.10497 6.27728 6.24889 2.19921 11.3607 2.19921C16.4725 2.19921 20.6164 6.27728 20.6164 11.3079C20.6164 16.3384 16.4725 20.4165 11.3607 20.4165Z" fill="#023047"/>
</svg>
