<svg width="37" height="31" viewBox="0 0 37 31" fill="none" xmlns="http://www.w3.org/2000/svg">
<path d="M21.9245 30.9062H34.931C35.9555 30.9062 36.7891 30.0727 36.7891 29.0482V16.9707C36.7891 15.9462 35.9555 15.1126 34.931 15.1126H27.2325C28.1032 10.8397 31.9203 7.68034 36.3245 7.68034C36.5811 7.68034 36.7891 7.47242 36.7891 7.21582V1.17708C36.7891 0.920482 36.5811 0.712563 36.3245 0.712563C27.3598 0.712563 20.0664 8.00596 20.0664 16.9707V29.0482C20.0664 30.0727 20.8999 30.9062 21.9245 30.9062ZM20.9954 16.9707C20.9954 8.67348 27.6214 1.89486 35.86 1.64848V6.7618C33.5542 6.86669 31.3497 7.74964 29.6083 9.27503C27.7695 10.8855 26.5666 13.1002 26.2209 15.5112C26.2018 15.6446 26.2414 15.7797 26.3297 15.8814C26.418 15.9832 26.5461 16.0417 26.6807 16.0417H34.931C35.4433 16.0417 35.86 16.4584 35.86 16.9707V29.0482C35.86 29.5604 35.4433 29.9772 34.931 29.9772H21.9245C21.4122 29.9772 20.9954 29.5604 20.9954 29.0482V16.9707ZM2.41471 30.9062L15.4212 30.9062C16.4458 30.9062 17.2793 30.0727 17.2793 29.0482V16.9707C17.2793 15.9462 16.4458 15.1126 15.4212 15.1126H7.72239C8.59309 10.8397 12.4102 7.68034 16.8148 7.68034C17.0714 7.68034 17.2793 7.47242 17.2793 7.21582V1.17708C17.2793 0.920482 17.0714 0.712563 16.8148 0.712563C7.85004 0.712563 0.556641 8.00596 0.556641 16.9707V29.0482C0.556641 30.0727 1.39008 30.9062 2.41471 30.9062ZM1.48568 16.9707C1.48568 8.67348 8.11166 1.89486 16.3503 1.64848V6.7618C14.0444 6.86659 11.8399 7.74964 10.0983 9.27503C8.25947 10.8855 7.05646 13.1002 6.71076 15.5112C6.69163 15.6446 6.73139 15.7797 6.81955 15.8814C6.90781 15.9832 7.03584 16.0417 7.17055 16.0417H15.4212C15.9335 16.0417 16.3503 16.4584 16.3503 16.9707V29.0482C16.3503 29.5604 15.9335 29.9772 15.4212 29.9772L2.41471 29.9772C1.90244 29.9772 1.48568 29.5604 1.48568 29.0482V16.9707Z" fill="#023047"/>
</svg>
