<svg width="50" height="50" viewBox="0 0 50 50" fill="none" xmlns="http://www.w3.org/2000/svg">
<g clip-path="url(#clip0_429_1190)">
<path d="M28.6626 45.5658L19.7381 38.5093C18.7086 37.6963 18.1102 36.4809 18.0964 35.1752C18.0353 29.3465 17.1653 18.6753 15.8148 10.9066C15.7476 10.5207 15.3804 10.2614 14.9941 10.3291C14.6079 10.3962 14.3494 10.7636 14.4166 11.1497C15.7547 18.8476 16.6169 29.418 16.6773 35.1903C16.6957 36.9274 17.4908 38.5432 18.8582 39.6231L27.7835 46.6801C27.9842 46.8383 28.0686 47.1001 27.9984 47.3474C27.9216 47.6176 27.6726 47.8064 27.3928 47.8064C27.3198 47.8064 27.2487 47.7941 27.1799 47.7695C25.2154 47.0694 21.5541 45.7896 19.105 45.084C17.5494 44.6351 16.2505 44.5141 14.9945 44.3968C14.1363 44.3168 13.3257 44.2412 12.464 44.0646C11.8123 43.9311 11.4975 43.3555 11.3481 42.8961C10.9956 41.8124 11.1728 40.0361 12.3949 38.6972C12.4887 38.5944 12.5502 38.4662 12.5718 38.3286C12.7919 36.9226 11.4836 29.3851 9.6052 26.0202C6.46267 20.3882 5.77424 16.8114 7.14977 13.2634C7.26361 12.9696 7.1703 12.6362 6.92048 12.4442C6.67057 12.2524 6.32442 12.2481 6.06986 12.4336C5.35759 12.9531 3.01629 14.6945 1.22771 16.028C0.913444 16.2623 0.848623 16.7069 1.08292 17.0211C1.31723 17.3353 1.7616 17.4004 2.07596 17.1659C3.08489 16.4138 4.26964 15.5317 5.23704 14.8138C4.52363 18.6714 5.97315 22.424 8.36575 26.712C10.1141 29.8437 11.1968 36.5084 11.1811 37.9297C9.90782 39.4524 9.43184 41.593 9.99838 43.3351C10.3689 44.4741 11.1636 45.2468 12.179 45.4549C13.1167 45.647 14.0043 45.7298 14.8627 45.8098C16.0533 45.9208 17.2843 46.0357 18.7117 46.4475C21.1244 47.1426 24.7544 48.4116 26.7023 49.1057C26.9239 49.1851 27.1561 49.2255 27.3927 49.2255C28.304 49.2255 29.1145 48.6124 29.3636 47.735C29.5916 46.9322 29.316 46.0806 28.6626 45.5658Z" fill="#023047"/>
<path d="M15.2685 8.0637C14.2767 3.42547 13.449 2.31443 12.9124 1.88226C10.6062 0.0252646 6.6585 0.727127 1.44039 2.352C1.06622 2.46868 0.857378 2.8664 0.973961 3.24066C1.09045 3.61482 1.48751 3.82338 1.86253 3.70708C6.00225 2.41786 10.0985 1.43845 12.0222 2.98743C12.2233 3.14953 12.9516 4.01576 13.8808 8.36036C13.952 8.69365 14.2464 8.92179 14.5739 8.92179C14.6231 8.92179 14.6731 8.91659 14.7231 8.9059C15.1062 8.82404 15.3504 8.44695 15.2685 8.0637Z" fill="#023047"/>
<path d="M39.6946 19.5319L38.3303 15.7834C38.1963 15.4151 37.789 15.2255 37.4207 15.3594C37.0524 15.4934 36.8626 15.9006 36.9966 16.2689L38.3609 20.0175C38.4659 20.3055 38.738 20.4844 39.0279 20.4844C39.1085 20.4844 39.1905 20.4706 39.2705 20.4415C39.6388 20.3074 39.8287 19.9002 39.6946 19.5319Z" fill="#023047"/>
<path d="M35.7293 19.5319L34.365 15.7834C34.2309 15.4151 33.8237 15.2255 33.4554 15.3594C33.0871 15.4934 32.8973 15.9006 33.0313 16.2689L34.3956 20.0174C34.5005 20.3055 34.7726 20.4844 35.0626 20.4844C35.1432 20.4844 35.2251 20.4706 35.3052 20.4415C35.6735 20.3074 35.8634 19.9002 35.7293 19.5319Z" fill="#023047"/>
<path d="M48.3491 41.6259H48.0842C46.4176 41.6259 44.9387 40.5348 44.4384 38.9559C45.7909 38.3059 46.5867 36.7796 46.2313 35.2252L43.8347 24.7461C43.7359 24.3143 43.8593 23.8653 44.1647 23.5447L47.5468 19.993C48.2672 19.2364 48.3005 18.0659 47.624 17.2704C43.7445 12.7071 41.6808 11.3663 40.6328 11.0452C39.4007 10.6676 37.2166 10.6182 33.9564 10.8937C33.5658 10.9268 33.2761 11.2702 33.309 11.6606C33.3422 12.0513 33.685 12.3389 34.0759 12.3079C37.8546 11.9883 39.5011 12.1827 40.2169 12.4021C41.407 12.7668 43.7717 14.9303 46.5425 18.1897C46.7473 18.4305 46.7371 18.7849 46.5187 19.0143L43.1365 22.566C42.502 23.2322 42.2457 24.1655 42.4508 25.0625L43.6417 30.2696C42.9882 32.0664 41.9869 33.6121 40.761 34.7308L39.5578 29.4704C39.5578 29.47 39.5578 29.4695 39.5577 29.469L38.9764 26.9275L38.5945 25.2582C38.3884 24.357 37.5987 23.7274 36.674 23.7274H26.0035C25.6415 23.7274 25.3472 23.433 25.3472 23.0711V21.4668V14.9875V14.013C25.3472 13.6902 25.578 13.4179 25.8959 13.3656C27.1752 13.1551 29.1496 12.8509 31.2911 12.5953C31.6802 12.5488 31.958 12.1957 31.9116 11.8066C31.8652 11.4174 31.5117 11.1395 31.1229 11.186C28.9557 11.4445 26.9589 11.7523 25.6655 11.9651C24.6585 12.1307 23.9278 12.992 23.9278 14.0129V14.2778H22.244C21.5327 14.2778 20.9541 14.8564 20.9541 15.5677V20.8866C20.9541 21.5979 21.5327 22.1765 22.244 22.1765H23.9278V23.0711C23.9278 24.2156 24.859 25.1467 26.0034 25.1467H36.6742C36.9327 25.1467 37.1534 25.3226 37.2111 25.5745L37.3029 25.9762H36.9867C35.7844 25.9762 34.8064 26.9543 34.8064 28.1564C34.8064 29.3586 35.7845 30.3367 36.9867 30.3367H38.3001C39.829 37.0216 39.78 36.9413 39.9971 37.3963C40.5454 38.5504 41.7407 39.312 43.0558 39.2854C43.7106 41.5034 45.7645 43.045 48.084 43.045H48.349C48.741 43.045 49.0586 42.7273 49.0586 42.3353C49.0588 41.9435 48.7411 41.6259 48.3491 41.6259ZM23.928 20.7573H22.3735V15.6972H23.928V20.7573ZM36.9869 28.9176C36.5673 28.9176 36.2259 28.5762 36.2259 28.1566C36.2259 27.7371 36.5673 27.3956 36.9869 27.3956H37.6276L37.6374 27.4382L37.9757 28.9176H36.9869ZM42.3968 37.7681C41.7873 37.5649 41.2938 37.0602 41.1405 36.3895L41.1171 36.2873C42.3246 35.3481 43.3683 34.0734 44.1687 32.5732L44.8477 35.5417C44.8619 35.6035 44.8729 35.6657 44.8808 35.7279C45.0581 37.1133 43.7202 38.2091 42.3968 37.7681Z" fill="#023047"/>
</g>
<defs>
<clipPath id="clip0_429_1190">
<rect width="50" height="50" fill="white"/>
</clipPath>
</defs>
</svg>
