<svg width="47" height="45" viewBox="0 0 47 45" fill="none" xmlns="http://www.w3.org/2000/svg">
<path d="M44.0625 24.9687H38.9219V23.5C38.9219 22.9157 38.6898 22.3553 38.2766 21.9421C37.8634 21.529 37.3031 21.2969 36.7188 21.2969H32.3125C31.7282 21.2969 31.1678 21.529 30.7547 21.9421C30.3415 22.3553 30.1094 22.9157 30.1094 23.5V24.9687H24.9688C24.4791 24.9698 23.9975 25.0932 23.5677 25.3278C23.138 25.5624 22.7736 25.9007 22.5079 26.3119C22.2094 25.9776 21.8377 25.7167 21.4217 25.5496L20.5625 25.2059V24.559C21.8422 23.7448 22.9412 22.6768 23.7917 21.421C24.6422 20.1652 25.226 18.7482 25.5071 17.2578H26.0703C26.752 17.2578 27.4058 16.987 27.8878 16.505C28.3698 16.0229 28.6406 15.3692 28.6406 14.6875V3.67187C28.6395 2.69839 28.2522 1.76511 27.5639 1.07675C26.8755 0.388397 25.9423 0.00116608 24.9688 0H14.6875C12.1564 0.00291545 9.72984 1.00968 7.94009 2.79943C6.15034 4.58919 5.14357 7.01578 5.14066 9.54687V14.6875C5.14066 15.3692 5.41146 16.0229 5.89348 16.505C6.37551 16.987 7.02928 17.2578 7.71097 17.2578H8.27423C8.55529 18.7482 9.1391 20.1652 9.98958 21.421C10.8401 22.6768 11.9391 23.7448 13.2188 24.559V25.2059L12.3596 25.5496C11.7024 25.8147 11.1648 26.311 10.8482 26.9449L7.97755 27.4237C5.74571 27.7894 3.71705 28.9379 2.25519 30.6636C0.793329 32.3892 -0.00615486 34.579 3.56827e-05 36.8406V43.3281C3.56827e-05 43.5229 0.0774071 43.7097 0.215129 43.8474C0.352851 43.9851 0.539642 44.0625 0.73441 44.0625H44.0625C44.8416 44.0625 45.5887 43.753 46.1396 43.2021C46.6905 42.6512 47 41.904 47 41.125V27.9062C47 27.1272 46.6905 26.38 46.1396 25.8291C45.5887 25.2782 44.8416 24.9687 44.0625 24.9687ZM31.5781 23.5C31.5781 23.3052 31.6555 23.1184 31.7932 22.9807C31.931 22.843 32.1177 22.7656 32.3125 22.7656H36.7188C36.9135 22.7656 37.1003 22.843 37.238 22.9807C37.3758 23.1184 37.4531 23.3052 37.4531 23.5V24.9687H31.5781V23.5ZM26.4375 35.25H29.375C29.5698 35.25 29.7566 35.1726 29.8943 35.0349C30.032 34.8972 30.1094 34.7104 30.1094 34.5156V33.7812H38.9219V34.5156C38.9219 34.7104 38.9993 34.8972 39.137 35.0349C39.2747 35.1726 39.4615 35.25 39.6563 35.25H42.5938C42.7885 35.25 42.9753 35.1726 43.113 35.0349C43.2508 34.8972 43.3281 34.7104 43.3281 34.5156V33.7812C44.1253 33.7785 44.8994 33.5138 45.5313 33.0278V38.9218H44.7969C44.0178 38.9218 43.2706 39.2313 42.7198 39.7822C42.1689 40.3331 41.8594 41.0803 41.8594 41.8593V42.5937H27.1719V41.8593C27.1719 41.0803 26.8624 40.3331 26.3115 39.7822C25.7606 39.2313 25.0135 38.9218 24.2344 38.9218H23.5V33.0278C24.1319 33.5138 24.906 33.7785 25.7031 33.7812V34.5156C25.7031 34.7104 25.7805 34.8972 25.9182 35.0349C26.056 35.1726 26.2427 35.25 26.4375 35.25ZM27.1719 33.7812V32.3125H28.6406V33.7812H27.1719ZM40.3906 33.7812V32.3125H41.8594V33.7812H40.3906ZM14.6875 25.3021C16.1076 25.8367 17.6737 25.8367 19.0938 25.3021V25.7031C19.096 26.4462 18.891 27.1752 18.5018 27.8083C18.1126 28.4413 17.5547 28.9533 16.8906 29.2869C16.2266 28.9533 15.6687 28.4413 15.2795 27.8083C14.8903 27.1752 14.6853 26.4462 14.6875 25.7031V25.3021ZM16.8906 30.9656L18.2742 31.7984L17.8821 32.6797H15.8992L15.5071 31.7984L16.8906 30.9656ZM16.0557 34.1484H17.7256L18.9741 42.5937H14.8043L16.0557 34.1484ZM19.1173 33.5176L19.5439 32.5578L20.1843 32.9418C20.2681 32.9922 20.3612 33.0253 20.4579 33.0392C20.5547 33.0531 20.6533 33.0475 20.7479 33.0228C20.8425 32.9981 20.9312 32.9548 21.0088 32.8954C21.0865 32.8359 21.1514 32.7616 21.2 32.6767L22.0313 31.2219V41.125C22.0343 41.6422 22.1753 42.1492 22.4396 42.5937H20.4619L19.1173 33.5176ZM21.6068 29.0056L20.2974 31.2968L18.3344 30.1218C19.4453 29.3079 20.2063 28.1031 20.4641 26.7503L20.8768 26.9156C21.0718 26.9935 21.2478 27.1124 21.393 27.2642C21.5381 27.416 21.649 27.5972 21.7182 27.7955C21.7874 27.9938 21.8133 28.2046 21.794 28.4137C21.7748 28.6228 21.711 28.8254 21.6068 29.0078V29.0056ZM26.0703 15.7868H25.6833C25.6936 15.593 25.7031 15.3984 25.7031 15.1993V13.5859H26.0703C26.3625 13.5859 26.6427 13.702 26.8493 13.9086C27.0558 14.1152 27.1719 14.3953 27.1719 14.6875C27.1719 14.9796 27.0558 15.2598 26.8493 15.4664C26.6427 15.673 26.3625 15.7891 26.0703 15.7891V15.7868ZM27.1719 12.3749C26.8287 12.2074 26.4522 12.1193 26.0703 12.1172H25.7031V10.7696C26.2575 10.4124 26.753 9.97113 27.1719 9.46168V12.3749ZM7.71097 15.7891C7.41882 15.7891 7.13863 15.673 6.93205 15.4664C6.72546 15.2598 6.60941 14.9796 6.60941 14.6875C6.60941 14.3953 6.72546 14.1152 6.93205 13.9086C7.13863 13.702 7.41882 13.5859 7.71097 13.5859H8.07815V15.2016C8.07815 15.3976 8.0877 15.5922 8.09798 15.7891H7.71097ZM8.11855 12.1172H7.71097C7.32909 12.1193 6.95259 12.2074 6.60941 12.3749V9.54687C6.61193 7.40519 7.46383 5.35196 8.97822 3.83757C10.4926 2.32317 12.5458 1.47128 14.6875 1.46875H24.9688C25.5531 1.46875 26.1134 1.70086 26.5266 2.11403C26.9398 2.52719 27.1719 3.08757 27.1719 3.67187V5.43437C27.1719 6.71984 26.6612 7.95266 25.7523 8.86163C24.8433 9.77059 23.6105 10.2812 22.325 10.2812C20.9674 10.2844 19.6266 9.98046 18.4029 9.3923C17.1793 8.80413 16.1045 7.94692 15.2589 6.88476C15.1464 6.74419 14.9861 6.64985 14.8087 6.61965C14.6312 6.58946 14.4488 6.62553 14.2961 6.721L9.80173 9.53071C9.34882 9.8122 8.9633 10.1898 8.67244 10.6367C8.38159 11.0837 8.19249 11.5891 8.11855 12.1172ZM9.5469 15.2016V12.6437C9.54572 12.2698 9.64025 11.9019 9.8215 11.5748C10.0028 11.2478 10.2647 10.9726 10.5824 10.7755L14.5406 8.3021C15.524 9.39041 16.7251 10.2598 18.0662 10.8538C19.4073 11.4478 20.8583 11.7531 22.325 11.75C22.9728 11.7505 23.6167 11.6514 24.2344 11.4562V15.2016C24.2342 16.917 23.7753 18.6012 22.9053 20.0797C22.0353 21.5581 20.7857 22.777 19.2862 23.6101C18.5511 24.0106 17.7274 24.2204 16.8903 24.2204C16.0532 24.2204 15.2295 24.0106 14.4944 23.6101C12.9953 22.7766 11.7461 21.5575 10.8763 20.0792C10.0064 18.6008 9.54748 16.9168 9.5469 15.2016ZM12.9045 26.9104L13.3172 26.7452C13.5749 28.098 14.336 29.3028 15.4469 30.1167L13.4839 31.2917L12.1745 29.0078C12.0699 28.8253 12.0058 28.6226 11.9864 28.4132C11.9669 28.2038 11.9927 27.9927 12.0619 27.7941C12.1311 27.5956 12.2421 27.4142 12.3875 27.2622C12.5329 27.1103 12.7092 26.9913 12.9045 26.9134V26.9104ZM1.46878 36.8406C1.46365 34.9269 2.14018 33.0739 3.37714 31.6137C4.61411 30.1535 6.33065 29.1815 8.21916 28.8719L10.5229 28.4879C10.5526 28.9272 10.6817 29.3541 10.9004 29.7363L12.5813 32.6797C12.6299 32.7645 12.6948 32.8389 12.7725 32.8983C12.8501 32.9577 12.9388 33.0011 13.0334 33.0258C13.128 33.0505 13.2266 33.056 13.3234 33.0421C13.4201 33.0282 13.5132 32.9951 13.597 32.9448L14.2374 32.5607L14.664 33.5205L13.3194 42.5937H6.24222V37.4531C6.24222 37.2583 6.16485 37.0715 6.02713 36.9338C5.8894 36.7961 5.70261 36.7187 5.50784 36.7187C5.31308 36.7187 5.12629 36.7961 4.98856 36.9338C4.85084 37.0715 4.77347 37.2583 4.77347 37.4531V42.5937H1.46878V36.8406ZM24.9688 42.5937C24.5792 42.5937 24.2056 42.439 23.9302 42.1635C23.6548 41.8881 23.5 41.5145 23.5 41.125V40.3906H24.2344C24.6239 40.3906 24.9975 40.5453 25.273 40.8208C25.5484 41.0962 25.7031 41.4698 25.7031 41.8593V42.5937H24.9688ZM44.0625 42.5937H43.3281V41.8593C43.3281 41.4698 43.4829 41.0962 43.7583 40.8208C44.0338 40.5453 44.4073 40.3906 44.7969 40.3906H45.5313V41.125C45.5313 41.5145 45.3765 41.8881 45.1011 42.1635C44.8256 42.439 44.452 42.5937 44.0625 42.5937ZM43.3281 32.3125V31.5781C43.3281 31.3833 43.2508 31.1965 43.113 31.0588C42.9753 30.9211 42.7885 30.8437 42.5938 30.8437H39.6563C39.4615 30.8437 39.2747 30.9211 39.137 31.0588C38.9993 31.1965 38.9219 31.3833 38.9219 31.5781V32.3125H30.1094V31.5781C30.1094 31.3833 30.032 31.1965 29.8943 31.0588C29.7566 30.9211 29.5698 30.8437 29.375 30.8437H26.4375C26.2427 30.8437 26.056 30.9211 25.9182 31.0588C25.7805 31.1965 25.7031 31.3833 25.7031 31.5781V32.3125C25.1188 32.3125 24.5585 32.0804 24.1453 31.6672C23.7321 31.254 23.5 30.6937 23.5 30.1094V27.9062C23.5 27.5167 23.6548 27.1431 23.9302 26.8677C24.2056 26.5922 24.5792 26.4375 24.9688 26.4375H44.0625C44.452 26.4375 44.8256 26.5922 45.1011 26.8677C45.3765 27.1431 45.5313 27.5167 45.5313 27.9062V30.1094C45.5313 30.6937 45.2991 31.254 44.886 31.6672C44.4728 32.0804 43.9124 32.3125 43.3281 32.3125Z" fill="#023047"/>
<path d="M21.2969 15.4219C21.4916 15.4219 21.6784 15.3445 21.8162 15.2068C21.9539 15.0691 22.0312 14.8823 22.0312 14.6875V13.9531C22.0312 13.7584 21.9539 13.5716 21.8162 13.4338C21.6784 13.2961 21.4916 13.2188 21.2969 13.2188C21.1021 13.2188 20.9153 13.2961 20.7776 13.4338C20.6399 13.5716 20.5625 13.7584 20.5625 13.9531V14.6875C20.5625 14.8823 20.6399 15.0691 20.7776 15.2068C20.9153 15.3445 21.1021 15.4219 21.2969 15.4219Z" fill="#023047"/>
<path d="M12.4844 13.2188C12.2896 13.2188 12.1028 13.2961 11.9651 13.4338C11.8274 13.5716 11.75 13.7584 11.75 13.9531V14.6875C11.75 14.8823 11.8274 15.0691 11.9651 15.2068C12.1028 15.3445 12.2896 15.4219 12.4844 15.4219C12.6791 15.4219 12.8659 15.3445 13.0037 15.2068C13.1414 15.0691 13.2187 14.8823 13.2187 14.6875V13.9531C13.2187 13.7584 13.1414 13.5716 13.0037 13.4338C12.8659 13.2961 12.6791 13.2188 12.4844 13.2188Z" fill="#023047"/>
<path d="M16.8904 21.664C17.2595 21.6646 17.6252 21.5924 17.9663 21.4514C18.3075 21.3104 18.6174 21.1033 18.8783 20.8422C19.0121 20.7037 19.0861 20.5182 19.0845 20.3257C19.0828 20.1331 19.0056 19.9489 18.8694 19.8128C18.7332 19.6766 18.549 19.5994 18.3565 19.5977C18.1639 19.596 17.9784 19.67 17.8399 19.8038C17.5879 20.0552 17.2464 20.1964 16.8904 20.1964C16.5344 20.1964 16.1929 20.0552 15.9408 19.8038C15.8023 19.67 15.6168 19.596 15.4243 19.5977C15.2317 19.5994 15.0475 19.6766 14.9114 19.8128C14.7752 19.9489 14.698 20.1331 14.6963 20.3257C14.6946 20.5182 14.7687 20.7037 14.9024 20.8422C15.1634 21.1033 15.4733 21.3104 15.8144 21.4514C16.1556 21.5924 16.5212 21.6646 16.8904 21.664Z" fill="#023047"/>
</svg>
