<svg width="28" height="27" viewBox="0 0 28 27" fill="none" xmlns="http://www.w3.org/2000/svg">
<path d="M26.6937 19.9965H25.774C26.3533 19.4987 26.7216 18.7615 26.7216 17.94C26.7216 16.4449 25.505 15.2282 24.0099 15.2282C22.5148 15.2282 21.2981 16.4449 21.2981 17.94C21.2981 18.762 21.6665 19.4993 22.2458 19.9965H21.5766C21.499 18.2012 20.0145 16.7646 18.2008 16.7646H17.4356V9.79418C17.4356 7.90897 15.902 6.37536 14.0168 6.37536C12.9553 6.37536 12.0049 6.86201 11.3776 7.62324L6.45869 12.3591C6.07417 12.7297 5.96813 13.2822 6.14616 13.7527H4.79504C4.06172 13.7527 3.46513 14.3493 3.46513 15.0826C3.46513 15.8159 4.06172 16.4125 4.79504 16.4125H8.00626L9.60014 18.0064H1.76577C1.03244 18.0064 0.435852 18.603 0.435852 19.3363C0.435852 19.5763 0.500032 19.8017 0.612207 19.9965H0.463756C0.279031 19.9965 0.128906 20.1466 0.128906 20.3314V23.9299C0.128906 24.1146 0.279031 24.2647 0.463756 24.2647H1.75516V25.0695C1.75516 25.8826 2.41649 26.5439 3.22962 26.5439H23.9278C24.741 26.5439 25.4023 25.8826 25.4023 25.0695V24.2647H26.6937C26.8784 24.2647 27.0285 24.1146 27.0285 23.9299V20.3314C27.0285 20.1461 26.8784 19.9965 26.6937 19.9965ZM21.9678 17.9394C21.9678 16.8138 22.8836 15.8974 24.0099 15.8974C25.1355 15.8974 26.0519 16.8132 26.0519 17.9394C26.0519 19.0651 25.1361 19.9814 24.0099 19.9814C22.8836 19.9814 21.9678 19.0656 21.9678 17.9394ZM14.0168 7.0445C15.5326 7.0445 16.7659 8.27787 16.7659 9.79362V16.7641H12.1188L11.314 15.9593L14.8718 13.905C14.9488 13.8604 15.0046 13.7873 15.0281 13.7019L15.5834 11.6303C15.6314 11.4517 15.5253 11.2681 15.3467 11.2201C15.1681 11.1721 14.9845 11.2781 14.9365 11.4567L14.4175 13.3944L10.7933 15.4866C10.6493 15.5698 10.4802 15.5916 10.3178 15.548C10.1554 15.5045 10.0198 15.4012 9.93667 15.2567C9.85351 15.1127 9.83175 14.9436 9.87528 14.7812C9.91881 14.6188 10.0221 14.4832 10.166 14.4L13.2199 12.6365C13.2969 12.5919 13.3527 12.5187 13.3761 12.4334L14.1496 9.54695C14.1976 9.36836 14.0916 9.18475 13.913 9.13676C13.7344 9.08876 13.5508 9.1948 13.5028 9.37339L12.765 12.1259L11.2677 12.9903V9.79251C11.2677 8.27787 12.5011 7.0445 14.0168 7.0445ZM9.47736 14.1227L9.20558 13.8509C9.14251 13.7878 9.05769 13.7527 8.96895 13.7527H8.75074L10.598 11.9741V13.3782L9.83063 13.8213C9.6939 13.9006 9.57503 14.0032 9.47736 14.1227ZM6.90683 13.7281C6.66686 13.4792 6.67467 13.0813 6.92357 12.8413L10.6393 9.26344C10.6125 9.43645 10.598 9.61336 10.598 9.79362V11.0437L7.79363 13.7443C7.79084 13.7471 7.78749 13.7493 7.7847 13.7521H6.93362C6.92469 13.7443 6.9152 13.7365 6.90683 13.7281ZM8.14466 15.7428H4.79504C4.43117 15.7428 4.13483 15.4465 4.13483 15.0826C4.13483 14.7187 4.43117 14.4224 4.79504 14.4224H8.83055L9.19386 14.7857C9.1587 15.0647 9.21451 15.3454 9.35682 15.5921C9.52927 15.8912 9.80943 16.1055 10.1443 16.1954C10.2564 16.2255 10.3709 16.2406 10.4836 16.2406C10.5355 16.2406 10.5874 16.2373 10.6387 16.2311L11.2783 16.8707C10.8285 16.9918 10.4133 17.2139 10.0622 17.522L8.38129 15.841C8.31878 15.778 8.2334 15.7428 8.14466 15.7428ZM1.10555 19.3363C1.10555 18.9724 1.4019 18.6761 1.76577 18.6761H9.78989C9.90318 18.6761 10.0087 18.6186 10.0706 18.5237C10.5148 17.8412 11.2627 17.4338 12.0719 17.4338H18.2008C19.6456 17.4338 20.8293 18.57 20.9064 19.9959H11.573C11.3737 19.9937 11.2119 19.8302 11.2119 19.631C11.2119 19.4295 11.3754 19.266 11.5769 19.266H18.8604C19.0452 19.266 19.1953 19.1159 19.1953 18.9311C19.1953 18.7464 19.0452 18.5963 18.8604 18.5963H11.5769C11.0065 18.5963 10.5422 19.0606 10.5422 19.631C10.5422 19.7593 10.5667 19.8821 10.6103 19.9959H1.76577C1.4019 19.9965 1.10555 19.7002 1.10555 19.3363ZM24.7326 25.0695C24.7326 25.5132 24.3715 25.8742 23.9278 25.8742H3.22962C2.78594 25.8742 2.42486 25.5132 2.42486 25.0695V24.2647H24.7326V25.0695ZM26.3588 23.595H0.798607V20.6662H11.5657H11.5696H26.3588V23.595ZM13.6529 5.51089C15.0225 5.51089 16.1364 4.39695 16.1364 3.02742C16.1364 1.65788 15.0225 0.543945 13.6529 0.543945C12.2834 0.543945 11.1695 1.65788 11.1695 3.02742C11.1695 4.39695 12.2834 5.51089 13.6529 5.51089ZM13.6529 1.21365C14.653 1.21365 15.4667 2.02733 15.4667 3.02742C15.4667 4.0275 14.653 4.84119 13.6529 4.84119C12.6529 4.84119 11.8392 4.0275 11.8392 3.02742C11.8392 2.02733 12.6529 1.21365 13.6529 1.21365Z" fill="#023047"/>
</svg>
