<svg width="27" height="27" viewBox="0 0 27 27" fill="none" xmlns="http://www.w3.org/2000/svg">
<path d="M24.6794 2.1197H22.4733C22.2763 1.21364 21.4885 0.543945 20.543 0.543945C19.5975 0.543945 18.8097 1.21364 18.6127 2.1197H9.00058C8.80361 1.21364 8.01573 0.543945 7.07028 0.543945C6.12482 0.543945 5.29755 1.21364 5.13997 2.1197H2.93391C1.7521 2.1197 0.806641 3.06516 0.806641 4.24698V20.6742C0.806641 21.8561 1.7521 22.8015 2.93391 22.8015H15.8157C16.4854 24.9682 18.4945 26.5439 20.8582 26.5439C23.4188 26.5439 25.546 24.7318 26.0188 22.3288C26.4915 21.9349 26.8066 21.3046 26.8066 20.6742V4.24698C26.8066 3.06516 25.8612 2.1197 24.6794 2.1197ZM20.543 1.33182C21.2127 1.33182 21.7248 1.84395 21.7248 2.51364C21.7248 3.18334 21.2127 3.69546 20.543 3.69546C19.8733 3.69546 19.3612 3.18334 19.3612 2.51364C19.3612 1.84395 19.9127 1.33182 20.543 1.33182ZM7.07028 1.33182C7.73997 1.33182 8.2521 1.84395 8.2521 2.51364C8.2521 3.18334 7.73997 3.69546 7.07028 3.69546C6.40058 3.69546 5.88846 3.18334 5.88846 2.51364C5.88846 1.84395 6.40058 1.33182 7.07028 1.33182ZM2.93391 2.90758H5.13997C5.33694 3.81364 6.12482 4.48334 7.07028 4.48334C8.01573 4.48334 8.80361 3.81364 9.00058 2.90758H18.6521C18.8491 3.81364 19.6369 4.48334 20.5824 4.48334C21.5279 4.48334 22.3157 3.81364 22.5127 2.90758H24.6794C25.4279 2.90758 26.0188 3.49849 26.0188 4.24698V6.37425H1.59452V4.24698C1.59452 3.49849 2.18543 2.90758 2.93391 2.90758ZM2.93391 22.053C2.18543 22.053 1.59452 21.4227 1.59452 20.6742V7.20152H26.0188V20.1621C25.5066 17.7985 23.3794 16.0258 20.8582 16.0258C17.943 16.0258 15.5794 18.3894 15.5794 21.3046C15.5794 21.5803 15.6188 21.8167 15.6582 22.0924H2.93391V22.053ZM20.8582 25.7561C18.3763 25.7561 16.3672 23.747 16.3672 21.2652C16.3672 18.7833 18.3763 16.7743 20.8582 16.7743C23.34 16.7743 25.3491 18.7833 25.3491 21.2652C25.3491 23.747 23.34 25.7561 20.8582 25.7561Z" fill="#023047"/>
<path d="M10.1423 8.54102H8.01503C7.77867 8.54102 7.62109 8.69859 7.62109 8.93496V11.0622C7.62109 11.2986 7.77867 11.4562 8.01503 11.4562H10.1423C10.3787 11.4562 10.5362 11.2986 10.5362 11.0622V8.93496C10.5362 8.73799 10.3787 8.54102 10.1423 8.54102ZM9.74837 10.6683H8.40897V9.32889H9.74837V10.6683Z" fill="#023047"/>
<path d="M14.7517 8.54102H12.6244C12.388 8.54102 12.2305 8.69859 12.2305 8.93496V11.0622C12.2305 11.2986 12.388 11.4562 12.6244 11.4562H14.7517C14.988 11.4562 15.1456 11.2986 15.1456 11.0622V8.93496C15.1456 8.73799 14.988 8.54102 14.7517 8.54102ZM14.3577 10.6683H13.0183V9.32889H14.3577V10.6683Z" fill="#023047"/>
<path d="M17.2338 11.4562H19.3611C19.5974 11.4562 19.755 11.2986 19.755 11.0622V8.93496C19.755 8.69859 19.5974 8.54102 19.3611 8.54102H17.2338C16.9974 8.54102 16.8398 8.69859 16.8398 8.93496V11.0622C16.8398 11.2986 17.0368 11.4562 17.2338 11.4562ZM17.6277 9.32889H18.9671V10.6683H17.6277V9.32889Z" fill="#023047"/>
<path d="M21.8432 11.4562H23.9704C24.2068 11.4562 24.3644 11.2986 24.3644 11.0622V8.93496C24.3644 8.69859 24.2068 8.54102 23.9704 8.54102H21.8432C21.6068 8.54102 21.4492 8.69859 21.4492 8.93496V11.0622C21.4492 11.2986 21.6462 11.4562 21.8432 11.4562ZM22.2371 9.32889H23.5765V10.6683H22.2371V9.32889Z" fill="#023047"/>
<path d="M5.53488 12.7168H3.40761C3.17125 12.7168 3.01367 12.8744 3.01367 13.1107V15.238C3.01367 15.4744 3.17125 15.6319 3.40761 15.6319H5.53488C5.77125 15.6319 5.92882 15.4744 5.92882 15.238V13.1107C5.92882 12.9138 5.77125 12.7168 5.53488 12.7168ZM5.14094 14.8835H3.80155V13.5441H5.14094V14.8835Z" fill="#023047"/>
<path d="M10.1423 12.7168H8.01503C7.77867 12.7168 7.62109 12.8744 7.62109 13.1107V15.238C7.62109 15.4744 7.77867 15.6319 8.01503 15.6319H10.1423C10.3787 15.6319 10.5362 15.4744 10.5362 15.238V13.1107C10.5362 12.9138 10.3787 12.7168 10.1423 12.7168ZM9.74837 14.8835H8.40897V13.5441H9.74837V14.8835Z" fill="#023047"/>
<path d="M17.2338 15.671H19.3611C19.5974 15.671 19.755 15.5134 19.755 15.2771V13.1498C19.755 12.9134 19.5974 12.7559 19.3611 12.7559H17.2338C16.9974 12.7559 16.8398 12.9134 16.8398 13.1498V15.2771C16.8398 15.474 17.0368 15.671 17.2338 15.671ZM17.6277 13.5043H18.9671V14.8437H17.6277V13.5043Z" fill="#023047"/>
<path d="M5.53488 16.9316H3.40761C3.17125 16.9316 3.01367 17.0892 3.01367 17.3256V19.4529C3.01367 19.6892 3.17125 19.8468 3.40761 19.8468H5.53488C5.77125 19.8468 5.92882 19.6892 5.92882 19.4529V17.3256C5.92882 17.0892 5.77125 16.9316 5.53488 16.9316ZM5.14094 19.0589H3.80155V17.7195H5.14094V19.0589Z" fill="#023047"/>
<path d="M10.1423 16.9316H8.01503C7.77867 16.9316 7.62109 17.0892 7.62109 17.3256V19.4529C7.62109 19.6892 7.77867 19.8468 8.01503 19.8468H10.1423C10.3787 19.8468 10.5362 19.6892 10.5362 19.4529V17.3256C10.5362 17.0892 10.3787 16.9316 10.1423 16.9316ZM9.74837 19.0589H8.40897V17.7195H9.74837V19.0589Z" fill="#023047"/>
<path d="M14.7517 12.7168H12.6244C12.388 12.7168 12.2305 12.8744 12.2305 13.1107V15.238C12.2305 15.4744 12.388 15.6319 12.6244 15.6319H14.7517C14.988 15.6319 15.1456 15.4744 15.1456 15.238V13.1107C15.1456 12.9138 14.988 12.7168 14.7517 12.7168ZM14.3577 14.8835H13.0183V13.5441H14.3577V14.8835Z" fill="#023047"/>
<path d="M23.2228 19.0586L19.7562 22.6041L18.535 20.8707C18.4168 20.7132 18.141 20.6738 17.9834 20.7919C17.8259 20.9101 17.7865 21.1465 17.9047 21.3435L19.4016 23.4313C19.4804 23.5101 19.5592 23.5889 19.6774 23.5889C19.7956 23.5889 19.9137 23.5495 19.9925 23.4707L23.8137 19.6101C23.9713 19.4526 23.9713 19.2162 23.8137 19.0586C23.6562 18.901 23.3804 18.901 23.2228 19.0586Z" fill="#023047"/>
</svg>
