<svg width="59" height="61" viewBox="0 0 59 61" fill="none" xmlns="http://www.w3.org/2000/svg">
<path fill-rule="evenodd" clip-rule="evenodd" d="M50.1833 34.2761C48.8852 32.9777 47.0916 32.1745 45.1105 32.1745C43.1294 32.1745 41.3357 32.9776 40.0376 34.2759C38.7394 35.5743 37.9365 37.3683 37.9365 39.3498C37.9365 41.3314 38.7394 43.1252 40.0376 44.4236C41.3357 45.722 43.1294 46.5251 45.1105 46.5251C47.0916 46.5251 48.8852 45.722 50.1833 44.4236C51.4815 43.1252 52.2844 41.3313 52.2844 39.3498C52.2844 37.3684 51.4815 35.5744 50.1833 34.2761ZM45.1105 30.5773C47.5324 30.5773 49.7251 31.5593 51.3124 33.1468C52.8996 34.7344 53.8814 36.9275 53.8814 39.3498C53.8814 41.7722 52.8996 43.9653 51.3124 45.5528C49.7251 47.1404 47.5324 48.1223 45.1105 48.1223C42.6885 48.1223 40.4958 47.1404 38.9086 45.5528C37.3213 43.9653 36.3396 41.7722 36.3396 39.3498C36.3396 36.9275 37.3214 34.7342 38.9086 33.1468C40.4958 31.5593 42.6885 30.5774 45.1105 30.5774V30.5773ZM53.0828 49.7576C52.9444 49.9345 52.8099 50.1642 52.6753 50.3942C52.3197 51.0015 51.9628 51.611 51.2765 51.9476C50.5907 52.284 49.8936 52.1971 49.1925 52.1098C49.0347 52.0901 48.8764 52.0704 48.7256 52.0576L51.9048 57.6347L52.732 55.1854C52.8617 54.7975 53.2612 54.576 53.6518 54.6594L53.6521 54.6583L56.1817 55.1939L53.0827 49.7578L53.0828 49.7576ZM45.5405 38.4697C45.6585 38.7598 45.9281 38.9423 46.2206 38.9632L46.2204 38.9657L47.3474 39.0491L46.4826 39.7806C46.2332 39.9916 46.146 40.3232 46.2339 40.6173L46.4947 41.6818L45.5282 41.083C45.2584 40.9165 44.9282 40.9305 44.6785 41.0916L43.7258 41.6818L43.9968 40.576C44.0699 40.2734 43.9597 39.9695 43.7374 39.7811L43.7379 39.7805L42.8732 39.0489L44.0003 38.9655C44.3371 38.9418 44.6101 38.712 44.7052 38.4081L45.1103 37.4168L45.5404 38.4695L45.5405 38.4697ZM45.8464 35.0165L46.8248 37.4111L49.4073 37.602C49.8465 37.633 50.1774 38.0143 50.1464 38.4536C50.1299 38.688 50.0137 38.8914 49.8422 39.0257L47.8879 40.6791L48.5048 43.1965C48.6082 43.6238 48.3457 44.0539 47.9185 44.1572C47.6951 44.2112 47.4711 44.1652 47.2933 44.0481L45.1105 42.6958L42.9075 44.0606C42.5338 44.2913 42.0436 44.1754 41.8128 43.8017C41.6967 43.6135 41.6683 43.3959 41.7166 43.1966H41.7162L42.3332 40.6792L40.3553 39.0059C40.0195 38.7216 39.9776 38.2188 40.2617 37.8829C40.4062 37.7122 40.607 37.6175 40.8138 37.6029V37.6023L43.3961 37.4114L44.3745 35.0168C44.5399 34.6102 45.0035 34.4147 45.4099 34.5801C45.6165 34.6641 45.7685 34.8254 45.8465 35.0168L45.8464 35.0165ZM31.2898 13.0315C31.6105 12.7422 31.884 12.4003 31.8533 12.1758C31.846 12.1212 31.8443 12.0672 31.8481 12.0143C31.9653 7.97226 31.5227 5.14348 30.5201 3.52844C29.6466 2.12142 28.2536 1.713 26.3413 2.30331C26.219 2.34094 26.0946 2.34757 25.9764 2.32769V2.32819C21.1124 1.5091 17.7705 2.03878 15.9507 3.91735C14.2987 5.62265 13.8333 8.51769 14.5544 12.6016C15.0715 12.1651 15.5163 11.7193 15.8885 11.2638C16.4575 10.5679 16.8525 9.8542 17.0731 9.12313C17.1988 8.70109 17.6429 8.46081 18.0649 8.58657C18.0833 8.59208 18.1014 8.5982 18.1191 8.60483C19.8895 9.22602 21.6305 9.39853 23.342 9.12213C25.0686 8.84335 26.7822 8.1044 28.4827 6.90565C28.8427 6.65238 29.3399 6.73901 29.593 7.09905C29.632 7.15455 29.6629 7.21318 29.686 7.27382C30.1887 8.38205 30.5794 9.49342 30.8582 10.6083C31.0584 11.4094 31.2024 12.2172 31.2899 13.0314L31.2898 13.0315ZM31.5817 14.7971C31.511 14.8381 31.4411 14.8747 31.3732 14.9065V18.8096C31.4482 18.7091 31.5277 18.5995 31.6099 18.4836C31.9803 17.9607 32.3122 17.304 32.508 16.6556C32.6796 16.0878 32.7391 15.559 32.6042 15.2066C32.5112 14.9636 32.2457 14.8046 31.7288 14.8095C31.6786 14.8098 31.6294 14.8056 31.5816 14.797L31.5817 14.7971ZM14.0637 14.8086C14.0456 14.8095 14.0276 14.8098 14.0096 14.8095C13.4989 14.8066 13.236 14.9651 13.1435 15.2066C13.0086 15.559 13.0681 16.0878 13.2396 16.6556C13.4356 17.304 13.7675 17.9607 14.1378 18.4836C14.2132 18.5901 14.2864 18.6912 14.356 18.785V14.7375L14.3524 14.7391L14.3512 14.7396L14.3434 14.743L14.3415 14.7438L14.3389 14.745L14.3367 14.746C14.2618 14.7778 14.1812 14.7987 14.0968 14.8062H14.0962L14.0913 14.8067L14.0858 14.8072L14.0803 14.8076L14.0692 14.8082L14.0637 14.8086ZM29.7766 14.0755L29.7764 14.0941V18.9548C29.7764 20.6238 29.0929 22.142 27.992 23.2431C26.8911 24.3442 25.3733 25.0277 23.7045 25.0277H22.0248C20.356 25.0277 18.8382 24.3443 17.7373 23.2432C16.6364 22.1421 15.953 20.6241 15.953 18.9549V13.4967C16.3934 13.0979 16.7836 12.6905 17.1236 12.2747C17.6325 11.6521 18.0314 11.0083 18.3204 10.3434C20.0944 10.8586 21.8515 10.9757 23.5915 10.6947C25.2847 10.4213 26.9495 9.77332 28.5858 8.75084C28.8808 9.49242 29.1225 10.2406 29.3112 10.9953C29.567 12.0192 29.7222 13.0459 29.7767 14.0756L29.7766 14.0755ZM18.6123 35.2223L21.6939 32.3826L16.1607 27.4679L14.9716 28.6017L18.6123 35.2223ZM22.8805 31.3088L18.3255 27.2628L18.9771 25.9898C19.9124 26.3981 20.9433 26.6249 22.0248 26.6249H23.7045C24.786 26.6249 25.8169 26.3981 26.7522 25.9898L27.4137 27.2822L22.8805 31.3088ZM25.9274 34.0968C25.9445 34.106 25.9615 34.1159 25.9783 34.1267C26.0779 34.1902 26.1585 34.2721 26.2188 34.3653L27.1488 35.2223L30.7895 28.6017L29.6006 27.4679L24.0674 32.3826L25.9277 34.0969L25.9274 34.0968ZM23.8848 37.6844H21.9157C21.0174 41.4287 20.1199 45.1733 19.2219 48.9177L22.9003 53.0536L26.5786 48.9177C25.6807 45.1733 24.7831 41.4287 23.8848 37.6844ZM22.0147 36.0872L21.2786 34.9325L22.8805 33.4564L24.5073 34.9554L23.7858 36.0872H22.0148H22.0147ZM37.1838 49.8179H37.1038L34.0392 55.1938L36.5689 54.6581L36.5691 54.6593C36.9598 54.5759 37.3592 54.7975 37.4889 55.1853L38.3162 57.6346L41.4955 52.0575C41.3447 52.0703 41.1865 52.09 41.0286 52.1096C40.3276 52.197 39.6304 52.2839 38.9445 51.9475C38.2582 51.6108 37.9014 51.0014 37.5459 50.3941C37.426 50.1894 37.3064 49.985 37.1839 49.8178L37.1838 49.8179ZM38.043 48.3968C38.0082 48.3655 37.9725 48.3349 37.9355 48.3052C37.7074 48.1221 37.4573 47.9895 37.1967 47.881C37.1843 47.8756 37.1719 47.8705 37.1594 47.8656C36.9316 47.7729 36.6961 47.6977 36.4605 47.6224C36.0235 47.4828 35.5862 47.343 35.4109 47.1246C35.237 46.9077 35.1943 46.4493 35.1518 45.9899C35.1017 45.4487 35.0515 44.9064 34.8017 44.3971C34.5538 43.8915 34.165 43.5231 33.7741 43.1528C33.4278 42.8249 33.0792 42.4945 33.0105 42.2016C32.9412 41.9065 33.1027 41.4492 33.266 40.9869C33.4517 40.4609 33.6391 39.9304 33.6391 39.3498C33.6391 38.7693 33.4517 38.2387 33.266 37.7128C33.1027 37.2505 32.9412 36.7933 33.0105 36.498C33.0792 36.205 33.428 35.8747 33.7741 35.5468C34.1649 35.1765 34.5538 34.8082 34.8017 34.3026C35.0515 33.7933 35.1017 33.2511 35.1518 32.7098C35.1943 32.2504 35.237 31.7919 35.4109 31.5752C35.5862 31.3568 36.0235 31.217 36.4605 31.0772C36.9793 30.9115 37.4979 30.7456 37.9355 30.3944C38.3708 30.045 38.6441 29.5782 38.918 29.1103C39.1533 28.7084 39.3894 28.3052 39.6431 28.1807C39.8946 28.0573 40.3636 28.1158 40.8352 28.1746C41.3759 28.242 41.9193 28.3097 42.4775 28.1787C43.0196 28.0514 43.4727 27.7594 43.93 27.4646C44.3496 27.1942 44.7744 26.9203 45.1105 26.9203C45.4466 26.9203 45.8713 27.1942 46.2909 27.4646C46.7482 27.7594 47.2012 28.0516 47.7434 28.1787C48.3017 28.3097 48.845 28.242 49.3858 28.1746C49.8573 28.1158 50.3263 28.0574 50.5778 28.1807C50.8314 28.3051 51.0675 28.7084 51.3029 29.1103C51.5768 29.5782 51.8501 30.045 52.2854 30.3944C52.723 30.7457 53.2416 30.9115 53.7604 31.0772C54.1974 31.2169 54.6347 31.3566 54.81 31.5752C54.984 31.7921 55.0266 32.2505 55.0691 32.7098C55.1192 33.2511 55.1696 33.7933 55.4192 34.3026C55.6672 34.8082 56.056 35.1765 56.4468 35.5468C56.7929 35.8747 57.1417 36.205 57.2104 36.498C57.2797 36.7932 57.1182 37.2505 56.9549 37.7128C56.7692 38.2387 56.5818 38.7693 56.5818 39.3498C56.5818 39.9304 56.7692 40.4609 56.9549 40.9869C57.1182 41.4492 57.2797 41.9063 57.2104 42.2016C57.1417 42.4947 56.7931 42.8249 56.4468 43.1528C56.0559 43.5231 55.667 43.8915 55.4192 44.3971C55.1694 44.9063 55.1192 45.4486 55.0691 45.9899C55.0265 46.4492 54.984 46.9077 54.81 47.1246C54.6347 47.343 54.1974 47.4828 53.7604 47.6224C53.5246 47.6978 53.2887 47.7732 53.0605 47.8661C53.0484 47.8707 53.0364 47.8757 53.0244 47.881C52.7636 47.9896 52.5135 48.1222 52.2854 48.3054C51.8502 48.6548 51.5768 49.1216 51.3029 49.5895C51.0676 49.9914 50.8315 50.3946 50.5778 50.5191C50.3263 50.6425 49.8573 50.584 49.3858 50.5252C48.845 50.4578 48.3016 50.3901 47.7433 50.5211C47.2012 50.6484 46.7482 50.9404 46.2909 51.2352C45.8713 51.5057 45.4466 51.7795 45.1105 51.7795C44.7744 51.7795 44.3495 51.5056 43.93 51.2352C43.4727 50.9404 43.0196 50.6482 42.4775 50.5211C41.9192 50.3901 41.3759 50.4578 40.8352 50.5252C40.3636 50.584 39.8946 50.6424 39.6431 50.5191C39.3895 50.3947 39.1534 49.9914 38.918 49.5895C38.6891 49.1985 38.4606 48.8082 38.1376 48.4866C38.1085 48.4543 38.0769 48.4243 38.043 48.3969V48.3968ZM28.0466 48.2209H34.2533C34.2248 48.1894 34.1969 48.1567 34.1697 48.1228C33.6973 47.5342 33.6325 46.8345 33.5675 46.1335C33.5308 45.7384 33.4941 45.3423 33.3732 45.096C33.2555 44.856 32.9666 44.5824 32.6761 44.3072C32.1573 43.8157 31.6349 43.3207 31.4572 42.5637C31.2821 41.8172 31.521 41.1408 31.7626 40.4568C31.9017 40.0628 32.0421 39.6652 32.0421 39.3501C32.0421 39.0349 31.9017 38.6374 31.7626 38.2433C31.521 37.5593 31.2821 36.883 31.4572 36.1365C31.6349 35.3794 32.1573 34.8844 32.6761 34.393C32.9666 34.1178 33.2555 33.8441 33.3732 33.6041C33.4941 33.3577 33.5308 32.9617 33.5675 32.5666C33.6325 31.8656 33.6973 31.166 34.1697 30.5773C34.3761 30.32 34.6206 30.1343 34.8865 29.9889C34.67 29.9141 34.4511 29.8445 34.2299 29.7804C33.5698 29.5891 32.8896 29.4464 32.1937 29.3567L28.0555 36.8818C27.8436 37.2677 27.3591 37.4088 26.9732 37.1969C26.908 37.161 26.8497 37.1174 26.799 37.0677L25.6953 36.0506L25.2831 36.6973L28.0466 48.2212V48.2209ZM17.888 49.8179H0.79844C0.357473 49.8179 0 49.4604 0 49.0193V42.9367C0 38.9798 1.52638 35.3597 4.01982 32.6355C6.45301 29.9774 9.80588 28.1749 13.5587 27.7479L15.5918 25.809L15.5924 25.8097C15.8883 25.5275 16.356 25.5144 16.6677 25.7903L17.0973 26.172L17.5922 25.2051C17.2412 24.9551 16.9121 24.6763 16.6081 24.3723C15.6586 23.4226 14.9552 22.2263 14.6049 20.8906C13.9939 20.6979 13.367 20.1443 12.8403 19.4007C12.3701 18.7367 11.9526 17.9158 11.7112 17.1173C11.4456 16.2384 11.3799 15.3508 11.6525 14.6389C11.8922 14.0129 12.3442 13.5427 13.0725 13.3353C12.1378 8.47656 12.7164 4.96683 14.8089 2.80699C16.9917 0.553757 20.7414 -0.139563 26.0574 0.7264C28.6597 -0.020676 30.5984 0.63239 31.8733 2.68622C33.0414 4.56779 33.5632 7.68473 33.439 12.0367C33.477 12.5008 33.2842 12.9974 32.9875 13.4476C33.5355 13.6891 33.8914 14.108 34.0948 14.6389C34.3673 15.3508 34.3016 16.2384 34.036 17.1173C33.7948 17.9158 33.3772 18.7369 32.907 19.4007C32.3745 20.1524 31.7397 20.7098 31.1225 20.8967C30.7717 22.2298 30.069 23.4241 29.1209 24.3723C28.8169 24.6763 28.4878 24.9551 28.1369 25.2051L28.6416 26.1914L29.093 25.7905C29.4048 25.5145 29.8725 25.5277 30.1683 25.8098L30.169 25.8091L32.2096 27.7553C33.0531 27.8534 33.8761 28.0208 34.6725 28.2516C35.4653 28.4813 36.2331 28.7746 36.9697 29.1253C37.1691 28.9483 37.357 28.6272 37.5454 28.3055C37.901 27.6981 38.2577 27.0887 38.944 26.752C39.6299 26.4156 40.3269 26.5025 41.028 26.5899C41.4312 26.6402 41.8365 26.6907 42.1153 26.6252C42.39 26.5608 42.7279 26.3429 43.0689 26.1231C43.6856 25.7256 44.31 25.323 45.1101 25.323C45.9101 25.323 46.5346 25.7256 47.1513 26.1231C47.4923 26.3429 47.83 26.5607 48.1049 26.6252C48.3836 26.6905 48.7889 26.64 49.1921 26.5898C49.8933 26.5024 50.5904 26.4156 51.2761 26.7519C51.9624 27.0886 52.3193 27.698 52.6749 28.3053C52.8735 28.6445 53.0716 28.983 53.2831 29.1528C53.4951 29.3229 53.8677 29.4421 54.2404 29.5612C54.9096 29.7751 55.5793 29.9893 56.0509 30.5768C56.5232 31.1655 56.5881 31.8652 56.6531 32.5661C56.6897 32.9613 56.7264 33.3572 56.8473 33.6036C56.9649 33.8436 57.2539 34.1173 57.5444 34.3925C58.0632 34.8839 58.5857 35.3788 58.7633 36.136C58.9384 36.8825 58.6995 37.5589 58.4579 38.2428C58.3188 38.6369 58.1785 39.0344 58.1785 39.3496C58.1785 39.6647 58.3188 40.0624 58.4579 40.4563C58.6995 41.1404 58.9384 41.8167 58.7633 42.5632C58.5857 43.3204 58.0632 43.8153 57.5444 44.3067C57.2539 44.5819 56.9651 44.8555 56.8473 45.0955C56.7264 45.3419 56.6897 45.738 56.6531 46.133C56.5881 46.834 56.5232 47.5337 56.0509 48.1223C55.6433 48.6303 55.0877 48.8592 54.5122 49.0501L58.4254 55.9146C58.5328 56.0843 58.5767 56.2944 58.5318 56.5063C58.4406 56.937 58.0173 57.2122 57.5868 57.1209L54.0137 56.3643L52.8504 59.8088C52.792 59.9939 52.6663 60.1585 52.4841 60.2618C52.1018 60.4789 51.6158 60.3448 51.3988 59.9623L47.1784 52.5589L47.1516 52.5763C46.5348 52.9738 45.9104 53.3765 45.1103 53.3765C44.3103 53.3765 43.6857 52.974 43.0691 52.5763L43.0422 52.5589L38.8218 59.9623C38.6048 60.3447 38.1189 60.4789 37.7365 60.2618C37.5544 60.1585 37.4285 59.9939 37.3703 59.8088L36.2069 56.3643L32.6338 57.1209C32.2032 57.2122 31.78 56.937 31.6887 56.5063C31.6439 56.2944 31.6877 56.0843 31.7951 55.9146L35.2708 49.8176H27.9125L23.5037 54.775C23.497 54.7828 23.49 54.7905 23.4828 54.798L23.481 54.7999L23.4698 54.8114L23.464 54.8173L23.4581 54.8232L23.4466 54.8343L23.4447 54.8362C23.3904 54.887 23.3305 54.929 23.2669 54.9619L23.264 54.9634L23.2519 54.9694L23.2449 54.9728L23.2377 54.9762L23.2264 54.9814L23.221 54.9838L23.2085 54.9892L23.2042 54.9909C23.1274 55.0227 23.0469 55.0417 22.9656 55.0483H22.9653L22.9469 55.0496H22.945C22.9331 55.0503 22.9213 55.0508 22.9094 55.0509H22.9081H22.892H22.8908C22.8789 55.0508 22.867 55.0503 22.8551 55.0497H22.8533L22.8349 55.0483H22.8345C22.7533 55.0417 22.6728 55.0226 22.5959 54.9909L22.5917 54.9892L22.5792 54.9838L22.5738 54.9814L22.5624 54.9762L22.5553 54.9728L22.5483 54.9694L22.5362 54.9634L22.5333 54.9619C22.4697 54.929 22.4098 54.887 22.3554 54.8362L22.3536 54.8343L22.3421 54.8232L22.3362 54.8173L22.3303 54.8114L22.3192 54.7999L22.3173 54.798C22.3102 54.7904 22.3032 54.7828 22.2964 54.775L17.8876 49.8176L17.888 49.8179ZM1.59688 48.2209V42.9368C1.59688 39.3882 2.96215 36.1454 5.19261 33.7088C7.33307 31.3703 10.272 29.7719 13.5668 29.3552L17.7057 36.8815C17.9175 37.2674 18.4021 37.4084 18.788 37.1965C18.8532 37.1606 18.9114 37.117 18.9622 37.0673L20.0907 36.0274L20.5176 36.6969L17.754 48.2209H1.59688Z" fill="#023853"/>
</svg>
