<svg width="1915" height="355" viewBox="0 0 1915 355" fill="none" xmlns="http://www.w3.org/2000/svg">
<g clip-path="url(#clip0_1035_1222)">
<path d="M2572 353.5C2485.6 279.5 2318.33 313.001 2245.5 339.001C2047.5 401.001 1955 270.834 1933.5 198.001C1918.89 146.007 1858.4 110.167 1789.9 103.554C1715.61 96.3821 1557.67 115.506 1487.98 125.965C1226.15 177.191 1141.92 119.504 991.721 81.7828C826.504 40.29 610.755 90.3682 525 125.965C401.595 177.191 300.042 185.728 264.692 183.594C118.96 182.313 12.8402 120.095 -22.0029 89.1465C-127.835 21.695 -424.9 -72.7371 -766.5 89.1465C-865.5 136.062 -1130.8 310.3 -1574 205.5" stroke="white" stroke-width="2" stroke-dasharray="4 4"/>
<path d="M468.5 150C468.5 154.418 464.918 158 460.5 158C456.082 158 452.5 154.418 452.5 150C452.5 145.582 456.082 142 460.5 142C464.918 142 468.5 145.582 468.5 150ZM455.351 150C455.351 152.844 457.656 155.149 460.5 155.149C463.344 155.149 465.649 152.844 465.649 150C465.649 147.156 463.344 144.851 460.5 144.851C457.656 144.851 455.351 147.156 455.351 150Z" fill="#023047"/>
<path d="M798.5 68C798.5 72.4183 794.918 76 790.5 76C786.082 76 782.5 72.4183 782.5 68C782.5 63.5817 786.082 60 790.5 60C794.918 60 798.5 63.5817 798.5 68ZM785.351 68C785.351 70.8437 787.656 73.149 790.5 73.149C793.344 73.149 795.649 70.8437 795.649 68C795.649 65.1563 793.344 62.851 790.5 62.851C787.656 62.851 785.351 65.1563 785.351 68Z" fill="#023047"/>
<path d="M1134.5 121C1134.5 125.418 1130.92 129 1126.5 129C1122.08 129 1118.5 125.418 1118.5 121C1118.5 116.582 1122.08 113 1126.5 113C1130.92 113 1134.5 116.582 1134.5 121ZM1121.35 121C1121.35 123.844 1123.66 126.149 1126.5 126.149C1129.34 126.149 1131.65 123.844 1131.65 121C1131.65 118.156 1129.34 115.851 1126.5 115.851C1123.66 115.851 1121.35 118.156 1121.35 121Z" fill="#023047"/>
<path d="M1466.5 131C1466.5 135.418 1462.92 139 1458.5 139C1454.08 139 1450.5 135.418 1450.5 131C1450.5 126.582 1454.08 123 1458.5 123C1462.92 123 1466.5 126.582 1466.5 131ZM1453.35 131C1453.35 133.844 1455.66 136.149 1458.5 136.149C1461.34 136.149 1463.65 133.844 1463.65 131C1463.65 128.156 1461.34 125.851 1458.5 125.851C1455.66 125.851 1453.35 128.156 1453.35 131Z" fill="#023047"/>
<path fill-rule="evenodd" clip-rule="evenodd" d="M172.45 167.87C174.041 168.378 177.016 169.988 177.864 175.072C177.977 175.75 177.553 176.381 176.913 176.532C176.837 176.541 176.753 176.551 176.677 176.551C176.291 176.551 175.943 176.372 175.717 176.089L173.222 180.957C173.222 180.966 173.213 180.976 173.213 180.976C173.203 180.985 172.601 182.021 172.591 182.859C172.591 183.009 172.469 183.122 172.328 183.122C172.177 183.113 172.064 183 172.064 182.849C172.083 181.898 172.695 180.825 172.761 180.712L175.312 175.731C175.425 175.468 175.406 175.176 175.246 174.931C175.086 174.696 174.823 174.545 174.54 174.545L169.767 174.837C170.143 175.214 170.416 175.694 170.548 176.23H172.808C172.902 176.23 172.987 176.277 173.034 176.362C173.081 176.447 173.081 176.541 173.034 176.626L171.744 178.829C171.603 179.111 171.169 179.582 170.473 179.356C170.275 179.29 170.04 179.206 169.785 179.102C169.22 179.705 168.42 180.081 167.526 180.081C166.744 180.081 166.038 179.789 165.492 179.319C165.191 179.479 164.889 179.639 164.616 179.789C163.054 180.646 162.037 181.315 162.027 182.849C162.027 182.991 161.905 183.113 161.764 183.113C161.613 183.113 161.5 183 161.5 182.849C161.509 180.895 163.019 180.066 164.354 179.333L164.362 179.328C164.598 179.196 164.852 179.055 165.106 178.923C164.673 178.386 164.419 177.709 164.419 176.974C164.419 176.861 164.428 176.748 164.438 176.635L164.438 176.635L164.426 176.622C164.121 176.298 163.219 175.338 162.912 174.799C162.338 173.782 162.555 172.577 163.562 171.221C165.012 169.273 166.594 168.453 167.262 168.18C167.055 167.785 166.933 167.333 166.933 166.853C166.933 165.28 168.213 164 169.785 164C171.358 164 172.638 165.28 172.638 166.853C172.638 167.211 172.572 167.559 172.45 167.87ZM172.102 166.853C172.102 165.572 171.056 164.527 169.776 164.527C168.496 164.527 167.46 165.572 167.45 166.853C167.45 168.133 168.496 169.178 169.776 169.178C171.056 169.178 172.102 168.133 172.102 166.853ZM171.254 178.547L172.318 176.739H170.595C170.605 176.814 170.605 176.889 170.605 176.965C170.605 177.586 170.426 178.161 170.106 178.65C170.174 178.674 170.24 178.698 170.303 178.721C170.414 178.761 170.518 178.799 170.614 178.829C171.043 178.969 171.223 178.609 171.244 178.566L171.245 178.565C171.245 178.565 171.254 178.556 171.254 178.547ZM164.937 176.974C164.937 178.386 166.085 179.545 167.507 179.545C168.929 179.545 170.087 178.386 170.077 176.974C170.077 175.562 168.929 174.404 167.507 174.404C166.095 174.404 164.937 175.552 164.937 176.974ZM174.493 173.99H174.512C174.719 173.99 174.926 174.037 175.114 174.121C174.653 172.568 174.098 172.059 173.231 171.711C173.015 171.626 172.845 171.636 172.704 171.749C172.384 172.003 172.149 172.822 172.309 174.121L174.493 173.99ZM176.659 175.995C176.696 175.995 176.743 175.995 176.79 175.986C177.167 175.91 177.412 175.553 177.336 175.157C176.517 170.252 173.655 168.783 172.205 168.34C171.706 169.16 170.802 169.706 169.776 169.706C168.882 169.706 168.081 169.282 167.554 168.632C167.046 168.83 165.426 169.583 163.986 171.532C163.11 172.709 162.903 173.717 163.364 174.526C163.581 174.912 164.183 175.581 164.56 175.995C164.701 175.562 164.937 175.176 165.238 174.846C164.522 173.942 164.965 173.133 165.125 172.888C165.52 172.295 165.963 171.786 165.982 171.768C166.076 171.655 166.245 171.645 166.358 171.739C166.471 171.833 166.481 172.003 166.387 172.116C166.377 172.125 165.944 172.624 165.567 173.189C165.398 173.443 165.21 173.924 165.633 174.489C166.151 174.093 166.801 173.858 167.507 173.858C168.1 173.858 168.656 174.027 169.126 174.319L171.781 174.159C171.621 172.803 171.847 171.758 172.384 171.334C172.591 171.174 172.94 171.024 173.439 171.221C174.851 171.796 175.463 172.813 175.971 175.43C176.037 175.76 176.329 175.995 176.659 175.995ZM179.767 177.38C179.701 177.286 179.597 177.22 179.475 177.201C179.23 177.163 179.004 177.323 178.967 177.568C178.948 177.681 178.976 177.803 179.042 177.898C179.108 177.992 179.211 178.058 179.334 178.076C179.343 178.076 179.355 178.079 179.367 178.081C179.379 178.083 179.39 178.086 179.4 178.086C179.616 178.086 179.805 177.926 179.833 177.709C179.861 177.587 179.833 177.474 179.767 177.38ZM177.67 180.486C177.707 180.241 177.933 180.081 178.178 180.119C178.413 180.156 178.583 180.382 178.545 180.627C178.526 180.75 178.46 180.853 178.366 180.919C178.282 180.976 178.197 181.004 178.103 181.004C178.093 181.004 178.081 181.001 178.07 180.999C178.058 180.997 178.046 180.994 178.037 180.994C177.792 180.957 177.632 180.731 177.67 180.486ZM175.216 182.248C175.254 182.003 175.48 181.843 175.725 181.88C175.97 181.918 176.13 182.144 176.083 182.389C176.054 182.605 175.866 182.766 175.65 182.766C175.64 182.766 175.628 182.763 175.617 182.761C175.605 182.758 175.593 182.756 175.584 182.756C175.339 182.718 175.179 182.492 175.216 182.248Z" fill="#023047"/>
<path d="M177.864 175.072L178.11 175.031L178.11 175.031L177.864 175.072ZM172.45 167.87L172.217 167.778L172.119 168.027L172.374 168.108L172.45 167.87ZM176.913 176.532L176.944 176.78L176.957 176.778L176.97 176.775L176.913 176.532ZM175.717 176.089L175.912 175.933L175.671 175.631L175.495 175.975L175.717 176.089ZM173.222 180.957L172.999 180.843L172.972 180.897V180.957H173.222ZM173.213 180.976L173.389 181.152L173.389 181.152L173.213 180.976ZM172.591 182.859L172.341 182.856V182.859H172.591ZM172.328 183.122L172.312 183.372L172.32 183.372H172.328V183.122ZM172.064 182.849L171.814 182.844V182.849H172.064ZM172.761 180.712L172.977 180.838L172.983 180.826L172.761 180.712ZM175.312 175.731L175.535 175.845L175.539 175.838L175.542 175.83L175.312 175.731ZM175.246 174.931L175.456 174.794L175.453 174.791L175.246 174.931ZM174.54 174.545V174.295H174.532L174.525 174.296L174.54 174.545ZM169.767 174.837L169.751 174.587L169.197 174.621L169.59 175.014L169.767 174.837ZM170.548 176.23L170.305 176.29L170.352 176.48H170.548V176.23ZM173.034 176.362L173.252 176.241L173.252 176.241L173.034 176.362ZM173.034 176.626L173.249 176.752L173.252 176.747L173.034 176.626ZM171.744 178.829L171.528 178.703L171.524 178.71L171.52 178.717L171.744 178.829ZM170.473 179.356L170.394 179.593L170.396 179.594L170.473 179.356ZM169.785 179.102L169.88 178.871L169.721 178.806L169.603 178.931L169.785 179.102ZM165.492 179.319L165.655 179.129L165.526 179.018L165.375 179.098L165.492 179.319ZM164.616 179.789L164.737 180.009L164.737 180.008L164.616 179.789ZM162.027 182.849L161.777 182.848V182.849H162.027ZM161.5 182.849L161.25 182.848V182.849H161.5ZM164.354 179.333L164.233 179.114L164.233 179.114L164.354 179.333ZM164.362 179.328L164.483 179.547L164.484 179.546L164.362 179.328ZM165.106 178.923L165.221 179.145L165.493 179.004L165.301 178.766L165.106 178.923ZM164.438 176.635L164.189 176.613L164.188 176.615L164.438 176.635ZM164.438 176.635L164.687 176.657L164.697 176.546L164.62 176.464L164.438 176.635ZM164.426 176.622L164.243 176.794L164.243 176.794L164.426 176.622ZM162.912 174.799L162.695 174.922L162.695 174.923L162.912 174.799ZM163.562 171.221L163.361 171.072L163.361 171.072L163.562 171.221ZM167.262 168.18L167.357 168.412L167.611 168.308L167.484 168.064L167.262 168.18ZM167.45 166.853L167.2 166.851V166.853H167.45ZM172.318 176.739L172.534 176.866L172.755 176.489H172.318V176.739ZM171.254 178.547L171.039 178.42L171.004 178.478V178.547H171.254ZM170.595 176.739V176.489H170.312L170.347 176.77L170.595 176.739ZM170.106 178.65L169.896 178.513L169.722 178.781L170.023 178.886L170.106 178.65ZM170.303 178.721L170.389 178.486L170.389 178.486L170.303 178.721ZM170.614 178.829L170.691 178.591L170.689 178.59L170.614 178.829ZM171.244 178.566L171.021 178.455L171.021 178.455L171.244 178.566ZM171.245 178.565L171.068 178.389L171.039 178.417L171.021 178.454L171.245 178.565ZM170.077 176.974H169.827L169.827 176.976L170.077 176.974ZM174.493 173.99V173.74H174.485L174.478 173.74L174.493 173.99ZM175.114 174.121L175.012 174.349L175.509 174.573L175.354 174.05L175.114 174.121ZM173.231 171.711L173.325 171.479L173.322 171.478L173.231 171.711ZM172.704 171.749L172.86 171.945L172.86 171.944L172.704 171.749ZM172.309 174.121L172.061 174.152L172.089 174.385L172.324 174.371L172.309 174.121ZM176.79 175.986L176.839 176.231L176.839 176.231L176.79 175.986ZM177.336 175.157L177.09 175.198L177.091 175.204L177.336 175.157ZM172.205 168.34L172.278 168.101L172.093 168.045L171.992 168.21L172.205 168.34ZM167.554 168.632L167.748 168.475L167.633 168.333L167.463 168.399L167.554 168.632ZM163.986 171.532L164.186 171.681L164.187 171.681L163.986 171.532ZM163.364 174.526L163.582 174.404L163.581 174.402L163.364 174.526ZM164.56 175.995L164.375 176.163L164.664 176.481L164.798 176.073L164.56 175.995ZM165.238 174.846L165.422 175.015L165.566 174.858L165.434 174.691L165.238 174.846ZM165.125 172.888L164.917 172.749L164.916 172.751L165.125 172.888ZM165.982 171.768L166.158 171.944L166.166 171.936L166.174 171.928L165.982 171.768ZM166.358 171.739L166.518 171.547L166.518 171.547L166.358 171.739ZM166.387 172.116L166.563 172.293L166.571 172.285L166.579 172.276L166.387 172.116ZM165.567 173.189L165.359 173.051L165.359 173.051L165.567 173.189ZM165.633 174.489L165.433 174.639L165.585 174.84L165.785 174.687L165.633 174.489ZM169.126 174.319L168.995 174.532L169.062 174.573L169.141 174.569L169.126 174.319ZM171.781 174.159L171.796 174.409L172.061 174.393L172.03 174.13L171.781 174.159ZM172.384 171.334L172.231 171.137L172.229 171.138L172.384 171.334ZM173.439 171.221L173.533 170.99L173.531 170.989L173.439 171.221ZM175.971 175.43L175.726 175.478L175.726 175.479L175.971 175.43ZM179.475 177.201L179.513 176.954L179.513 176.954L179.475 177.201ZM178.967 177.568L179.213 177.609L179.214 177.606L178.967 177.568ZM179.334 178.076L179.296 178.324L179.315 178.326H179.334V178.076ZM179.833 177.709L179.589 177.653L179.587 177.665L179.585 177.677L179.833 177.709ZM178.178 180.119L178.217 179.872L178.216 179.872L178.178 180.119ZM178.545 180.627L178.298 180.589L178.298 180.589L178.545 180.627ZM178.366 180.919L178.505 181.127L178.51 181.124L178.366 180.919ZM178.07 180.999L178.119 180.754L178.119 180.754L178.07 180.999ZM178.037 180.994L177.999 181.241L178.018 181.244H178.037V180.994ZM175.725 181.88L175.763 181.633L175.763 181.633L175.725 181.88ZM175.216 182.248L174.969 182.21L174.969 182.21L175.216 182.248ZM176.083 182.389L175.837 182.342L175.836 182.349L175.835 182.357L176.083 182.389ZM175.617 182.761L175.666 182.516L175.666 182.516L175.617 182.761ZM175.584 182.756L175.546 183.003L175.564 183.006H175.584V182.756ZM178.11 175.031C177.679 172.444 176.703 170.724 175.617 169.583C174.533 168.444 173.351 167.895 172.526 167.632L172.374 168.108C173.14 168.353 174.242 168.863 175.255 169.927C176.266 170.99 177.201 172.616 177.617 175.113L178.11 175.031ZM176.97 176.775C177.741 176.594 178.245 175.837 178.11 175.031L177.617 175.113C177.709 175.664 177.365 176.168 176.855 176.288L176.97 176.775ZM176.677 176.801C176.77 176.801 176.868 176.789 176.944 176.78L176.882 176.284C176.806 176.293 176.735 176.301 176.677 176.301V176.801ZM175.522 176.245C175.794 176.585 176.213 176.801 176.677 176.801V176.301C176.37 176.301 176.092 176.158 175.912 175.933L175.522 176.245ZM173.444 181.071L175.939 176.203L175.495 175.975L172.999 180.843L173.444 181.071ZM173.213 180.976C173.389 181.152 173.389 181.152 173.389 181.152C173.389 181.152 173.39 181.152 173.39 181.152C173.39 181.152 173.39 181.152 173.39 181.152C173.39 181.152 173.39 181.152 173.39 181.152C173.39 181.151 173.391 181.151 173.391 181.151C173.391 181.15 173.392 181.15 173.392 181.149C173.393 181.148 173.395 181.147 173.396 181.146C173.398 181.143 173.401 181.14 173.404 181.137C173.41 181.13 173.417 181.12 173.425 181.108C173.436 181.092 173.472 181.037 173.472 180.957H172.972C172.972 180.918 172.981 180.889 172.988 180.871C172.996 180.853 173.004 180.839 173.009 180.831C173.015 180.823 173.02 180.816 173.024 180.811C173.026 180.809 173.028 180.807 173.03 180.805C173.031 180.804 173.032 180.803 173.033 180.802C173.033 180.801 173.034 180.801 173.034 180.8C173.035 180.8 173.035 180.8 173.035 180.8C173.035 180.8 173.035 180.799 173.035 180.799C173.035 180.799 173.035 180.799 173.036 180.799C173.036 180.799 173.036 180.799 173.036 180.799C173.036 180.799 173.036 180.799 173.213 180.976ZM172.841 182.862C172.845 182.492 172.983 182.06 173.132 181.703C173.206 181.528 173.279 181.378 173.335 181.271C173.362 181.218 173.385 181.176 173.401 181.148C173.409 181.133 173.415 181.123 173.419 181.117C173.421 181.114 173.422 181.112 173.422 181.112C173.422 181.112 173.422 181.113 173.421 181.113C173.421 181.114 173.42 181.115 173.419 181.116C173.418 181.117 173.417 181.12 173.414 181.124C173.414 181.124 173.404 181.138 173.389 181.152L173.036 180.799C173.021 180.814 173.011 180.828 173.011 180.828C173.008 180.832 173.005 180.836 173.004 180.837C173.002 180.841 172.999 180.845 172.998 180.847C172.995 180.851 172.992 180.857 172.989 180.862C172.983 180.872 172.975 180.886 172.966 180.902C172.947 180.936 172.921 180.983 172.891 181.041C172.831 181.157 172.751 181.32 172.671 181.51C172.515 181.883 172.346 182.388 172.341 182.856L172.841 182.862ZM172.328 183.372C172.601 183.372 172.841 183.153 172.841 182.859H172.341C172.341 182.862 172.341 182.864 172.34 182.865C172.34 182.866 172.339 182.867 172.338 182.868C172.335 182.871 172.331 182.872 172.328 182.872V183.372ZM171.814 182.849C171.814 183.141 172.038 183.355 172.312 183.372L172.343 182.873C172.327 182.872 172.32 182.866 172.318 182.864C172.317 182.863 172.316 182.862 172.316 182.86C172.315 182.859 172.314 182.855 172.314 182.849H171.814ZM172.545 180.586C172.508 180.648 172.333 180.956 172.163 181.372C171.995 181.784 171.824 182.324 171.814 182.844L172.314 182.854C172.322 182.424 172.467 181.951 172.626 181.561C172.784 181.174 172.947 180.889 172.977 180.838L172.545 180.586ZM175.09 175.617L172.538 180.598L172.983 180.826L175.535 175.845L175.09 175.617ZM175.037 175.068C175.149 175.24 175.164 175.443 175.082 175.633L175.542 175.83C175.686 175.493 175.663 175.112 175.455 174.794L175.037 175.068ZM174.54 174.795C174.733 174.795 174.922 174.899 175.04 175.072L175.453 174.791C175.25 174.493 174.912 174.295 174.54 174.295V174.795ZM169.782 175.086L174.555 174.795L174.525 174.296L169.751 174.587L169.782 175.086ZM170.791 176.171C170.648 175.59 170.352 175.069 169.943 174.66L169.59 175.014C169.934 175.358 170.184 175.798 170.305 176.29L170.791 176.171ZM172.808 175.98H170.548V176.48H172.808V175.98ZM173.252 176.241C173.159 176.074 172.989 175.98 172.808 175.98V176.48C172.813 176.48 172.814 176.482 172.814 176.481C172.813 176.481 172.813 176.481 172.813 176.481C172.813 176.481 172.814 176.482 172.815 176.484L173.252 176.241ZM173.252 176.747C173.341 176.587 173.341 176.401 173.252 176.241L172.815 176.484C172.817 176.488 172.818 176.49 172.819 176.492C172.819 176.493 172.819 176.494 172.819 176.494C172.819 176.494 172.819 176.495 172.819 176.496C172.818 176.498 172.817 176.5 172.815 176.504L173.252 176.747ZM171.96 178.955L173.249 176.752L172.818 176.5L171.528 178.703L171.96 178.955ZM170.396 179.594C170.815 179.73 171.172 179.658 171.443 179.499C171.705 179.345 171.879 179.117 171.967 178.941L171.52 178.717C171.467 178.824 171.354 178.972 171.19 179.068C171.035 179.158 170.827 179.208 170.55 179.118L170.396 179.594ZM169.691 179.334C169.951 179.439 170.192 179.526 170.394 179.593L170.552 179.119C170.358 179.055 170.128 178.972 169.88 178.871L169.691 179.334ZM167.526 180.331C168.492 180.331 169.358 179.924 169.968 179.273L169.603 178.931C169.083 179.485 168.348 179.831 167.526 179.831V180.331ZM165.329 179.508C165.917 180.015 166.68 180.331 167.526 180.331V179.831C166.808 179.831 166.159 179.564 165.655 179.129L165.329 179.508ZM164.737 180.008C165.008 179.859 165.308 179.7 165.609 179.539L165.375 179.098C165.074 179.258 164.771 179.419 164.496 179.57L164.737 180.008ZM162.277 182.851C162.282 182.15 162.511 181.66 162.919 181.239C163.34 180.804 163.952 180.439 164.737 180.009L164.496 179.57C163.718 179.997 163.04 180.394 162.56 180.891C162.066 181.402 161.782 182.014 161.777 182.848L162.277 182.851ZM161.764 183.363C162.043 183.363 162.277 183.129 162.277 182.849H161.777C161.777 182.848 161.778 182.848 161.777 182.85C161.776 182.852 161.774 182.855 161.772 182.857C161.769 182.86 161.766 182.862 161.764 182.862C161.763 182.863 161.763 182.863 161.764 182.863V183.363ZM161.25 182.849C161.25 183.138 161.475 183.363 161.764 183.363V182.863C161.757 182.863 161.754 182.862 161.753 182.861C161.752 182.861 161.752 182.861 161.752 182.861C161.752 182.861 161.752 182.861 161.752 182.86C161.751 182.859 161.75 182.855 161.75 182.849H161.25ZM164.233 179.114C162.921 179.834 161.26 180.728 161.25 182.848L161.75 182.851C161.759 181.062 163.117 180.297 164.474 179.552L164.233 179.114ZM164.242 179.109L164.233 179.114L164.474 179.552L164.483 179.547L164.242 179.109ZM164.991 178.701C164.733 178.835 164.476 178.978 164.24 179.11L164.484 179.546C164.72 179.414 164.971 179.275 165.221 179.145L164.991 178.701ZM164.169 176.974C164.169 177.767 164.444 178.5 164.911 179.08L165.301 178.766C164.902 178.273 164.669 177.65 164.669 176.974H164.169ZM164.188 176.615C164.179 176.726 164.169 176.849 164.169 176.974H164.669C164.669 176.873 164.677 176.771 164.687 176.656L164.188 176.615ZM164.189 176.613L164.189 176.613L164.687 176.658L164.687 176.657L164.189 176.613ZM164.243 176.794L164.255 176.806L164.62 176.464L164.608 176.451L164.243 176.794ZM162.695 174.923C162.862 175.216 163.18 175.608 163.481 175.955C163.786 176.307 164.091 176.632 164.243 176.794L164.608 176.451C164.456 176.289 164.157 175.971 163.859 175.628C163.556 175.279 163.269 174.921 163.13 174.676L162.695 174.923ZM163.361 171.072C162.325 172.467 162.051 173.783 162.695 174.922L163.13 174.676C162.625 173.782 162.784 172.688 163.763 171.371L163.361 171.072ZM167.168 167.949C166.466 168.235 164.844 169.079 163.361 171.072L163.763 171.371C165.18 169.466 166.721 168.672 167.357 168.412L167.168 167.949ZM166.683 166.853C166.683 167.376 166.816 167.867 167.041 168.296L167.484 168.064C167.294 167.702 167.183 167.29 167.183 166.853H166.683ZM169.785 163.75C168.075 163.75 166.683 165.142 166.683 166.853H167.183C167.183 165.419 168.351 164.25 169.785 164.25V163.75ZM172.888 166.853C172.888 165.142 171.496 163.75 169.785 163.75V164.25C171.22 164.25 172.388 165.419 172.388 166.853H172.888ZM172.683 167.961C172.817 167.62 172.888 167.241 172.888 166.853H172.388C172.388 167.18 172.328 167.498 172.217 167.778L172.683 167.961ZM169.776 164.777C170.918 164.777 171.852 165.71 171.852 166.853H172.352C172.352 165.434 171.195 164.277 169.776 164.277V164.777ZM167.7 166.855C167.709 165.709 168.635 164.777 169.776 164.777V164.277C168.356 164.277 167.211 165.436 167.2 166.851L167.7 166.855ZM169.776 168.928C168.634 168.928 167.7 167.995 167.7 166.853H167.2C167.2 168.271 168.357 169.428 169.776 169.428V168.928ZM171.852 166.853C171.852 167.995 170.918 168.928 169.776 168.928V169.428C171.195 169.428 172.352 168.271 172.352 166.853H171.852ZM172.103 176.612L171.039 178.42L171.47 178.673L172.534 176.866L172.103 176.612ZM170.595 176.989H172.318V176.489H170.595V176.989ZM170.855 176.965C170.855 176.892 170.855 176.801 170.843 176.708L170.347 176.77C170.354 176.827 170.355 176.887 170.355 176.965H170.855ZM170.315 178.787C170.661 178.257 170.855 177.635 170.855 176.965H170.355C170.355 177.537 170.19 178.064 169.896 178.513L170.315 178.787ZM170.389 178.486C170.325 178.463 170.258 178.439 170.188 178.414L170.023 178.886C170.09 178.909 170.154 178.933 170.218 178.956L170.389 178.486ZM170.689 178.59C170.599 178.562 170.501 178.527 170.389 178.486L170.218 178.956C170.328 178.996 170.437 179.036 170.539 179.068L170.689 178.59ZM171.021 178.455C171.014 178.469 170.984 178.526 170.93 178.568C170.905 178.587 170.877 178.601 170.844 178.607C170.812 178.614 170.763 178.615 170.691 178.591L170.536 179.067C170.836 179.164 171.073 179.089 171.234 178.965C171.383 178.851 171.453 178.707 171.468 178.678L171.021 178.455ZM171.021 178.454L171.021 178.455L171.468 178.678L171.468 178.677L171.021 178.454ZM171.004 178.547C171.004 178.508 171.014 178.478 171.021 178.461C171.028 178.442 171.036 178.429 171.041 178.421C171.047 178.412 171.052 178.406 171.056 178.401C171.059 178.399 171.061 178.396 171.062 178.394C171.063 178.393 171.064 178.392 171.065 178.391C171.066 178.391 171.066 178.39 171.067 178.39C171.067 178.39 171.067 178.39 171.067 178.389C171.067 178.389 171.068 178.389 171.068 178.389C171.068 178.389 171.068 178.389 171.068 178.389C171.068 178.389 171.068 178.389 171.068 178.389C171.068 178.389 171.068 178.389 171.245 178.565C171.422 178.742 171.422 178.742 171.422 178.742C171.422 178.742 171.422 178.742 171.422 178.742C171.422 178.742 171.422 178.742 171.422 178.742C171.422 178.742 171.422 178.742 171.422 178.741C171.422 178.741 171.423 178.741 171.423 178.741C171.423 178.74 171.424 178.74 171.425 178.739C171.426 178.738 171.427 178.737 171.428 178.736C171.43 178.733 171.433 178.73 171.436 178.726C171.442 178.72 171.449 178.71 171.457 178.698C171.468 178.682 171.504 178.626 171.504 178.547H171.004ZM167.507 179.295C166.224 179.295 165.187 178.249 165.187 176.974H164.687C164.687 178.524 165.947 179.795 167.507 179.795V179.295ZM169.827 176.976C169.836 178.248 168.791 179.295 167.507 179.295V179.795C169.066 179.795 170.338 178.525 170.327 176.973L169.827 176.976ZM167.507 174.654C168.79 174.654 169.827 175.699 169.827 176.974H170.327C170.327 175.424 169.067 174.154 167.507 174.154V174.654ZM165.187 176.974C165.187 175.691 166.232 174.654 167.507 174.654V174.154C165.957 174.154 164.687 175.414 164.687 176.974H165.187ZM174.512 173.74H174.493V174.24H174.512V173.74ZM175.217 173.893C174.998 173.795 174.756 173.74 174.512 173.74V174.24C174.682 174.24 174.854 174.278 175.012 174.349L175.217 173.893ZM173.138 171.943C173.547 172.107 173.863 172.301 174.133 172.625C174.407 172.953 174.649 173.432 174.875 174.193L175.354 174.05C175.118 173.257 174.852 172.705 174.517 172.304C174.177 171.898 173.782 171.663 173.325 171.479L173.138 171.943ZM172.86 171.944C172.909 171.905 172.975 171.879 173.14 171.944L173.322 171.478C173.055 171.374 172.782 171.366 172.548 171.554L172.86 171.944ZM172.557 174.091C172.479 173.461 172.499 172.959 172.572 172.592C172.646 172.214 172.769 172.017 172.86 171.945L172.549 171.553C172.319 171.735 172.164 172.075 172.081 172.495C171.996 172.926 171.978 173.483 172.061 174.152L172.557 174.091ZM174.478 173.74L172.294 173.872L172.324 174.371L174.508 174.239L174.478 173.74ZM176.741 175.74C176.733 175.742 176.722 175.743 176.708 175.744C176.693 175.745 176.678 175.745 176.659 175.745V176.245C176.694 176.245 176.765 176.246 176.839 176.231L176.741 175.74ZM177.091 175.204C177.141 175.467 176.981 175.692 176.741 175.74L176.839 176.231C177.353 176.128 177.683 175.638 177.582 175.11L177.091 175.204ZM172.132 168.58C172.828 168.792 173.865 169.251 174.827 170.249C175.788 171.245 176.688 172.791 177.09 175.198L177.583 175.116C177.166 172.618 176.225 170.977 175.187 169.902C174.151 168.828 173.033 168.332 172.278 168.101L172.132 168.58ZM169.776 169.956C170.893 169.956 171.876 169.361 172.419 168.47L171.992 168.21C171.536 168.958 170.712 169.456 169.776 169.456V169.956ZM167.36 168.79C167.931 169.494 168.801 169.956 169.776 169.956V169.456C168.962 169.456 168.232 169.07 167.748 168.475L167.36 168.79ZM164.187 171.681C165.592 169.78 167.167 169.051 167.645 168.865L167.463 168.399C166.924 168.609 165.261 169.386 163.785 171.384L164.187 171.681ZM163.581 174.402C163.194 173.723 163.332 172.829 164.186 171.681L163.785 171.383C162.888 172.589 162.611 173.71 163.147 174.65L163.581 174.402ZM164.745 175.827C164.557 175.62 164.315 175.352 164.093 175.089C163.868 174.822 163.678 174.574 163.582 174.404L163.146 174.649C163.267 174.864 163.486 175.144 163.711 175.411C163.939 175.682 164.187 175.956 164.375 176.163L164.745 175.827ZM165.053 174.678C164.73 175.031 164.475 175.448 164.322 175.918L164.798 176.073C164.927 175.676 165.143 175.321 165.422 175.015L165.053 174.678ZM164.916 172.751C164.825 172.889 164.652 173.19 164.605 173.59C164.556 174 164.641 174.495 165.042 175.002L165.434 174.691C165.119 174.294 165.068 173.933 165.101 173.65C165.136 173.358 165.264 173.132 165.334 173.025L164.916 172.751ZM165.805 171.591C165.771 171.624 165.319 172.146 164.917 172.749L165.333 173.027C165.525 172.738 165.73 172.468 165.89 172.268C166.054 172.063 166.161 171.942 166.158 171.944L165.805 171.591ZM166.518 171.547C166.307 171.371 165.979 171.381 165.79 171.608L166.174 171.928C166.174 171.927 166.175 171.926 166.175 171.926C166.176 171.926 166.177 171.925 166.18 171.925C166.186 171.925 166.192 171.927 166.198 171.931L166.518 171.547ZM166.579 172.276C166.754 172.065 166.745 171.736 166.518 171.547L166.198 171.931C166.199 171.932 166.199 171.933 166.2 171.933C166.2 171.934 166.2 171.935 166.201 171.938C166.201 171.943 166.199 171.95 166.194 171.956L166.579 172.276ZM165.775 173.328C166.146 172.773 166.569 172.287 166.563 172.293L166.21 171.939C166.186 171.963 165.742 172.476 165.359 173.051L165.775 173.328ZM165.833 174.339C165.655 174.101 165.616 173.899 165.627 173.74C165.639 173.574 165.706 173.432 165.775 173.328L165.359 173.051C165.259 173.201 165.148 173.426 165.128 173.705C165.109 173.991 165.187 174.311 165.433 174.639L165.833 174.339ZM167.507 173.608C166.744 173.608 166.042 173.862 165.482 174.29L165.785 174.687C166.261 174.324 166.857 174.108 167.507 174.108V173.608ZM169.258 174.107C168.749 173.791 168.148 173.608 167.507 173.608V174.108C168.052 174.108 168.562 174.263 168.995 174.532L169.258 174.107ZM171.766 173.91L169.111 174.07L169.141 174.569L171.796 174.409L171.766 173.91ZM172.229 171.138C171.897 171.4 171.687 171.832 171.577 172.345C171.466 172.862 171.451 173.491 171.533 174.188L172.03 174.13C171.952 173.471 171.97 172.899 172.066 172.45C172.163 171.995 172.334 171.692 172.539 171.531L172.229 171.138ZM173.531 170.989C172.934 170.753 172.494 170.934 172.231 171.137L172.537 171.532C172.689 171.415 172.945 171.295 173.346 171.454L173.531 170.989ZM176.217 175.382C175.961 174.067 175.675 173.123 175.258 172.431C174.834 171.726 174.282 171.295 173.533 170.99L173.344 171.453C174.007 171.723 174.468 172.087 174.83 172.689C175.199 173.303 175.473 174.176 175.726 175.478L176.217 175.382ZM176.659 175.745C176.448 175.745 176.259 175.593 176.216 175.381L175.726 175.479C175.815 175.926 176.21 176.245 176.659 176.245V175.745ZM179.437 177.448C179.493 177.456 179.536 177.485 179.562 177.523L179.972 177.236C179.866 177.086 179.702 176.983 179.513 176.954L179.437 177.448ZM179.214 177.606C179.23 177.502 179.324 177.43 179.437 177.448L179.513 176.954C179.137 176.896 178.779 177.144 178.72 177.53L179.214 177.606ZM179.247 177.754C179.218 177.713 179.205 177.657 179.213 177.609L178.72 177.527C178.69 177.705 178.734 177.894 178.837 178.041L179.247 177.754ZM179.372 177.829C179.316 177.821 179.273 177.792 179.247 177.754L178.837 178.041C178.943 178.192 179.107 178.294 179.296 178.324L179.372 177.829ZM179.416 177.836C179.412 177.835 179.373 177.826 179.334 177.826V178.326C179.326 178.326 179.32 178.326 179.317 178.326C179.313 178.325 179.311 178.325 179.31 178.325C179.31 178.325 179.31 178.325 179.311 178.325C179.313 178.325 179.315 178.326 179.318 178.326L179.416 177.836ZM179.4 177.836C179.408 177.836 179.413 177.836 179.417 177.837C179.42 177.837 179.423 177.837 179.423 177.837C179.424 177.838 179.424 177.837 179.422 177.837C179.421 177.837 179.419 177.837 179.416 177.836L179.318 178.326C179.321 178.327 179.36 178.336 179.4 178.336V177.836ZM179.585 177.677C179.573 177.765 179.494 177.836 179.4 177.836V178.336C179.738 178.336 180.036 178.086 180.081 177.742L179.585 177.677ZM179.562 177.523C179.591 177.565 179.6 177.606 179.589 177.653L180.076 177.765C180.122 177.568 180.075 177.383 179.972 177.236L179.562 177.523ZM178.216 179.872C177.839 179.814 177.482 180.062 177.422 180.448L177.917 180.524C177.933 180.42 178.027 180.348 178.14 180.366L178.216 179.872ZM178.792 180.665C178.851 180.284 178.588 179.931 178.217 179.872L178.138 180.366C178.239 180.382 178.315 180.481 178.298 180.589L178.792 180.665ZM178.51 181.124C178.66 181.018 178.763 180.854 178.792 180.665L178.298 180.589C178.289 180.645 178.261 180.688 178.223 180.714L178.51 181.124ZM178.103 181.254C178.253 181.254 178.385 181.207 178.505 181.127L178.228 180.711C178.178 180.744 178.141 180.754 178.103 180.754V181.254ZM178.021 181.244C178.024 181.245 178.063 181.254 178.103 181.254V180.754C178.11 180.754 178.116 180.754 178.12 180.755C178.123 180.755 178.125 180.755 178.126 180.755C178.127 180.755 178.127 180.755 178.125 180.755C178.124 180.755 178.122 180.755 178.119 180.754L178.021 181.244ZM178.037 181.244C178.029 181.244 178.023 181.244 178.02 181.244C178.016 181.243 178.014 181.243 178.013 181.243C178.013 181.243 178.013 181.243 178.014 181.243C178.016 181.243 178.018 181.244 178.021 181.244L178.119 180.754C178.115 180.753 178.076 180.744 178.037 180.744V181.244ZM177.422 180.448C177.365 180.824 177.613 181.182 177.999 181.241L178.075 180.747C177.971 180.731 177.899 180.637 177.917 180.524L177.422 180.448ZM175.763 181.633C175.386 181.575 175.029 181.824 174.969 182.21L175.464 182.286C175.479 182.182 175.574 182.11 175.687 182.128L175.763 181.633ZM176.328 182.436C176.402 182.052 176.148 181.693 175.763 181.633L175.687 182.128C175.792 182.144 175.857 182.236 175.837 182.342L176.328 182.436ZM175.65 183.016C175.988 183.016 176.286 182.766 176.331 182.421L175.835 182.357C175.823 182.445 175.744 182.516 175.65 182.516V183.016ZM175.567 183.006C175.571 183.007 175.61 183.016 175.65 183.016V182.516C175.657 182.516 175.663 182.516 175.667 182.516C175.67 182.517 175.672 182.517 175.673 182.517C175.674 182.517 175.673 182.517 175.672 182.517C175.671 182.517 175.669 182.516 175.666 182.516L175.567 183.006ZM175.584 183.006C175.576 183.006 175.57 183.006 175.567 183.005C175.563 183.005 175.561 183.005 175.56 183.005C175.56 183.004 175.56 183.004 175.561 183.005C175.563 183.005 175.564 183.005 175.568 183.006L175.666 182.516C175.662 182.515 175.623 182.506 175.584 182.506V183.006ZM174.969 182.21C174.911 182.586 175.16 182.944 175.546 183.003L175.622 182.509C175.518 182.493 175.446 182.399 175.464 182.286L174.969 182.21Z" fill="#023047"/>
<path fill-rule="evenodd" clip-rule="evenodd" d="M615.436 86.0796C615.038 86.2318 614.686 86.7131 614.686 87.1036C614.686 87.1951 614.672 87.23 614.64 87.2165C614.614 87.2057 614.502 87.1686 614.39 87.1341C613.862 86.9707 613.265 87.2357 613.015 87.7443L612.91 87.9581L612.899 89.231C612.888 90.4395 612.891 90.5083 612.96 90.5924C613.059 90.7145 613.284 90.7156 613.382 90.5946C613.447 90.5143 613.452 90.4257 613.452 89.3347C613.452 88.0367 613.457 88.0038 613.685 87.8038C613.841 87.6675 614.032 87.6226 614.229 87.6757C614.387 87.7183 614.586 87.9027 614.647 88.0633C614.674 88.1344 614.686 89.2005 614.686 91.361V94.5536L614.778 94.6453C614.895 94.7621 615.039 94.7621 615.156 94.6453L615.247 94.5536V90.8042V87.0548L615.333 86.8922C615.431 86.7078 615.669 86.5575 615.864 86.5575C616.059 86.5575 616.298 86.7078 616.395 86.8922L616.481 87.0548V91.0009C616.481 94.9205 616.482 94.9475 616.558 95.0287C616.658 95.1363 616.869 95.1393 616.959 95.0346C617.019 94.9639 617.025 94.7115 617.042 91.3958C617.061 87.8537 617.062 87.8322 617.139 87.7274C617.414 87.3566 617.904 87.3566 618.18 87.7274C618.256 87.8311 618.258 87.8714 618.276 90.2005C618.297 92.8441 618.281 92.6977 618.557 92.6977C618.825 92.6977 618.817 92.7457 618.837 91.0445L618.856 89.5209L618.961 89.3837C619.097 89.205 619.24 89.1346 619.466 89.1346C619.701 89.1346 619.874 89.2462 619.987 89.4696L620.071 89.636L620.071 92.8868C620.071 94.7217 620.055 96.3653 620.033 96.6604C619.891 98.6157 619.513 100.227 618.987 101.123C618.908 101.257 618.733 101.489 618.597 101.638C618.11 102.177 618.052 102.39 618.052 103.634V104.56H615.699H613.346L613.332 103.467C613.318 102.448 613.311 102.357 613.231 102.113C613.099 101.715 612.883 101.315 612.624 100.989C612.347 100.641 612.034 100.177 611.793 99.7553C611.589 99.4001 611.476 99.3247 611.292 99.4199C611.056 99.5417 611.076 99.6692 611.425 100.248C611.718 100.735 611.907 101.008 612.213 101.384C612.305 101.497 612.444 101.724 612.523 101.889C612.753 102.366 612.778 102.556 612.779 103.824L612.779 104.937L612.871 105.028L612.963 105.12H615.707H618.45L618.529 105.036C618.605 104.955 618.609 104.912 618.62 103.794L618.632 102.636L618.731 102.424C618.786 102.307 618.93 102.106 619.05 101.976C619.742 101.232 620.225 99.8647 620.479 97.9303C620.622 96.8399 620.638 96.3062 620.625 92.7948L620.614 89.4147L620.527 89.2395C620.407 88.9948 620.176 88.7708 619.929 88.6579C619.654 88.5321 619.276 88.5251 619.015 88.6409L618.837 88.7196V88.2989C618.837 87.7966 618.782 87.5829 618.584 87.3232C618.481 87.1883 618.371 87.1005 618.187 87.0068C617.966 86.8939 617.898 86.8772 617.665 86.8782C617.476 86.879 617.347 86.9022 617.225 86.957L617.052 87.0348L617.006 86.8802C616.805 86.1925 616.091 85.8285 615.436 86.0796ZM608.628 86.8942C607.492 87.4022 607.555 87.3679 607.508 87.5016C607.473 87.6033 607.528 87.7487 608.126 89.1303C608.488 89.9646 608.818 90.6767 608.859 90.7126C608.97 90.8077 609.064 90.793 609.365 90.6334L609.634 90.4907L610.108 91.2039C610.369 91.5962 610.617 91.955 610.659 92.0012C610.757 92.109 610.956 92.1136 611.059 92.0105C611.129 91.9407 611.134 91.889 611.13 91.2168C611.127 90.8214 611.115 90.0216 611.102 89.4394C611.078 88.3854 611.077 88.3806 610.989 88.3096C610.861 88.206 610.753 88.2203 610.395 88.388C610.219 88.4703 610.067 88.53 610.058 88.5206C610.048 88.5112 610.016 88.0951 609.986 87.5959C609.941 86.8447 609.92 86.6722 609.865 86.5949C609.741 86.4208 609.624 86.4491 608.628 86.8942ZM622.549 87.0898C622.431 87.2155 621.293 89.5806 621.293 89.6999C621.293 89.8457 621.357 89.9066 621.609 89.9982C621.73 90.0423 621.829 90.0971 621.829 90.1201C621.829 90.143 621.745 90.4559 621.642 90.8153C621.539 91.1748 621.455 91.5223 621.455 91.5876C621.455 91.725 621.598 91.8611 621.741 91.8611C621.805 91.8611 622.129 91.5966 622.868 90.9417C623.438 90.436 623.942 89.9813 623.989 89.9312C624.092 89.8196 624.1 89.6194 624.006 89.5341C623.969 89.5009 623.839 89.4295 623.716 89.3755C623.594 89.3214 623.486 89.2697 623.476 89.2606C623.467 89.2515 623.71 88.9937 624.015 88.6878C624.486 88.217 624.571 88.1142 624.571 88.0188C624.571 87.9568 624.551 87.882 624.527 87.8525C624.462 87.7739 622.818 87.0057 622.715 87.0057C622.667 87.0057 622.592 87.0435 622.549 87.0898ZM608.778 87.4544C608.459 87.5969 608.186 87.718 608.17 87.7237C608.145 87.733 609.116 90.0075 609.167 90.0582C609.178 90.0699 609.287 90.0266 609.409 89.9619C609.672 89.8217 609.82 89.8121 609.926 89.9283C609.968 89.9745 610.123 90.1944 610.272 90.417C610.42 90.6396 610.544 90.8161 610.548 90.8092C610.576 90.7538 610.525 88.9852 610.496 88.9852C610.476 88.9852 610.325 89.0525 610.161 89.1346C609.829 89.3016 609.724 89.3163 609.596 89.2135C609.513 89.1457 609.507 89.1099 609.459 88.2704C609.431 87.7905 609.397 87.3524 609.383 87.2967L609.357 87.1955L608.778 87.4544ZM622.418 88.5839C622.176 89.082 621.978 89.5007 621.978 89.5145C621.978 89.5282 622.063 89.5674 622.166 89.6015C622.37 89.6692 622.465 89.7704 622.465 89.9199C622.465 89.9728 622.423 90.1582 622.372 90.3317C622.321 90.5053 622.279 90.6604 622.279 90.6765C622.278 90.6926 622.497 90.5094 622.764 90.2695C623.031 90.0296 623.25 89.8227 623.25 89.8097C623.25 89.7966 623.163 89.7529 623.056 89.7124C622.781 89.6081 622.652 89.4913 622.651 89.3461C622.65 89.2425 622.719 89.1614 623.212 88.6834C623.521 88.3839 623.774 88.1291 623.774 88.1172C623.774 88.0954 622.925 87.6779 622.881 87.6782C622.868 87.6783 622.659 88.0859 622.418 88.5839ZM612.968 91.3453C612.893 91.4256 612.891 91.4644 612.891 93.6618V95.8967L612.795 95.9331C612.666 95.9822 612.382 95.9792 612.281 95.9275C612.117 95.8428 612.016 95.7122 611.56 94.9942C610.952 94.0347 610.743 93.8343 610.183 93.6717C609.908 93.5918 609.38 93.6087 609.2 93.703C609.028 93.7935 608.884 94.0003 608.863 94.1863C608.849 94.3127 608.889 94.4658 609.058 94.9424C609.615 96.5079 610.588 98.79 610.749 98.9107C610.841 98.9792 610.961 98.9678 611.073 98.88C611.218 98.7658 611.2 98.6194 610.987 98.1669C610.583 97.3114 609.989 95.8506 609.561 94.6569L609.416 94.2526L609.496 94.2101C609.607 94.1506 609.999 94.1884 610.201 94.278C610.292 94.3185 610.42 94.3962 610.484 94.4506C610.549 94.505 610.831 94.9101 611.112 95.3509C611.393 95.7917 611.677 96.1979 611.743 96.2536C611.809 96.3093 611.956 96.3978 612.069 96.4503C612.475 96.639 613.054 96.5485 613.349 96.2501L613.452 96.146V93.7865C613.452 91.4636 613.451 91.4257 613.376 91.3453C613.326 91.2919 613.255 91.2635 613.172 91.2635C613.088 91.2635 613.017 91.2919 612.968 91.3453ZM618.353 93.3621C618.28 93.4399 618.276 93.4894 618.276 94.3909V95.338L618.368 95.4296C618.419 95.48 618.504 95.5213 618.557 95.5213C618.61 95.5213 618.695 95.48 618.746 95.4296L618.837 95.338V94.3904C618.837 93.4482 618.837 93.4423 618.751 93.3616C618.637 93.2547 618.453 93.255 618.353 93.3621Z" fill="#023047" stroke="#023047" stroke-width="0.2"/>
<path fill-rule="evenodd" clip-rule="evenodd" d="M960.683 71.379C960.606 71.379 960.539 71.3404 960.481 71.2825C960.384 71.1765 960.394 71.0029 960.5 70.8968L966.112 66.0657C966.228 65.9693 966.401 65.979 966.498 66.0947C966.594 66.2104 966.585 66.384 966.469 66.4804L960.857 71.3115C960.809 71.3597 960.751 71.379 960.683 71.379ZM968.322 70.8381L973.857 66.0649C973.972 65.9684 974.146 65.9781 974.223 66.1034C974.319 66.2192 974.31 66.3927 974.194 66.4892L968.659 71.2624L968.003 74.6856L970.347 78.4366C970.742 79.0634 970.626 79.8734 970.067 80.3652L964.734 85.0516C964.677 85.0998 964.619 85.1191 964.551 85.1191C964.474 85.1191 964.407 85.0806 964.349 85.0227C964.252 84.907 964.262 84.7334 964.378 84.637L969.71 79.9506C970.067 79.6323 970.144 79.1213 969.893 78.7163L966.711 73.6152C966.576 73.4031 966.364 73.2488 966.113 73.1909C965.863 73.1331 965.612 73.1813 965.39 73.3163C964.937 73.5959 964.802 74.1938 965.082 74.647L967.647 78.7452C967.724 78.8706 967.685 79.0248 967.569 79.1116C967.551 79.1176 966.653 79.7356 965.749 80.3574C965.199 80.7351 964.648 81.1143 964.291 81.3584C963.433 81.9466 962.468 81.6091 962.083 81.4356C961.446 81.9563 960.627 82.2745 959.73 82.2745C958.64 82.2745 957.657 81.802 956.972 81.0498C956.73 81.1482 956.482 81.2525 956.242 81.3534L956.242 81.3534L956.046 81.4356C954.282 82.1877 954.108 83.2195 954.041 84.8395C954.031 84.9841 953.915 85.0998 953.771 85.0998H953.761C953.607 85.0998 953.491 84.9745 953.501 84.8202C953.568 83.152 953.79 81.8116 955.834 80.9341L955.935 80.8915C956.156 80.7976 956.391 80.6983 956.625 80.6063C956.229 80.0181 955.998 79.3045 955.998 78.5427C955.998 76.4888 957.676 74.8109 959.73 74.8109C961.784 74.8109 963.462 76.4888 963.462 78.5427C963.462 79.4973 963.105 80.3652 962.517 81.0209C962.883 81.1463 963.481 81.2523 963.992 80.9052C964.21 80.7556 964.5 80.5562 964.818 80.3376L964.821 80.3356L964.821 80.3356L964.822 80.3352C965.631 79.7793 966.62 79.1003 967.049 78.8031L964.628 74.9266C964.349 74.4831 964.329 73.9431 964.532 73.4995L964.117 73.027C963.876 72.7474 963.761 72.3809 963.789 72.0145C963.809 71.6481 963.982 71.3106 964.262 71.0695C964.31 71.0309 964.368 71.002 964.426 71.002L968.322 70.8381ZM959.73 75.3509C957.965 75.3509 956.538 76.7877 956.538 78.5427C956.538 80.3073 957.965 81.7345 959.73 81.7345C961.494 81.7345 962.922 80.2977 962.922 78.5427C962.922 76.7781 961.485 75.3509 959.73 75.3509ZM967.184 73.3356L967.598 74.0009L968.1 71.3877L964.561 71.5324C964.436 71.677 964.358 71.8602 964.339 72.0531C964.32 72.2845 964.397 72.4966 964.542 72.6702L964.86 73.0463C964.937 72.9788 965.024 72.9113 965.111 72.8534C965.448 72.6413 965.853 72.5738 966.248 72.6606C966.634 72.757 966.972 72.9981 967.184 73.3356ZM955.426 72.75C955.494 72.75 955.552 72.7308 955.6 72.6826L961.212 67.8515C961.328 67.7551 961.337 67.5815 961.241 67.4658C961.145 67.3501 960.971 67.3404 960.855 67.4368L955.243 72.2679C955.127 72.3643 955.118 72.5379 955.214 72.6536C955.272 72.7211 955.349 72.75 955.426 72.75ZM974.87 69.9233C974.985 69.933 975.101 69.9908 975.178 70.0776C975.255 70.1644 975.294 70.2801 975.284 70.4055C975.275 70.5212 975.217 70.6369 975.13 70.7141C975.043 70.7816 974.937 70.8201 974.831 70.8201H974.802C974.687 70.8105 974.571 70.7526 974.494 70.6658C974.33 70.4826 974.349 70.1933 974.542 70.0294C974.629 69.9523 974.744 69.9137 974.87 69.9233ZM972.703 71.6187C972.616 71.6958 972.558 71.8115 972.548 71.9273C972.539 72.0526 972.577 72.1683 972.654 72.2551C972.732 72.3419 972.847 72.3998 972.963 72.4094H972.992C973.098 72.4094 973.204 72.3708 973.291 72.3033C973.378 72.2262 973.435 72.1105 973.445 71.9948C973.455 71.8694 973.416 71.7537 973.339 71.6669C973.185 71.4741 972.895 71.4548 972.703 71.6187ZM970.878 73.2013C970.965 73.1241 971.09 73.0856 971.206 73.0952C971.321 73.1048 971.437 73.1531 971.514 73.2495C971.591 73.3363 971.63 73.452 971.62 73.5773C971.611 73.6931 971.553 73.8088 971.466 73.8859C971.379 73.9534 971.273 73.992 971.167 73.992H971.138C971.022 73.9824 970.907 73.9245 970.83 73.8377C970.666 73.6545 970.685 73.3652 970.878 73.2013Z" fill="#023047"/>
<path d="M960.481 71.2825L960.407 71.3499L960.41 71.3532L960.481 71.2825ZM960.5 70.8968L960.435 70.8208L960.429 70.8261L960.5 70.8968ZM966.112 66.0657L966.048 65.9889L966.047 65.99L966.112 66.0657ZM966.498 66.0947L966.421 66.1587L966.421 66.1587L966.498 66.0947ZM966.469 66.4804L966.405 66.4036L966.404 66.4046L966.469 66.4804ZM960.857 71.3115L960.791 71.2355L960.786 71.2407L960.857 71.3115ZM973.857 66.0649L973.793 65.988L973.791 65.9891L973.857 66.0649ZM968.322 70.8381L968.326 70.938L968.361 70.9365L968.387 70.9138L968.322 70.8381ZM974.223 66.1034L974.138 66.1559L974.142 66.162L974.146 66.1675L974.223 66.1034ZM974.194 66.4892L974.13 66.4123L974.129 66.4134L974.194 66.4892ZM968.659 71.2624L968.594 71.1866L968.567 71.2094L968.561 71.2435L968.659 71.2624ZM968.003 74.6856L967.905 74.6668L967.898 74.7053L967.919 74.7385L968.003 74.6856ZM970.347 78.4366L970.262 78.4896L970.262 78.49L970.347 78.4366ZM970.067 80.3652L970.133 80.4403L970.133 80.4403L970.067 80.3652ZM964.734 85.0516L964.799 85.1285L964.8 85.1267L964.734 85.0516ZM964.349 85.0227L964.272 85.087L964.278 85.0934L964.349 85.0227ZM964.378 84.637L964.442 84.7138L964.444 84.7121L964.378 84.637ZM969.71 79.9506L969.776 80.0257L969.777 80.0252L969.71 79.9506ZM969.893 78.7163L969.978 78.6636L969.978 78.6634L969.893 78.7163ZM966.711 73.6152L966.796 73.5623L966.796 73.5615L966.711 73.6152ZM966.113 73.1909L966.091 73.2884L966.091 73.2884L966.113 73.1909ZM965.39 73.3163L965.338 73.2309L965.338 73.2312L965.39 73.3163ZM965.082 74.647L964.997 74.6995L964.997 74.7L965.082 74.647ZM967.647 78.7452L967.732 78.6928L967.731 78.6921L967.647 78.7452ZM967.569 79.1116L967.601 79.2065L967.616 79.2014L967.629 79.1916L967.569 79.1116ZM965.749 80.3574L965.692 80.275L965.692 80.275L965.749 80.3574ZM964.291 81.3584L964.234 81.2759L964.234 81.2759L964.291 81.3584ZM962.083 81.4356L962.124 81.3444L962.067 81.319L962.019 81.3582L962.083 81.4356ZM956.972 81.0498L957.046 80.9825L956.999 80.9309L956.934 80.9572L956.972 81.0498ZM956.242 81.3534L956.279 81.4462L956.281 81.4455L956.242 81.3534ZM956.242 81.3534L956.205 81.2605L956.203 81.2612L956.242 81.3534ZM956.046 81.4356L956.008 81.3434L956.007 81.3436L956.046 81.4356ZM954.041 84.8395L954.14 84.8461L954.14 84.8436L954.041 84.8395ZM953.501 84.8202L953.6 84.8264L953.6 84.8242L953.501 84.8202ZM955.834 80.9341L955.795 80.8421L955.795 80.8422L955.834 80.9341ZM955.935 80.8915L955.974 80.9836L955.974 80.9836L955.935 80.8915ZM956.625 80.6063L956.661 80.6993L956.777 80.6538L956.708 80.5505L956.625 80.6063ZM962.517 81.0209L962.442 80.9541L962.341 81.0666L962.484 81.1155L962.517 81.0209ZM963.992 80.9052L964.048 80.9879L964.049 80.9876L963.992 80.9052ZM964.818 80.3376L964.875 80.42L964.875 80.42L964.818 80.3376ZM964.821 80.3356L964.767 80.2518L964.765 80.2532L964.821 80.3356ZM964.821 80.3356L964.876 80.4195L964.878 80.418L964.821 80.3356ZM964.822 80.3352L964.878 80.4177L964.878 80.4177L964.822 80.3352ZM967.049 78.8031L967.106 78.8852L967.184 78.8309L967.134 78.7501L967.049 78.8031ZM964.628 74.9266L964.713 74.8737L964.713 74.8733L964.628 74.9266ZM964.532 73.4995L964.623 73.541L964.65 73.4822L964.607 73.4335L964.532 73.4995ZM964.117 73.027L964.042 73.0923L964.042 73.093L964.117 73.027ZM963.789 72.0145L963.889 72.0224L963.889 72.0198L963.789 72.0145ZM964.262 71.0695L964.199 70.9914L964.197 70.9938L964.262 71.0695ZM964.426 71.002V71.1021L964.43 71.1019L964.426 71.002ZM967.598 74.0009L967.514 74.0538L967.649 74.2704L967.697 74.0198L967.598 74.0009ZM967.184 73.3356L967.269 73.2827L967.268 73.2824L967.184 73.3356ZM968.1 71.3877L968.198 71.4066L968.222 71.2827L968.096 71.2878L968.1 71.3877ZM964.561 71.5324L964.557 71.4324L964.514 71.4342L964.485 71.4669L964.561 71.5324ZM964.339 72.0531L964.24 72.0431L964.239 72.0448L964.339 72.0531ZM964.542 72.6702L964.465 72.7342L964.465 72.7348L964.542 72.6702ZM964.86 73.0463L964.783 73.1109L964.849 73.1885L964.926 73.1215L964.86 73.0463ZM965.111 72.8534L965.057 72.7687L965.055 72.7702L965.111 72.8534ZM966.248 72.6606L966.273 72.5635L966.27 72.5629L966.248 72.6606ZM955.6 72.6826L955.534 72.6066L955.529 72.6118L955.6 72.6826ZM961.212 67.8515L961.148 67.7746L961.147 67.7757L961.212 67.8515ZM960.855 67.4368L960.791 67.36L960.79 67.3611L960.855 67.4368ZM955.243 72.2679L955.307 72.3447L955.308 72.3437L955.243 72.2679ZM955.214 72.6536L955.137 72.7176L955.138 72.7187L955.214 72.6536ZM975.178 70.0776L975.253 70.0112L975.253 70.0112L975.178 70.0776ZM974.87 69.9233L974.878 69.8237L974.877 69.8236L974.87 69.9233ZM975.284 70.4055L975.384 70.4138L975.384 70.4131L975.284 70.4055ZM975.13 70.7141L975.192 70.7932L975.197 70.7888L975.13 70.7141ZM974.802 70.8201L974.794 70.9201H974.802V70.8201ZM974.494 70.6658L974.568 70.5994L974.568 70.5992L974.494 70.6658ZM974.542 70.0294L974.607 70.1056L974.608 70.1042L974.542 70.0294ZM972.548 71.9273L972.449 71.919L972.449 71.9196L972.548 71.9273ZM972.703 71.6187L972.638 71.5425L972.636 71.544L972.703 71.6187ZM972.654 72.2551L972.58 72.3216L972.58 72.3216L972.654 72.2551ZM972.963 72.4094L972.955 72.5094H972.963V72.4094ZM973.291 72.3033L973.352 72.3824L973.357 72.3781L973.291 72.3033ZM973.445 71.9948L973.545 72.0031L973.545 72.0024L973.445 71.9948ZM973.339 71.6669L973.261 71.7295L973.264 71.7333L973.339 71.6669ZM971.206 73.0952L971.214 72.9956L971.214 72.9956L971.206 73.0952ZM970.878 73.2013L970.943 73.2775L970.944 73.276L970.878 73.2013ZM971.514 73.2495L971.436 73.312L971.44 73.3159L971.514 73.2495ZM971.62 73.5773L971.72 73.5857L971.72 73.585L971.62 73.5773ZM971.466 73.8859L971.528 73.965L971.532 73.9607L971.466 73.8859ZM971.138 73.992L971.13 74.092H971.138V73.992ZM970.83 73.8377L970.904 73.7713L970.904 73.771L970.83 73.8377ZM960.41 71.3532C960.479 71.422 960.57 71.479 960.683 71.479V71.279C960.642 71.279 960.598 71.2588 960.551 71.2118L960.41 71.3532ZM960.429 70.8261C960.289 70.9662 960.271 71.2005 960.407 71.3498L960.555 71.2153C960.498 71.1524 960.499 71.0395 960.571 70.9675L960.429 70.8261ZM966.047 65.99L960.435 70.821L960.565 70.9726L966.177 66.1415L966.047 65.99ZM966.575 66.0307C966.44 65.8694 966.203 65.8598 966.048 65.9889L966.176 66.1426C966.253 66.0788 966.363 66.0885 966.421 66.1587L966.575 66.0307ZM966.533 66.5572C966.694 66.4228 966.704 66.1856 966.575 66.0307L966.421 66.1587C966.485 66.2352 966.475 66.3451 966.405 66.4036L966.533 66.5572ZM960.922 71.3872L966.534 66.5562L966.404 66.4046L960.792 71.2357L960.922 71.3872ZM960.683 71.479C960.772 71.479 960.857 71.4524 960.928 71.3822L960.786 71.2407C960.76 71.2669 960.729 71.279 960.683 71.279V71.479ZM973.791 65.9891L968.256 70.7623L968.387 70.9138L973.922 66.1406L973.791 65.9891ZM974.308 66.051C974.192 65.8615 973.943 65.8625 973.793 65.988L973.921 66.1417C974.001 66.0744 974.1 66.0946 974.138 66.1559L974.308 66.051ZM974.258 66.566C974.419 66.4316 974.429 66.1944 974.3 66.0394L974.146 66.1675C974.21 66.2439 974.2 66.3539 974.13 66.4123L974.258 66.566ZM968.724 71.3381L974.259 66.5649L974.129 66.4134L968.594 71.1866L968.724 71.3381ZM968.102 74.7044L968.757 71.2812L968.561 71.2435L967.905 74.6668L968.102 74.7044ZM970.431 78.3837L968.088 74.6326L967.919 74.7385L970.262 78.4896L970.431 78.3837ZM970.133 80.4403C970.729 79.9161 970.853 79.0516 970.431 78.3833L970.262 78.49C970.631 79.0752 970.523 79.8308 970.001 80.2901L970.133 80.4403ZM964.8 85.1267L970.133 80.4403L970.001 80.2901L964.668 84.9765L964.8 85.1267ZM964.551 85.2191C964.642 85.2191 964.722 85.1918 964.798 85.1284L964.67 84.9748C964.631 85.0079 964.596 85.0191 964.551 85.0191V85.2191ZM964.278 85.0934C964.347 85.1622 964.438 85.2191 964.551 85.2191V85.0191C964.51 85.0191 964.466 84.9989 964.419 84.952L964.278 85.0934ZM964.314 84.5602C964.152 84.6946 964.143 84.9318 964.272 85.0867L964.426 84.9587C964.362 84.8822 964.372 84.7723 964.442 84.7138L964.314 84.5602ZM969.644 79.8754L964.312 84.5619L964.444 84.7121L969.776 80.0257L969.644 79.8754ZM969.808 78.7689C970.033 79.132 969.965 79.5896 969.644 79.8759L969.777 80.0252C970.169 79.6751 970.255 79.1105 969.978 78.6636L969.808 78.7689ZM966.626 73.6681L969.809 78.7692L969.978 78.6634L966.796 73.5623L966.626 73.6681ZM966.091 73.2884C966.315 73.3402 966.506 73.4783 966.627 73.6689L966.796 73.5615C966.647 73.3278 966.413 73.1574 966.136 73.0935L966.091 73.2884ZM965.442 73.4017C965.644 73.279 965.868 73.2369 966.091 73.2884L966.136 73.0935C965.857 73.0292 965.58 73.0835 965.338 73.2309L965.442 73.4017ZM965.167 74.5945C964.915 74.1872 965.038 73.6514 965.443 73.4014L965.338 73.2312C964.836 73.5405 964.689 74.2003 964.997 74.6995L965.167 74.5945ZM967.731 78.6921L965.166 74.5939L964.997 74.7L967.562 78.7983L967.731 78.6921ZM967.629 79.1916C967.782 79.0772 967.839 78.8668 967.732 78.6928L967.561 78.7976C967.609 78.8743 967.588 78.9725 967.509 79.0316L967.629 79.1916ZM965.805 80.4398C966.257 80.1289 966.708 79.819 967.048 79.5861C967.218 79.4696 967.36 79.3725 967.461 79.3041C967.511 79.2699 967.551 79.243 967.579 79.2246C967.592 79.2154 967.603 79.2085 967.61 79.2039C967.614 79.2016 967.616 79.2002 967.617 79.1995C967.618 79.1992 967.617 79.1994 967.616 79.1999C967.616 79.2002 967.615 79.2009 967.613 79.2017C967.612 79.2022 967.607 79.2044 967.601 79.2065L967.538 79.0168C967.531 79.0189 967.526 79.0214 967.525 79.0221C967.523 79.0232 967.521 79.0241 967.52 79.0248C967.517 79.0261 967.515 79.0274 967.513 79.0284C967.51 79.0305 967.506 79.033 967.502 79.0357C967.493 79.0411 967.482 79.0487 967.468 79.0581C967.439 79.0771 967.399 79.1043 967.348 79.1386C967.247 79.2073 967.105 79.3046 966.935 79.4211C966.595 79.6541 966.144 79.9641 965.692 80.275L965.805 80.4398ZM964.347 81.441C964.705 81.1967 965.256 80.8175 965.805 80.4398L965.692 80.275C965.143 80.6527 964.591 81.0318 964.234 81.2759L964.347 81.441ZM962.042 81.5267C962.432 81.7023 963.442 82.0613 964.347 81.4409L964.234 81.2759C963.423 81.832 962.505 81.5159 962.124 81.3444L962.042 81.5267ZM959.73 82.3745C960.651 82.3745 961.492 82.0477 962.146 81.513L962.019 81.3582C961.4 81.8649 960.603 82.1745 959.73 82.1745V82.3745ZM956.898 81.1172C957.601 81.8891 958.611 82.3745 959.73 82.3745V82.1745C958.67 82.1745 957.713 81.7149 957.046 80.9825L956.898 81.1172ZM956.281 81.4455C956.521 81.3446 956.768 81.2406 957.01 81.1425L956.934 80.9572C956.692 81.0558 956.443 81.1603 956.203 81.2612L956.281 81.4455ZM956.279 81.4462L956.279 81.4462L956.205 81.2605L956.205 81.2605L956.279 81.4462ZM956.085 81.5278L956.281 81.4456L956.203 81.2612L956.008 81.3434L956.085 81.5278ZM954.14 84.8436C954.174 84.0323 954.235 83.3894 954.497 82.8562C954.756 82.3291 955.218 81.8972 956.085 81.5275L956.007 81.3436C955.11 81.7261 954.603 82.1861 954.317 82.768C954.034 83.3437 953.974 84.0267 953.941 84.8353L954.14 84.8436ZM953.771 85.1998C953.972 85.1998 954.127 85.0395 954.14 84.8461L953.941 84.8328C953.934 84.9287 953.859 84.9998 953.771 84.9998V85.1998ZM953.761 85.1998H953.771V84.9998H953.761V85.1998ZM953.401 84.814C953.388 85.0247 953.548 85.1998 953.761 85.1998V84.9998C953.665 84.9998 953.594 84.9243 953.6 84.8264L953.401 84.814ZM955.795 80.8422C954.755 81.2885 954.168 81.8578 953.836 82.5367C953.507 83.2106 953.434 83.9817 953.401 84.8161L953.6 84.8242C953.634 83.9905 953.707 83.2573 954.016 82.6246C954.323 81.9969 954.869 81.4573 955.874 81.026L955.795 80.8422ZM955.896 80.7995L955.795 80.8421L955.873 81.0262L955.974 80.9836L955.896 80.7995ZM956.588 80.5132C956.353 80.6058 956.117 80.7056 955.896 80.7995L955.974 80.9836C956.196 80.8896 956.429 80.7908 956.661 80.6993L956.588 80.5132ZM955.898 78.5427C955.898 79.3249 956.136 80.0578 956.542 80.6621L956.708 80.5505C956.323 79.9783 956.098 79.2841 956.098 78.5427H955.898ZM959.73 74.7109C957.621 74.7109 955.898 76.4336 955.898 78.5427H956.098C956.098 76.544 957.731 74.9109 959.73 74.9109V74.7109ZM963.562 78.5427C963.562 76.4336 961.839 74.7109 959.73 74.7109V74.9109C961.729 74.9109 963.362 76.544 963.362 78.5427H963.562ZM962.591 81.0877C963.195 80.4142 963.562 79.5228 963.562 78.5427H963.362C963.362 79.4719 963.014 80.3162 962.442 80.9541L962.591 81.0877ZM963.936 80.8225C963.465 81.1426 962.906 81.0485 962.549 80.9263L962.484 81.1155C962.86 81.2441 963.497 81.3621 964.048 80.9879L963.936 80.8225ZM964.762 80.2552C964.443 80.4737 964.153 80.6732 963.935 80.8228L964.049 80.9876C964.266 80.838 964.557 80.6386 964.875 80.42L964.762 80.2552ZM964.765 80.2532L964.762 80.2552L964.875 80.42L964.878 80.4181L964.765 80.2532ZM964.767 80.2517L964.767 80.2518L964.876 80.4195L964.876 80.4194L964.767 80.2517ZM964.765 80.2528L964.765 80.2531L964.878 80.418L964.878 80.4177L964.765 80.2528ZM966.992 78.7209C966.563 79.018 965.575 79.6967 964.765 80.2528L964.878 80.4177C965.688 79.8618 966.677 79.1827 967.106 78.8852L966.992 78.7209ZM964.544 74.9796L966.964 78.856L967.134 78.7501L964.713 74.8737L964.544 74.9796ZM964.441 73.458C964.225 73.9311 964.246 74.5068 964.544 74.98L964.713 74.8733C964.452 74.4593 964.434 73.9551 964.623 73.541L964.441 73.458ZM964.042 73.093L964.457 73.5655L964.607 73.4335L964.192 72.961L964.042 73.093ZM963.69 72.0066C963.659 72.3989 963.783 72.7919 964.042 73.0923L964.193 72.9617C963.97 72.7028 963.862 72.3629 963.889 72.0224L963.69 72.0066ZM964.197 70.9938C963.898 71.2516 963.71 71.6141 963.69 72.0093L963.889 72.0198C963.907 71.6821 964.067 71.3695 964.327 71.1452L964.197 70.9938ZM964.426 70.902C964.336 70.902 964.257 70.9457 964.2 70.9914L964.324 71.1476C964.364 71.1161 964.4 71.102 964.426 71.102V70.902ZM968.317 70.7382L964.422 70.9021L964.43 71.1019L968.326 70.938L968.317 70.7382ZM956.638 78.5427C956.638 76.8427 958.021 75.4509 959.73 75.4509V75.2509C957.91 75.2509 956.438 76.7327 956.438 78.5427H956.638ZM959.73 81.6345C958.02 81.6345 956.638 80.2521 956.638 78.5427H956.438C956.438 80.3626 957.91 81.8345 959.73 81.8345V81.6345ZM962.822 78.5427C962.822 80.2427 961.439 81.6345 959.73 81.6345V81.8345C961.55 81.8345 963.022 80.3527 963.022 78.5427H962.822ZM959.73 75.4509C961.43 75.4509 962.822 76.8335 962.822 78.5427H963.022C963.022 76.7226 961.54 75.2509 959.73 75.2509V75.4509ZM967.683 73.948L967.269 73.2827L967.099 73.3885L967.514 74.0538L967.683 73.948ZM968.002 71.3689L967.5 73.9821L967.697 74.0198L968.198 71.4066L968.002 71.3689ZM964.565 71.6323L968.104 71.4876L968.096 71.2878L964.557 71.4324L964.565 71.6323ZM964.439 72.063C964.456 71.89 964.525 71.7263 964.636 71.5979L964.485 71.4669C964.346 71.6277 964.261 71.8305 964.24 72.0431L964.439 72.063ZM964.618 72.6062C964.489 72.4506 964.422 72.2639 964.439 72.0614L964.239 72.0448C964.218 72.3051 964.305 72.5427 964.465 72.7342L964.618 72.6062ZM964.936 72.9817L964.618 72.6056L964.465 72.7348L964.783 73.1109L964.936 72.9817ZM965.055 72.7702C964.964 72.8308 964.874 72.901 964.794 72.971L964.926 73.1215C965 73.0566 965.083 72.9918 965.166 72.9366L965.055 72.7702ZM966.27 72.5629C965.85 72.4707 965.418 72.5423 965.057 72.7688L965.164 72.9381C965.478 72.7403 965.856 72.6769 966.227 72.7582L966.27 72.5629ZM967.268 73.2824C967.042 72.9226 966.683 72.6661 966.273 72.5636L966.224 72.7576C966.585 72.8479 966.901 73.0736 967.099 73.3888L967.268 73.2824ZM955.529 72.6118C955.503 72.638 955.472 72.65 955.426 72.65V72.85C955.515 72.85 955.6 72.8236 955.671 72.7533L955.529 72.6118ZM961.147 67.7757L955.535 72.6068L955.665 72.7583L961.277 67.9273L961.147 67.7757ZM961.164 67.5298C961.228 67.6063 961.218 67.7162 961.148 67.7747L961.276 67.9283C961.437 67.7939 961.447 67.5567 961.318 67.4017L961.164 67.5298ZM960.919 67.5137C960.996 67.4499 961.106 67.4596 961.164 67.5298L961.318 67.4017C961.183 67.2405 960.946 67.2309 960.791 67.36L960.919 67.5137ZM955.308 72.3437L960.92 67.5126L960.79 67.3611L955.178 72.1921L955.308 72.3437ZM955.291 72.5896C955.227 72.5131 955.237 72.4032 955.307 72.3447L955.179 72.1911C955.018 72.3255 955.008 72.5627 955.137 72.7176L955.291 72.5896ZM955.426 72.65C955.375 72.65 955.327 72.6315 955.29 72.5885L955.138 72.7187C955.217 72.8108 955.323 72.85 955.426 72.85V72.65ZM975.253 70.0112C975.159 69.9052 975.019 69.8355 974.878 69.8237L974.861 70.023C974.952 70.0305 975.044 70.0765 975.104 70.1441L975.253 70.0112ZM975.384 70.4131C975.396 70.2621 975.349 70.1193 975.253 70.0112L975.104 70.1441C975.162 70.2095 975.192 70.2981 975.185 70.3978L975.384 70.4131ZM975.197 70.7888C975.303 70.6946 975.372 70.5551 975.384 70.4138L975.185 70.3972C975.177 70.4873 975.131 70.5792 975.064 70.6393L975.197 70.7888ZM974.831 70.9201C974.961 70.9201 975.089 70.873 975.192 70.793L975.069 70.6351C974.998 70.6901 974.913 70.7201 974.831 70.7201V70.9201ZM974.802 70.9201H974.831V70.7201H974.802V70.9201ZM974.419 70.7323C974.513 70.8383 974.653 70.908 974.794 70.9198L974.811 70.7205C974.72 70.713 974.629 70.667 974.568 70.5994L974.419 70.7323ZM974.477 69.9532C974.242 70.153 974.217 70.5068 974.419 70.7325L974.568 70.5992C974.442 70.4585 974.456 70.2337 974.607 70.1056L974.477 69.9532ZM974.877 69.8236C974.726 69.812 974.584 69.8586 974.475 69.9547L974.608 70.1042C974.674 70.046 974.762 70.0154 974.862 70.023L974.877 69.8236ZM972.648 71.9356C972.655 71.8454 972.701 71.7535 972.769 71.6934L972.636 71.544C972.53 71.6382 972.46 71.7777 972.449 71.919L972.648 71.9356ZM972.729 72.1887C972.671 72.1232 972.64 72.0346 972.648 71.9349L972.449 71.9196C972.437 72.0706 972.484 72.2134 972.58 72.3216L972.729 72.1887ZM972.971 72.3097C972.881 72.3022 972.789 72.2563 972.729 72.1887L972.58 72.3216C972.674 72.4275 972.813 72.4973 972.955 72.5091L972.971 72.3097ZM972.992 72.3094H972.963V72.5094H972.992V72.3094ZM973.229 72.2244C973.159 72.2793 973.074 72.3094 972.992 72.3094V72.5094C973.122 72.5094 973.249 72.4623 973.352 72.3823L973.229 72.2244ZM973.345 71.9865C973.338 72.0766 973.292 72.1685 973.224 72.2286L973.357 72.3781C973.463 72.2839 973.533 72.1444 973.545 72.0031L973.345 71.9865ZM973.264 71.7333C973.322 71.7988 973.353 71.8874 973.345 71.9871L973.545 72.0024C973.556 71.8514 973.51 71.7086 973.414 71.6005L973.264 71.7333ZM972.767 71.6949C972.921 71.5646 973.145 71.584 973.261 71.7294L973.417 71.6044C973.225 71.3641 972.87 71.3449 972.638 71.5425L972.767 71.6949ZM971.214 72.9956C971.073 72.9838 970.92 73.03 970.811 73.1265L970.944 73.276C971.009 73.2183 971.107 73.1873 971.197 73.1949L971.214 72.9956ZM971.592 73.187C971.494 73.0644 971.35 73.0069 971.214 72.9956L971.197 73.1949C971.292 73.2028 971.38 73.2417 971.436 73.312L971.592 73.187ZM971.72 73.585C971.732 73.434 971.685 73.2912 971.589 73.1831L971.44 73.3159C971.498 73.3814 971.528 73.47 971.521 73.5697L971.72 73.585ZM971.532 73.9607C971.638 73.8665 971.708 73.727 971.72 73.5857L971.521 73.569C971.513 73.6592 971.467 73.7511 971.4 73.8112L971.532 73.9607ZM971.167 74.092C971.297 74.092 971.425 74.0449 971.527 73.9649L971.405 73.807C971.334 73.8619 971.249 73.892 971.167 73.892V74.092ZM971.138 74.092H971.167V73.892H971.138V74.092ZM970.755 73.9041C970.849 74.0101 970.989 74.0799 971.13 74.0916L971.147 73.8923C971.056 73.8848 970.964 73.8389 970.904 73.7713L970.755 73.9041ZM970.813 73.1251C970.578 73.3249 970.553 73.6786 970.755 73.9044L970.904 73.771C970.778 73.6304 970.792 73.4056 970.943 73.2775L970.813 73.1251Z" fill="#023047"/>
<path fill-rule="evenodd" clip-rule="evenodd" d="M1284.13 139.019H1277.97C1277.81 139.019 1277.7 138.878 1277.7 138.726C1277.7 138.574 1277.82 138.442 1277.98 138.442H1284.12C1284.26 137.074 1285.43 136 1286.83 136C1288.34 136 1289.57 137.226 1289.57 138.736C1289.57 139.03 1289.46 139.435 1289.3 140.002L1289.29 140.026C1289.04 140.925 1288.7 142.134 1288.6 143.66H1288.71C1289.19 143.66 1289.57 144.045 1289.57 144.521V145.595C1289.57 146.011 1289.28 146.355 1288.88 146.436C1288.75 147.45 1287.89 148.24 1286.83 148.24C1285.78 148.24 1284.92 147.45 1284.79 146.436C1284.39 146.355 1284.1 146.011 1284.1 145.595V144.521C1284.1 144.045 1284.48 143.66 1284.96 143.66H1285.07C1284.96 142.11 1284.63 140.904 1284.37 140.002C1284.36 139.954 1284.35 139.907 1284.33 139.862C1284.24 139.523 1284.17 139.252 1284.13 139.019ZM1285.37 146.447C1285.5 147.136 1286.1 147.652 1286.82 147.652C1287.55 147.652 1288.16 147.136 1288.29 146.447H1285.37ZM1288.99 145.585V144.511C1288.99 144.349 1288.86 144.217 1288.71 144.228H1284.96C1284.81 144.228 1284.68 144.349 1284.68 144.511V145.585C1284.68 145.737 1284.8 145.869 1284.96 145.869H1288.71C1288.86 145.869 1288.99 145.747 1288.99 145.585ZM1288.98 138.726C1288.98 137.54 1288.02 136.567 1286.82 136.567C1285.64 136.567 1284.67 137.54 1284.65 138.726C1284.65 138.949 1284.76 139.344 1284.9 139.84L1284.91 139.872C1285.15 140.753 1285.51 142.048 1285.62 143.65H1288.01C1288.12 142.049 1288.48 140.753 1288.72 139.872L1288.73 139.84C1288.74 139.813 1288.74 139.787 1288.75 139.761C1288.88 139.293 1288.98 138.937 1288.98 138.726ZM1295.98 150.773C1290.93 148.727 1282.72 148.727 1277.68 150.773C1277.54 150.834 1277.47 150.996 1277.52 151.148C1277.58 151.29 1277.74 151.361 1277.89 151.31C1282.82 149.314 1290.83 149.314 1295.75 151.31C1295.79 151.32 1295.83 151.331 1295.87 151.331C1295.98 151.331 1296.09 151.26 1296.13 151.148C1296.2 151.006 1296.13 150.834 1295.98 150.773ZM1289.48 154.094C1288.63 154.398 1287.74 154.55 1286.82 154.55C1285.92 154.55 1285.03 154.398 1284.17 154.094C1284.02 154.044 1283.86 154.115 1283.81 154.267C1283.75 154.419 1283.83 154.581 1283.98 154.631C1284.89 154.956 1285.84 155.118 1286.81 155.118C1287.79 155.118 1288.74 154.956 1289.65 154.631C1289.8 154.581 1289.87 154.419 1289.82 154.267C1289.79 154.125 1289.63 154.044 1289.48 154.094ZM1288.54 151.444C1287.99 151.636 1287.42 151.738 1286.83 151.738C1286.25 151.738 1285.68 151.647 1285.12 151.444C1284.97 151.393 1284.9 151.231 1284.95 151.079C1285 150.927 1285.16 150.856 1285.31 150.907C1286.29 151.251 1287.38 151.251 1288.35 150.907C1288.5 150.856 1288.66 150.927 1288.72 151.079C1288.77 151.231 1288.69 151.393 1288.54 151.444ZM1284.4 152.638C1284.35 152.79 1284.42 152.952 1284.57 153.002C1285.3 153.256 1286.06 153.387 1286.83 153.387C1287.6 153.387 1288.36 153.256 1289.09 153.002C1289.24 152.952 1289.31 152.79 1289.26 152.638C1289.21 152.486 1289.05 152.415 1288.9 152.465C1288.23 152.698 1287.54 152.82 1286.83 152.82C1286.12 152.82 1285.42 152.698 1284.76 152.465C1284.61 152.415 1284.45 152.486 1284.4 152.638Z" fill="#023047"/>
<path d="M1284.13 139.019L1284.23 139.004L1284.22 138.919H1284.13V139.019ZM1284.12 138.442V138.542H1284.21L1284.22 138.452L1284.12 138.442ZM1289.3 140.002L1289.2 139.975L1289.2 139.975L1289.3 140.002ZM1289.29 140.026L1289.39 140.053L1289.39 140.053L1289.29 140.026ZM1288.6 143.66L1288.5 143.654L1288.49 143.76H1288.6V143.66ZM1288.88 146.436L1288.86 146.339L1288.79 146.353L1288.78 146.424L1288.88 146.436ZM1284.79 146.436L1284.89 146.424L1284.88 146.353L1284.81 146.339L1284.79 146.436ZM1285.07 143.66V143.76H1285.18L1285.17 143.653L1285.07 143.66ZM1284.37 140.002L1284.28 140.029L1284.28 140.029L1284.37 140.002ZM1284.33 139.862L1284.43 139.835L1284.43 139.835L1284.33 139.862ZM1285.37 146.447V146.347H1285.24L1285.27 146.465L1285.37 146.447ZM1288.29 146.447L1288.39 146.465L1288.41 146.347H1288.29V146.447ZM1288.71 144.228V144.328L1288.72 144.327L1288.71 144.228ZM1284.65 138.726L1284.55 138.724V138.726H1284.65ZM1284.9 139.84L1285 139.814L1285 139.813L1284.9 139.84ZM1284.91 139.872L1284.81 139.899L1284.81 139.899L1284.91 139.872ZM1285.62 143.65L1285.52 143.657L1285.53 143.75H1285.62V143.65ZM1288.01 143.65V143.75H1288.1L1288.11 143.657L1288.01 143.65ZM1288.72 139.872L1288.82 139.899L1288.82 139.899L1288.72 139.872ZM1288.73 139.84L1288.63 139.813L1288.63 139.814L1288.73 139.84ZM1288.75 139.761L1288.85 139.788L1288.85 139.788L1288.75 139.761ZM1277.68 150.773L1277.64 150.681L1277.64 150.681L1277.68 150.773ZM1295.98 150.773L1295.94 150.866L1295.94 150.866L1295.98 150.773ZM1277.52 151.148L1277.42 151.18L1277.42 151.188L1277.52 151.148ZM1277.89 151.31L1277.92 151.405L1277.93 151.403L1277.89 151.31ZM1295.75 151.31L1295.72 151.403L1295.72 151.405L1295.75 151.31ZM1296.13 151.148L1296.04 151.103L1296.04 151.114L1296.13 151.148ZM1289.48 154.094L1289.45 153.999L1289.45 154L1289.48 154.094ZM1284.17 154.094L1284.2 154L1284.2 153.999L1284.17 154.094ZM1283.98 154.631L1284.01 154.537L1284.01 154.536L1283.98 154.631ZM1289.65 154.631L1289.62 154.536L1289.62 154.537L1289.65 154.631ZM1289.82 154.267L1289.73 154.288L1289.73 154.298L1289.82 154.267ZM1288.54 151.444L1288.51 151.349L1288.51 151.349L1288.54 151.444ZM1285.12 151.444L1285.15 151.35L1285.15 151.349L1285.12 151.444ZM1285.31 150.907L1285.34 150.812L1285.34 150.812L1285.31 150.907ZM1288.35 150.907L1288.32 150.812L1288.32 150.813L1288.35 150.907ZM1288.72 151.079L1288.81 151.047L1288.81 151.047L1288.72 151.079ZM1284.57 153.002L1284.6 152.908L1284.6 152.908L1284.57 153.002ZM1289.09 153.002L1289.06 152.908L1289.06 152.908L1289.09 153.002ZM1289.26 152.638L1289.36 152.606L1289.36 152.606L1289.26 152.638ZM1288.9 152.465L1288.87 152.371L1288.86 152.371L1288.9 152.465ZM1284.76 152.465L1284.8 152.371L1284.8 152.371L1284.76 152.465ZM1277.97 139.119H1284.13V138.919H1277.97V139.119ZM1277.6 138.726C1277.6 138.921 1277.74 139.119 1277.97 139.119V138.919C1277.87 138.919 1277.8 138.834 1277.8 138.726H1277.6ZM1277.98 138.342C1277.76 138.342 1277.6 138.521 1277.6 138.726H1277.8C1277.8 138.627 1277.87 138.542 1277.98 138.542V138.342ZM1284.12 138.342H1277.98V138.542H1284.12V138.342ZM1286.83 135.9C1285.37 135.9 1284.17 137.013 1284.02 138.432L1284.22 138.452C1284.36 137.135 1285.48 136.1 1286.83 136.1V135.9ZM1289.67 138.736C1289.67 137.171 1288.4 135.9 1286.83 135.9V136.1C1288.29 136.1 1289.47 137.281 1289.47 138.736H1289.67ZM1289.39 140.03C1289.55 139.468 1289.67 139.047 1289.67 138.736H1289.47C1289.47 139.012 1289.36 139.402 1289.2 139.975L1289.39 140.03ZM1289.39 140.053L1289.39 140.029L1289.2 139.975L1289.19 139.999L1289.39 140.053ZM1288.7 143.667C1288.8 142.151 1289.13 140.952 1289.39 140.053L1289.19 139.999C1288.94 140.899 1288.6 142.116 1288.5 143.654L1288.7 143.667ZM1288.71 143.56H1288.6V143.76H1288.71V143.56ZM1289.67 144.521C1289.67 143.99 1289.24 143.56 1288.71 143.56V143.76C1289.13 143.76 1289.47 144.1 1289.47 144.521H1289.67ZM1289.67 145.595V144.521H1289.47V145.595H1289.67ZM1288.9 146.534C1289.34 146.444 1289.67 146.06 1289.67 145.595H1289.47C1289.47 145.962 1289.21 146.267 1288.86 146.339L1288.9 146.534ZM1286.83 148.34C1287.94 148.34 1288.84 147.511 1288.98 146.449L1288.78 146.424C1288.66 147.388 1287.84 148.14 1286.83 148.14V148.34ZM1284.69 146.449C1284.83 147.511 1285.73 148.34 1286.83 148.34V148.14C1285.83 148.14 1285.01 147.388 1284.89 146.424L1284.69 146.449ZM1284 145.595C1284 146.06 1284.33 146.444 1284.77 146.534L1284.81 146.339C1284.46 146.267 1284.2 145.962 1284.2 145.595H1284ZM1284 144.521V145.595H1284.2V144.521H1284ZM1284.96 143.56C1284.43 143.56 1284 143.99 1284 144.521H1284.2C1284.2 144.1 1284.54 143.76 1284.96 143.76V143.56ZM1285.07 143.56H1284.96V143.76H1285.07V143.56ZM1284.28 140.029C1284.53 140.93 1284.86 142.128 1284.97 143.667L1285.17 143.653C1285.06 142.092 1284.72 140.878 1284.47 139.975L1284.28 140.029ZM1284.24 139.888C1284.25 139.934 1284.26 139.981 1284.28 140.029L1284.47 139.976C1284.46 139.928 1284.44 139.881 1284.43 139.835L1284.24 139.888ZM1284.03 139.035C1284.07 139.274 1284.14 139.552 1284.24 139.888L1284.43 139.835C1284.34 139.494 1284.26 139.229 1284.23 139.004L1284.03 139.035ZM1286.82 147.552C1286.14 147.552 1285.59 147.071 1285.46 146.428L1285.27 146.465C1285.41 147.2 1286.05 147.752 1286.82 147.752V147.552ZM1288.2 146.428C1288.07 147.07 1287.51 147.552 1286.82 147.552V147.752C1287.6 147.752 1288.25 147.201 1288.39 146.465L1288.2 146.428ZM1285.37 146.547H1288.29V146.347H1285.37V146.547ZM1288.89 144.511V145.585H1289.09V144.511H1288.89ZM1288.72 144.327C1288.8 144.321 1288.89 144.4 1288.89 144.511H1289.09C1289.09 144.298 1288.92 144.113 1288.7 144.128L1288.72 144.327ZM1284.96 144.328H1288.71V144.128H1284.96V144.328ZM1284.78 144.511C1284.78 144.407 1284.86 144.328 1284.96 144.328V144.128C1284.76 144.128 1284.58 144.292 1284.58 144.511H1284.78ZM1284.78 145.585V144.511H1284.58V145.585H1284.78ZM1284.96 145.769C1284.86 145.769 1284.78 145.684 1284.78 145.585H1284.58C1284.58 145.79 1284.74 145.969 1284.96 145.969V145.769ZM1288.71 145.769H1284.96V145.969H1288.71V145.769ZM1288.89 145.585C1288.89 145.69 1288.81 145.769 1288.71 145.769V145.969C1288.91 145.969 1289.09 145.805 1289.09 145.585H1288.89ZM1286.82 136.667C1287.96 136.667 1288.88 137.595 1288.88 138.726H1289.08C1289.08 137.485 1288.08 136.467 1286.82 136.467V136.667ZM1284.75 138.727C1284.77 137.595 1285.69 136.667 1286.82 136.667V136.467C1285.58 136.467 1284.57 137.485 1284.55 138.724L1284.75 138.727ZM1285 139.813C1284.92 139.564 1284.86 139.343 1284.82 139.157C1284.77 138.969 1284.75 138.824 1284.75 138.726H1284.55C1284.55 138.85 1284.58 139.015 1284.62 139.204C1284.67 139.395 1284.73 139.62 1284.8 139.868L1285 139.813ZM1285 139.846L1285 139.814L1284.8 139.867L1284.81 139.899L1285 139.846ZM1285.72 143.643C1285.61 142.031 1285.25 140.727 1285 139.846L1284.81 139.899C1285.05 140.779 1285.41 142.066 1285.52 143.657L1285.72 143.643ZM1288.01 143.55H1285.62V143.75H1288.01V143.55ZM1288.62 139.846C1288.38 140.727 1288.02 142.031 1287.91 143.643L1288.11 143.657C1288.22 142.066 1288.57 140.78 1288.82 139.899L1288.62 139.846ZM1288.63 139.814L1288.62 139.846L1288.82 139.899L1288.83 139.867L1288.63 139.814ZM1288.66 139.734C1288.65 139.76 1288.64 139.786 1288.63 139.813L1288.83 139.867C1288.83 139.84 1288.84 139.814 1288.85 139.788L1288.66 139.734ZM1288.88 138.726C1288.88 138.819 1288.86 138.951 1288.82 139.124C1288.78 139.295 1288.72 139.499 1288.66 139.734L1288.85 139.788C1288.91 139.555 1288.97 139.346 1289.01 139.17C1289.06 138.995 1289.08 138.844 1289.08 138.726H1288.88ZM1277.72 150.866C1280.22 149.849 1283.52 149.338 1286.83 149.338C1290.13 149.338 1293.43 149.849 1295.94 150.866L1296.02 150.681C1293.48 149.651 1290.15 149.138 1286.83 149.138C1283.51 149.138 1280.18 149.651 1277.64 150.681L1277.72 150.866ZM1277.61 151.117C1277.58 151.012 1277.63 150.905 1277.72 150.865L1277.64 150.681C1277.45 150.764 1277.36 150.981 1277.42 151.18L1277.61 151.117ZM1277.86 151.215C1277.75 151.25 1277.65 151.201 1277.61 151.109L1277.42 151.188C1277.51 151.379 1277.72 151.472 1277.92 151.405L1277.86 151.215ZM1295.79 151.218C1293.31 150.213 1290.07 149.713 1286.82 149.713C1283.58 149.713 1280.33 150.213 1277.85 151.218L1277.93 151.403C1280.38 150.411 1283.6 149.913 1286.82 149.913C1290.05 149.913 1293.27 150.411 1295.72 151.403L1295.79 151.218ZM1295.87 151.231C1295.84 151.231 1295.81 151.224 1295.79 151.215L1295.72 151.405C1295.76 151.417 1295.81 151.431 1295.87 151.431V151.231ZM1296.04 151.114C1296.01 151.183 1295.94 151.231 1295.87 151.231V151.431C1296.02 151.431 1296.17 151.336 1296.22 151.182L1296.04 151.114ZM1295.94 150.866C1296.04 150.907 1296.08 151.018 1296.04 151.103L1296.22 151.193C1296.32 150.995 1296.22 150.761 1296.01 150.68L1295.94 150.866ZM1286.82 154.65C1287.75 154.65 1288.65 154.496 1289.51 154.189L1289.45 154C1288.61 154.3 1287.73 154.45 1286.82 154.45V154.65ZM1284.14 154.189C1285.01 154.496 1285.91 154.65 1286.82 154.65V154.45C1285.93 154.45 1285.05 154.3 1284.2 154L1284.14 154.189ZM1283.9 154.298C1283.93 154.204 1284.03 154.154 1284.14 154.189L1284.2 153.999C1284 153.933 1283.78 154.025 1283.71 154.235L1283.9 154.298ZM1284.01 154.536C1283.92 154.505 1283.87 154.403 1283.9 154.298L1283.71 154.235C1283.64 154.434 1283.74 154.656 1283.95 154.726L1284.01 154.536ZM1286.81 155.018C1285.85 155.018 1284.91 154.857 1284.01 154.537L1283.94 154.726C1284.87 155.054 1285.83 155.218 1286.81 155.218V155.018ZM1289.62 154.537C1288.72 154.857 1287.78 155.018 1286.81 155.018V155.218C1287.8 155.218 1288.76 155.054 1289.69 154.726L1289.62 154.537ZM1289.73 154.298C1289.76 154.403 1289.71 154.505 1289.62 154.536L1289.68 154.726C1289.89 154.656 1289.99 154.434 1289.92 154.235L1289.73 154.298ZM1289.51 154.189C1289.62 154.154 1289.71 154.215 1289.73 154.288L1289.92 154.246C1289.88 154.035 1289.65 153.934 1289.45 153.999L1289.51 154.189ZM1286.83 151.838C1287.43 151.838 1288.01 151.734 1288.58 151.538L1288.51 151.349C1287.96 151.538 1287.41 151.638 1286.83 151.638V151.838ZM1285.08 151.538C1285.65 151.745 1286.24 151.838 1286.83 151.838V151.638C1286.26 151.638 1285.7 151.548 1285.15 151.35L1285.08 151.538ZM1284.85 151.047C1284.78 151.246 1284.88 151.469 1285.09 151.539L1285.15 151.349C1285.06 151.318 1285.01 151.216 1285.04 151.111L1284.85 151.047ZM1285.34 150.812C1285.14 150.746 1284.92 150.838 1284.85 151.047L1285.04 151.111C1285.07 151.017 1285.17 150.967 1285.28 151.002L1285.34 150.812ZM1288.32 150.813C1287.37 151.149 1286.31 151.15 1285.34 150.812L1285.28 151.001C1286.28 151.353 1287.39 151.353 1288.38 151.001L1288.32 150.813ZM1288.81 151.047C1288.74 150.838 1288.52 150.746 1288.32 150.812L1288.38 151.002C1288.49 150.967 1288.59 151.017 1288.62 151.111L1288.81 151.047ZM1288.57 151.539C1288.78 151.469 1288.88 151.246 1288.81 151.047L1288.62 151.111C1288.66 151.216 1288.61 151.318 1288.51 151.349L1288.57 151.539ZM1284.6 152.908C1284.51 152.876 1284.46 152.775 1284.49 152.669L1284.3 152.606C1284.24 152.805 1284.33 153.027 1284.54 153.097L1284.6 152.908ZM1286.83 153.287C1286.07 153.287 1285.32 153.158 1284.6 152.908L1284.54 153.097C1285.28 153.354 1286.05 153.487 1286.83 153.487V153.287ZM1289.06 152.908C1288.34 153.158 1287.59 153.287 1286.83 153.287V153.487C1287.61 153.487 1288.38 153.354 1289.12 153.097L1289.06 152.908ZM1289.17 152.669C1289.2 152.775 1289.15 152.876 1289.06 152.908L1289.12 153.097C1289.33 153.027 1289.42 152.805 1289.36 152.606L1289.17 152.669ZM1288.93 152.56C1289.03 152.525 1289.14 152.575 1289.17 152.669L1289.36 152.606C1289.29 152.396 1289.06 152.304 1288.87 152.371L1288.93 152.56ZM1286.83 152.92C1287.55 152.92 1288.25 152.796 1288.93 152.56L1288.86 152.371C1288.21 152.601 1287.53 152.72 1286.83 152.72V152.92ZM1284.73 152.56C1285.4 152.797 1286.11 152.92 1286.83 152.92V152.72C1286.13 152.72 1285.45 152.6 1284.8 152.371L1284.73 152.56ZM1284.49 152.669C1284.53 152.575 1284.63 152.525 1284.73 152.56L1284.8 152.371C1284.6 152.304 1284.37 152.396 1284.3 152.606L1284.49 152.669Z" fill="#023047"/>
<path fill-rule="evenodd" clip-rule="evenodd" d="M1743.13 94.5436H1743.13C1743.16 94.5436 1743.19 94.5436 1743.21 94.533C1743.29 94.5117 1745.09 94.0536 1746.23 96.0564C1746.28 96.1523 1746.39 96.2055 1746.5 96.2055C1746.55 96.2055 1746.59 96.1949 1746.64 96.1629C1746.79 96.0777 1746.84 95.8966 1746.76 95.7581C1745.5 93.5422 1743.47 93.8618 1743.12 93.9364C1741.32 93.8633 1739.7 92.1839 1739.62 92.0967L1739.62 92.0967L1739.61 92.0934C1739.5 91.9762 1739.31 91.9656 1739.19 92.0827C1739.07 92.1999 1739.06 92.381 1739.18 92.5089C1739.24 92.5941 1741.03 94.4797 1743.13 94.5436ZM1727.8 96.2133C1727.74 96.2133 1727.69 96.192 1727.65 96.1707C1727.51 96.0855 1727.46 95.9044 1727.54 95.7659C1728.8 93.55 1730.83 93.8696 1731.18 93.9442C1732.98 93.8711 1734.6 92.1917 1734.69 92.1045L1734.69 92.1012C1734.81 91.984 1735 91.9734 1735.12 92.0906C1735.23 92.2077 1735.24 92.3995 1735.13 92.5167C1735.05 92.6019 1733.26 94.4875 1731.16 94.5514H1731.16C1731.14 94.5514 1731.11 94.5514 1731.08 94.5408C1731 94.5195 1729.19 94.0614 1728.06 96.0642C1728 96.1601 1727.9 96.2133 1727.8 96.2133ZM1736.91 108.426H1737.39C1737.56 108.426 1737.69 108.554 1737.69 108.724C1737.69 108.884 1737.56 109.022 1737.39 109.022H1736.91C1736.75 109.022 1736.61 108.895 1736.61 108.724C1736.61 108.564 1736.74 108.426 1736.91 108.426ZM1737.44 101.181C1737.91 101.544 1738.42 101.821 1738.96 102.002C1739.12 102.044 1739.21 102.215 1739.15 102.385C1739.11 102.502 1738.99 102.588 1738.86 102.588H1738.86C1738.83 102.588 1738.8 102.588 1738.77 102.577C1738.19 102.385 1737.64 102.087 1737.14 101.703C1736.64 102.098 1736.09 102.385 1735.51 102.577C1735.48 102.588 1735.44 102.588 1735.41 102.588H1735.41C1735.29 102.588 1735.17 102.513 1735.13 102.385C1735.07 102.225 1735.16 102.055 1735.32 102.002C1735.86 101.831 1736.37 101.554 1736.84 101.181V97.7085C1736.84 97.5487 1736.97 97.4102 1737.14 97.4102C1737.3 97.4102 1737.44 97.538 1737.44 97.7085V101.181ZM1730.16 98.9762C1730.02 99.0081 1729.93 99.1466 1729.94 99.2851C1729.95 99.3703 1730.05 101.49 1727.64 103.216C1727.5 103.312 1727.46 103.504 1727.57 103.632C1727.67 103.77 1727.86 103.802 1727.99 103.696C1729.5 102.609 1730.13 101.373 1730.37 100.478C1730.77 101.671 1731.3 103.706 1731.3 105.975V110.801C1731.3 110.972 1731.44 111.1 1731.6 111.1C1731.77 111.1 1731.9 110.961 1731.9 110.801V105.975C1731.9 102.375 1730.64 99.4376 1730.52 99.1541L1730.51 99.136C1730.44 99.0188 1730.3 98.9442 1730.16 98.9762ZM1744.37 99.2936C1744.36 99.3788 1744.25 101.488 1746.67 103.225C1746.81 103.32 1746.84 103.512 1746.73 103.651C1746.64 103.779 1746.45 103.811 1746.32 103.715C1744.8 102.628 1744.19 101.392 1743.93 100.497C1743.54 101.691 1743 103.725 1743 105.994V110.82C1743 110.98 1742.86 111.119 1742.7 111.119C1742.54 111.119 1742.41 110.991 1742.41 110.82V105.994C1742.41 102.394 1743.66 99.4567 1743.78 99.1733L1743.79 99.1551C1743.86 99.0166 1744 98.9527 1744.14 98.9847C1744.28 99.0166 1744.38 99.1444 1744.37 99.2936ZM1735.57 98.4105C1735.57 97.5263 1734.86 96.8125 1733.97 96.8125C1733.09 96.8125 1732.38 97.5263 1732.38 98.4105C1732.38 99.1882 1732.93 99.838 1733.67 99.9765V110.821C1733.67 110.992 1733.81 111.12 1733.97 111.12C1734.14 111.12 1734.27 110.981 1734.27 110.821V99.9765C1735.01 99.838 1735.57 99.1882 1735.57 98.4105ZM1733.97 99.4119C1733.42 99.4119 1732.98 98.9644 1732.98 98.4211C1732.98 97.8672 1733.43 97.4304 1733.97 97.4304C1734.52 97.4304 1734.96 97.8778 1734.96 98.4211C1734.96 98.9644 1734.52 99.4119 1733.97 99.4119ZM1738.72 98.4105C1738.72 97.5263 1739.43 96.8125 1740.32 96.8125C1741.2 96.8125 1741.91 97.5369 1741.91 98.4105C1741.91 99.1882 1741.35 99.838 1740.62 99.9765V110.821C1740.62 110.981 1740.48 111.12 1740.32 111.12C1740.16 111.12 1740.02 110.992 1740.02 110.821V99.9765C1739.27 99.838 1738.72 99.1882 1738.72 98.4105ZM1739.33 98.4211C1739.33 98.9644 1739.76 99.4119 1740.32 99.4119C1740.87 99.4119 1741.32 98.9644 1741.31 98.4211C1741.31 97.8778 1740.86 97.4304 1740.32 97.4304C1739.77 97.4304 1739.33 97.8672 1739.33 98.4211Z" fill="#023047"/>
<path d="M1743.13 94.5436L1743.13 94.6436H1743.13V94.5436ZM1743.21 94.533L1743.19 94.4368L1743.18 94.4394L1743.17 94.4435L1743.21 94.533ZM1746.23 96.0564L1746.32 96.0078L1746.32 96.0069L1746.23 96.0564ZM1746.64 96.1629L1746.59 96.0761L1746.59 96.0772L1746.64 96.1629ZM1746.76 95.7581L1746.85 95.7107L1746.85 95.7088L1746.76 95.7581ZM1743.12 93.9364L1743.11 94.0363L1743.13 94.0368L1743.14 94.0342L1743.12 93.9364ZM1739.62 92.0967L1739.69 92.0272L1739.69 92.0252L1739.62 92.0967ZM1739.62 92.0967L1739.54 92.1664L1739.55 92.1683L1739.62 92.0967ZM1739.61 92.0934L1739.69 92.0238L1739.68 92.0227L1739.61 92.0934ZM1739.19 92.0827L1739.12 92.009L1739.12 92.012L1739.19 92.0827ZM1739.18 92.5089L1739.26 92.4486L1739.25 92.4413L1739.18 92.5089ZM1727.65 96.1707L1727.59 96.2562L1727.6 96.2602L1727.65 96.1707ZM1727.54 95.7659L1727.63 95.8184L1727.63 95.8153L1727.54 95.7659ZM1731.18 93.9442L1731.16 94.042L1731.18 94.0446L1731.19 94.0441L1731.18 93.9442ZM1734.69 92.1045L1734.61 92.0349L1734.61 92.0351L1734.69 92.1045ZM1734.69 92.1012L1734.62 92.0305L1734.62 92.0316L1734.69 92.1012ZM1735.12 92.0906L1735.19 92.0198L1735.19 92.0198L1735.12 92.0906ZM1735.13 92.5167L1735.06 92.4458L1735.05 92.4508L1735.13 92.5167ZM1731.16 94.5514V94.6515L1731.17 94.6514L1731.16 94.5514ZM1731.08 94.5408L1731.11 94.4458L1731.11 94.4446L1731.08 94.5408ZM1728.06 96.0642L1728.15 96.1198L1728.15 96.1133L1728.06 96.0642ZM1738.96 102.002L1738.93 102.097L1738.93 102.098L1738.96 102.002ZM1737.44 101.181H1737.34V101.23L1737.38 101.261L1737.44 101.181ZM1739.15 102.385L1739.25 102.419L1739.25 102.415L1739.15 102.385ZM1738.77 102.577L1738.74 102.672L1738.74 102.672L1738.77 102.577ZM1737.14 101.703L1737.2 101.624L1737.14 101.577L1737.08 101.625L1737.14 101.703ZM1735.51 102.577L1735.48 102.482L1735.48 102.482L1735.51 102.577ZM1735.13 102.385L1735.22 102.354L1735.22 102.354L1735.13 102.385ZM1735.32 102.002L1735.29 101.906L1735.29 101.907L1735.32 102.002ZM1736.84 101.181L1736.9 101.26L1736.94 101.23V101.181H1736.84ZM1729.94 99.2851L1729.84 99.2928L1729.84 99.2975L1729.94 99.2851ZM1730.16 98.9762L1730.14 98.8787L1730.14 98.8787L1730.16 98.9762ZM1727.64 103.216L1727.69 103.298L1727.69 103.298L1727.64 103.216ZM1727.57 103.632L1727.65 103.574L1727.65 103.568L1727.57 103.632ZM1727.99 103.696L1727.93 103.614L1727.92 103.619L1727.99 103.696ZM1730.37 100.478L1730.47 100.447L1730.36 100.132L1730.28 100.452L1730.37 100.478ZM1730.52 99.1541L1730.43 99.1933L1730.43 99.1935L1730.52 99.1541ZM1730.51 99.136L1730.6 99.0968L1730.6 99.0892L1730.6 99.0823L1730.51 99.136ZM1746.67 103.225L1746.61 103.306L1746.61 103.307L1746.67 103.225ZM1744.37 99.2936L1744.47 99.306L1744.47 99.3007L1744.37 99.2936ZM1746.73 103.651L1746.65 103.59L1746.65 103.591L1746.73 103.651ZM1746.32 103.715L1746.26 103.796L1746.26 103.797L1746.32 103.715ZM1743.93 100.497L1744.03 100.47L1743.94 100.158L1743.83 100.466L1743.93 100.497ZM1743.78 99.1733L1743.88 99.2126L1743.88 99.2124L1743.78 99.1733ZM1743.79 99.1551L1743.7 99.1132L1743.7 99.116L1743.79 99.1551ZM1744.14 98.9847L1744.17 98.8872L1744.17 98.8872L1744.14 98.9847ZM1733.67 99.9765H1733.77V99.8934L1733.69 99.8782L1733.67 99.9765ZM1734.27 99.9765L1734.25 99.8782L1734.17 99.8936V99.9765H1734.27ZM1740.62 99.9765L1740.6 99.8782L1740.52 99.8936V99.9765H1740.62ZM1740.02 99.9765H1740.12V99.8934L1740.04 99.8782L1740.02 99.9765ZM1741.31 98.4211H1741.21L1741.21 98.4231L1741.31 98.4211ZM1743.13 94.4436H1743.13V94.6436H1743.13V94.4436ZM1743.17 94.4435C1743.17 94.4418 1743.17 94.4415 1743.17 94.4417C1743.17 94.4419 1743.17 94.4423 1743.17 94.4427C1743.16 94.4436 1743.15 94.4436 1743.13 94.4436V94.6436C1743.14 94.6436 1743.16 94.6437 1743.18 94.6419C1743.2 94.6401 1743.23 94.636 1743.26 94.6224L1743.17 94.4435ZM1746.32 96.0069C1745.73 94.9797 1744.97 94.5769 1744.34 94.438C1743.72 94.3001 1743.23 94.4234 1743.19 94.4368L1743.24 94.6291C1743.27 94.6212 1743.72 94.5049 1744.3 94.6333C1744.88 94.7607 1745.59 95.1303 1746.14 96.1059L1746.32 96.0069ZM1746.5 96.1055C1746.42 96.1055 1746.35 96.0674 1746.32 96.0078L1746.14 96.105C1746.21 96.2371 1746.36 96.3055 1746.5 96.3055V96.1055ZM1746.59 96.0772C1746.56 96.0999 1746.53 96.1055 1746.5 96.1055V96.3055C1746.57 96.3055 1746.63 96.2899 1746.7 96.2487L1746.59 96.0772ZM1746.67 95.8055C1746.72 95.8983 1746.69 96.0189 1746.59 96.0761L1746.69 96.2497C1746.89 96.1364 1746.95 95.8949 1746.85 95.7107L1746.67 95.8055ZM1743.14 94.0342C1743.31 93.9987 1743.89 93.9027 1744.57 94.085C1745.26 94.2663 1746.06 94.7244 1746.67 95.8074L1746.85 95.7088C1746.21 94.5759 1745.36 94.0859 1744.63 93.8917C1743.9 93.6984 1743.28 93.7995 1743.1 93.8386L1743.14 94.0342ZM1739.54 92.1662C1739.59 92.2119 1740.02 92.6589 1740.67 93.1043C1741.32 93.5483 1742.19 93.9987 1743.11 94.0363L1743.12 93.8365C1742.25 93.8011 1741.42 93.3751 1740.78 92.9394C1740.15 92.505 1739.73 92.0687 1739.69 92.0272L1739.54 92.1662ZM1739.55 92.1683L1739.55 92.1683L1739.69 92.0252L1739.69 92.0252L1739.55 92.1683ZM1739.54 92.163L1739.54 92.1663L1739.69 92.0271L1739.69 92.0238L1739.54 92.163ZM1739.25 92.1565C1739.34 92.0771 1739.46 92.083 1739.54 92.1641L1739.68 92.0227C1739.53 91.8694 1739.29 91.854 1739.12 92.009L1739.25 92.1565ZM1739.25 92.4413C1739.17 92.3547 1739.18 92.2345 1739.26 92.1535L1739.12 92.012C1738.96 92.1653 1738.95 92.4073 1739.1 92.5764L1739.25 92.4413ZM1743.13 94.4437C1742.11 94.4126 1741.16 93.9369 1740.45 93.4517C1740.09 93.2097 1739.8 92.967 1739.59 92.7796C1739.49 92.686 1739.41 92.6064 1739.35 92.5478C1739.32 92.5186 1739.3 92.4947 1739.28 92.4771C1739.27 92.4683 1739.27 92.4613 1739.26 92.4561C1739.26 92.4502 1739.26 92.4482 1739.26 92.4489L1739.1 92.5689C1739.11 92.586 1739.15 92.6296 1739.21 92.6885C1739.27 92.7496 1739.35 92.8318 1739.46 92.9279C1739.67 93.1201 1739.97 93.3688 1740.33 93.6168C1741.06 94.1116 1742.05 94.6108 1743.13 94.6436L1743.13 94.4437ZM1727.6 96.2602C1727.65 96.2832 1727.72 96.3133 1727.8 96.3133V96.1133C1727.77 96.1133 1727.73 96.1009 1727.69 96.0813L1727.6 96.2602ZM1727.46 95.7135C1727.34 95.9042 1727.41 96.145 1727.6 96.2559L1727.7 96.0856C1727.6 96.026 1727.57 95.9046 1727.63 95.8183L1727.46 95.7135ZM1731.21 93.8464C1731.02 93.8073 1730.41 93.7062 1729.68 93.8995C1728.94 94.0937 1728.1 94.5838 1727.45 95.7166L1727.63 95.8153C1728.24 94.7322 1729.04 94.2742 1729.73 94.0928C1730.42 93.9106 1731 94.0065 1731.16 94.042L1731.21 93.8464ZM1734.61 92.0351C1734.57 92.0765 1734.15 92.5128 1733.52 92.9472C1732.89 93.3829 1732.05 93.8089 1731.18 93.8443L1731.19 94.0441C1732.11 94.0065 1732.99 93.5561 1733.63 93.1121C1734.28 92.6667 1734.71 92.2197 1734.76 92.174L1734.61 92.0351ZM1734.62 92.0316L1734.61 92.0349L1734.76 92.1742L1734.76 92.1708L1734.62 92.0316ZM1735.19 92.0198C1735.03 91.8591 1734.77 91.8789 1734.62 92.0305L1734.76 92.1719C1734.84 92.0891 1734.97 92.0876 1735.04 92.1613L1735.19 92.0198ZM1735.2 92.5874C1735.36 92.4266 1735.34 92.1714 1735.19 92.0198L1735.04 92.1613C1735.13 92.2441 1735.13 92.3724 1735.06 92.446L1735.2 92.5874ZM1731.17 94.6514C1732.24 94.6186 1733.23 94.1194 1733.96 93.6247C1734.69 93.1293 1735.16 92.6308 1735.2 92.5825L1735.05 92.4508C1735.02 92.4878 1734.56 92.9747 1733.85 93.4594C1733.14 93.9448 1732.18 94.4204 1731.16 94.4515L1731.17 94.6514ZM1731.16 94.6514H1731.16V94.4514H1731.16V94.6514ZM1731.05 94.6357C1731.1 94.6521 1731.14 94.6514 1731.16 94.6514V94.4514C1731.14 94.4514 1731.12 94.4508 1731.11 94.4459L1731.05 94.6357ZM1728.15 96.1133C1728.7 95.1381 1729.41 94.7685 1729.99 94.6411C1730.57 94.5127 1731.02 94.6291 1731.05 94.6369L1731.11 94.4446C1731.06 94.4312 1730.57 94.3079 1729.94 94.4458C1729.32 94.5847 1728.56 94.9875 1727.98 96.0151L1728.15 96.1133ZM1727.8 96.3133C1727.94 96.3133 1728.07 96.241 1728.15 96.1197L1727.98 96.0087C1727.93 96.0791 1727.87 96.1133 1727.8 96.1133V96.3133ZM1737.39 108.326H1736.91V108.526H1737.39V108.326ZM1737.79 108.724C1737.79 108.498 1737.61 108.326 1737.39 108.326V108.526C1737.5 108.526 1737.59 108.609 1737.59 108.724H1737.79ZM1737.39 109.122C1737.62 109.122 1737.79 108.937 1737.79 108.724H1737.59C1737.59 108.831 1737.5 108.922 1737.39 108.922V109.122ZM1736.91 109.122H1737.39V108.922H1736.91V109.122ZM1736.51 108.724C1736.51 108.952 1736.69 109.122 1736.91 109.122V108.922C1736.8 108.922 1736.71 108.837 1736.71 108.724H1736.51ZM1736.91 108.326C1736.68 108.326 1736.51 108.511 1736.51 108.724H1736.71C1736.71 108.617 1736.79 108.526 1736.91 108.526V108.326ZM1738.99 101.907C1738.46 101.729 1737.96 101.458 1737.5 101.102L1737.38 101.261C1737.85 101.629 1738.37 101.912 1738.93 102.097L1738.99 101.907ZM1739.25 102.415C1739.32 102.198 1739.21 101.964 1738.99 101.905L1738.93 102.098C1739.03 102.124 1739.1 102.232 1739.06 102.355L1739.25 102.415ZM1738.86 102.688C1739.04 102.688 1739.19 102.575 1739.25 102.419L1739.06 102.351C1739.03 102.43 1738.95 102.488 1738.86 102.488V102.688ZM1738.86 102.688H1738.86V102.488H1738.86V102.688ZM1738.74 102.672C1738.79 102.688 1738.83 102.688 1738.86 102.688V102.488C1738.83 102.488 1738.81 102.487 1738.8 102.482L1738.74 102.672ZM1737.08 101.783C1737.59 102.173 1738.15 102.476 1738.74 102.672L1738.8 102.482C1738.24 102.294 1737.69 102.001 1737.2 101.624L1737.08 101.783ZM1735.54 102.672C1736.14 102.477 1736.69 102.183 1737.2 101.782L1737.08 101.625C1736.59 102.012 1736.05 102.294 1735.48 102.482L1735.54 102.672ZM1735.41 102.688C1735.44 102.688 1735.49 102.688 1735.54 102.672L1735.48 102.482C1735.46 102.487 1735.45 102.488 1735.41 102.488V102.688ZM1735.41 102.688H1735.41V102.488H1735.41V102.688ZM1735.03 102.417C1735.09 102.589 1735.25 102.688 1735.41 102.688V102.488C1735.32 102.488 1735.25 102.437 1735.22 102.354L1735.03 102.417ZM1735.29 101.907C1735.07 101.978 1734.96 102.205 1735.03 102.417L1735.22 102.354C1735.18 102.246 1735.24 102.132 1735.35 102.097L1735.29 101.907ZM1736.78 101.103C1736.32 101.469 1735.82 101.74 1735.29 101.906L1735.35 102.097C1735.9 101.923 1736.42 101.64 1736.9 101.26L1736.78 101.103ZM1736.74 97.7085V101.181H1736.94V97.7085H1736.74ZM1737.14 97.3102C1736.91 97.3102 1736.74 97.4958 1736.74 97.7085H1736.94C1736.94 97.6015 1737.03 97.5102 1737.14 97.5102V97.3102ZM1737.54 97.7085C1737.54 97.4805 1737.35 97.3102 1737.14 97.3102V97.5102C1737.25 97.5102 1737.34 97.5955 1737.34 97.7085H1737.54ZM1737.54 101.181V97.7085H1737.34V101.181H1737.54ZM1730.04 99.2774C1730.03 99.1859 1730.09 99.0939 1730.18 99.0736L1730.14 98.8787C1729.95 98.9223 1729.82 99.1073 1729.84 99.2928L1730.04 99.2774ZM1727.69 103.298C1730.15 101.545 1730.05 99.3838 1730.04 99.2727L1729.84 99.2975C1729.84 99.2974 1729.84 99.2998 1729.84 99.3057C1729.84 99.3111 1729.84 99.3186 1729.84 99.3281C1729.84 99.347 1729.84 99.3734 1729.84 99.4066C1729.84 99.4729 1729.83 99.5662 1729.82 99.6816C1729.8 99.9125 1729.74 100.232 1729.6 100.601C1729.33 101.34 1728.77 102.284 1727.58 103.135L1727.69 103.298ZM1727.65 103.568C1727.58 103.488 1727.6 103.363 1727.69 103.298L1727.58 103.134C1727.39 103.261 1727.35 103.519 1727.49 103.696L1727.65 103.568ZM1727.92 103.619C1727.84 103.685 1727.72 103.668 1727.65 103.575L1727.49 103.689C1727.62 103.872 1727.87 103.919 1728.05 103.772L1727.92 103.619ZM1730.28 100.452C1730.04 101.326 1729.42 102.542 1727.93 103.614L1728.05 103.777C1729.58 102.676 1730.22 101.42 1730.47 100.505L1730.28 100.452ZM1731.4 105.975C1731.4 103.692 1730.86 101.646 1730.47 100.447L1730.28 100.51C1730.67 101.697 1731.2 103.721 1731.2 105.975H1731.4ZM1731.4 110.801V105.975H1731.2V110.801H1731.4ZM1731.6 111C1731.49 111 1731.4 110.914 1731.4 110.801H1731.2C1731.2 111.029 1731.39 111.2 1731.6 111.2V111ZM1731.8 110.801C1731.8 110.908 1731.71 111 1731.6 111V111.2C1731.83 111.2 1732 111.014 1732 110.801H1731.8ZM1731.8 105.975V110.801H1732V105.975H1731.8ZM1730.43 99.1935C1730.55 99.4734 1731.8 102.396 1731.8 105.975H1732C1732 102.354 1730.73 99.4019 1730.61 99.1148L1730.43 99.1935ZM1730.42 99.1751L1730.43 99.1933L1730.61 99.115L1730.6 99.0968L1730.42 99.1751ZM1730.18 99.0736C1730.27 99.0532 1730.37 99.1 1730.43 99.1897L1730.6 99.0823C1730.5 98.9376 1730.33 98.8352 1730.14 98.8787L1730.18 99.0736ZM1746.73 103.143C1745.53 102.288 1744.97 101.343 1744.7 100.606C1744.57 100.237 1744.51 99.9185 1744.48 99.6885C1744.47 99.5735 1744.46 99.4807 1744.46 99.4146C1744.46 99.3816 1744.46 99.3553 1744.46 99.3365C1744.46 99.327 1744.46 99.3196 1744.47 99.3141C1744.47 99.3083 1744.47 99.3058 1744.47 99.306L1744.27 99.2812C1744.25 99.3925 1744.15 101.543 1746.61 103.306L1746.73 103.143ZM1746.81 103.712C1746.95 103.528 1746.91 103.271 1746.72 103.142L1746.61 103.307C1746.7 103.37 1746.72 103.496 1746.65 103.59L1746.81 103.712ZM1746.26 103.797C1746.44 103.923 1746.68 103.882 1746.81 103.711L1746.65 103.591C1746.59 103.675 1746.47 103.698 1746.37 103.632L1746.26 103.797ZM1743.83 100.525C1744.09 101.439 1744.72 102.695 1746.26 103.796L1746.37 103.633C1744.88 102.562 1744.28 101.346 1744.03 100.47L1743.83 100.525ZM1743.1 105.994C1743.1 103.74 1743.63 101.716 1744.02 100.529L1743.83 100.466C1743.44 101.665 1742.9 103.711 1742.9 105.994H1743.1ZM1743.1 110.82V105.994H1742.9V110.82H1743.1ZM1742.7 111.219C1742.92 111.219 1743.1 111.035 1743.1 110.82H1742.9C1742.9 110.925 1742.81 111.019 1742.7 111.019V111.219ZM1742.31 110.82C1742.31 111.048 1742.49 111.219 1742.7 111.219V111.019C1742.6 111.019 1742.51 110.933 1742.51 110.82H1742.31ZM1742.31 105.994V110.82H1742.51V105.994H1742.31ZM1743.69 99.134C1743.57 99.421 1742.31 102.373 1742.31 105.994H1742.51C1742.51 102.415 1743.76 99.4925 1743.88 99.2126L1743.69 99.134ZM1743.7 99.116L1743.69 99.1341L1743.88 99.2124L1743.88 99.1942L1743.7 99.116ZM1744.17 98.8872C1743.98 98.8453 1743.79 98.9289 1743.7 99.1132L1743.88 99.197C1743.92 99.1043 1744.02 99.0601 1744.12 99.0821L1744.17 98.8872ZM1744.47 99.3007C1744.48 99.1033 1744.35 98.9304 1744.17 98.8872L1744.12 99.0821C1744.21 99.1028 1744.27 99.1856 1744.27 99.2865L1744.47 99.3007ZM1733.97 96.9125C1734.8 96.9125 1735.47 97.5815 1735.47 98.4105H1735.67C1735.67 97.471 1734.91 96.7125 1733.97 96.7125V96.9125ZM1732.48 98.4105C1732.48 97.5815 1733.14 96.9125 1733.97 96.9125V96.7125C1733.03 96.7125 1732.28 97.471 1732.28 98.4105H1732.48ZM1733.69 99.8782C1732.99 99.7484 1732.48 99.1394 1732.48 98.4105H1732.28C1732.28 99.2369 1732.86 99.9276 1733.66 100.075L1733.69 99.8782ZM1733.77 110.821V99.9765H1733.57V110.821H1733.77ZM1733.97 111.02C1733.87 111.02 1733.77 110.934 1733.77 110.821H1733.57C1733.57 111.049 1733.76 111.22 1733.97 111.22V111.02ZM1734.17 110.821C1734.17 110.928 1734.09 111.02 1733.97 111.02V111.22C1734.2 111.22 1734.37 111.034 1734.37 110.821H1734.17ZM1734.17 99.9765V110.821H1734.37V99.9765H1734.17ZM1735.47 98.4105C1735.47 99.1388 1734.94 99.7484 1734.25 99.8782L1734.29 100.075C1735.07 99.9276 1735.67 99.2375 1735.67 98.4105H1735.47ZM1732.88 98.4211C1732.88 99.019 1733.36 99.5119 1733.97 99.5119V99.3119C1733.47 99.3119 1733.08 98.9099 1733.08 98.4211H1732.88ZM1733.97 97.3304C1733.38 97.3304 1732.88 97.8112 1732.88 98.4211H1733.08C1733.08 97.9231 1733.48 97.5304 1733.97 97.5304V97.3304ZM1735.06 98.4211C1735.06 97.8226 1734.57 97.3304 1733.97 97.3304V97.5304C1734.46 97.5304 1734.86 97.933 1734.86 98.4211H1735.06ZM1733.97 99.5119C1734.57 99.5119 1735.06 99.0197 1735.06 98.4211H1734.86C1734.86 98.9092 1734.46 99.3119 1733.97 99.3119V99.5119ZM1740.32 96.7125C1739.38 96.7125 1738.62 97.471 1738.62 98.4105H1738.82C1738.82 97.5815 1739.49 96.9125 1740.32 96.9125V96.7125ZM1742.01 98.4105C1742.01 97.4821 1741.26 96.7125 1740.32 96.7125V96.9125C1741.15 96.9125 1741.81 97.5917 1741.81 98.4105H1742.01ZM1740.63 100.075C1741.41 99.9276 1742.01 99.2375 1742.01 98.4105H1741.81C1741.81 99.1388 1741.29 99.7484 1740.6 99.8782L1740.63 100.075ZM1740.72 110.821V99.9765H1740.52V110.821H1740.72ZM1740.32 111.22C1740.53 111.22 1740.72 111.036 1740.72 110.821H1740.52C1740.52 110.926 1740.42 111.02 1740.32 111.02V111.22ZM1739.92 110.821C1739.92 111.049 1740.1 111.22 1740.32 111.22V111.02C1740.21 111.02 1740.12 110.934 1740.12 110.821H1739.92ZM1739.92 99.9765V110.821H1740.12V99.9765H1739.92ZM1738.62 98.4105C1738.62 99.2369 1739.21 99.9276 1740 100.075L1740.04 99.8782C1739.34 99.7484 1738.82 99.1394 1738.82 98.4105H1738.62ZM1740.32 99.3119C1739.82 99.3119 1739.43 98.9099 1739.43 98.4211H1739.23C1739.23 99.019 1739.71 99.5119 1740.32 99.5119V99.3119ZM1741.21 98.4231C1741.22 98.9086 1740.82 99.3119 1740.32 99.3119V99.5119C1740.92 99.5119 1741.42 99.0203 1741.41 98.4192L1741.21 98.4231ZM1740.32 97.5304C1740.8 97.5304 1741.21 97.933 1741.21 98.4211H1741.41C1741.41 97.8226 1740.92 97.3304 1740.32 97.3304V97.5304ZM1739.43 98.4211C1739.43 97.9231 1739.83 97.5304 1740.32 97.5304V97.3304C1739.72 97.3304 1739.23 97.8112 1739.23 98.4211H1739.43Z" fill="#023047"/>
</g>
<defs>
<clipPath id="clip0_1035_1222">
<rect width="1915" height="355" fill="white"/>
</clipPath>
</defs>
</svg>
