<svg width="731" height="537" viewBox="0 0 731 537" fill="none" xmlns="http://www.w3.org/2000/svg">
<g clip-path="url(#clip0_1031_203)">
<path d="M0.00032485 537.09C-0.106207 440.283 25.9831 345.25 75.5027 262.067C125.022 178.883 196.127 110.648 281.279 64.595C366.431 18.5421 462.457 -3.61254 559.178 0.479509C655.899 4.57156 749.711 34.7579 830.668 87.8385L727.688 244.902C675.072 210.404 614.101 190.785 551.239 188.125C488.377 185.466 425.967 199.865 370.625 229.796C315.282 259.727 269.069 304.075 236.885 358.138C204.701 412.201 187.745 473.966 187.814 536.884L0.00032485 537.09Z" fill="url(#paint0_linear_1031_203)"/>
</g>
<defs>
<linearGradient id="paint0_linear_1031_203" x1="109.814" y1="183.905" x2="778.62" y2="308.272" gradientUnits="userSpaceOnUse">
<stop stop-color="#053A54"/>
<stop offset="1" stop-color="#023047"/>
</linearGradient>
<clipPath id="clip0_1031_203">
<rect width="731" height="537" fill="white"/>
</clipPath>
</defs>
</svg>
