<svg width="168" height="168" viewBox="0 0 168 168" fill="none" xmlns="http://www.w3.org/2000/svg">
<path d="M168 84C168 130.392 130.392 168 84 168C37.6081 168 0 130.392 0 84C0 37.6081 37.6081 0 84 0C130.392 0 168 37.6081 168 84ZM25.2 84C25.2 116.474 51.5257 142.8 84 142.8C116.474 142.8 142.8 116.474 142.8 84C142.8 51.5257 116.474 25.2 84 25.2C51.5257 25.2 25.2 51.5257 25.2 84Z" fill="#023047"/>
<path d="M87.4035 15.5225L87.5383 14.2698L89.3518 14.465C89.7336 14.5061 90.0555 14.4683 90.3175 14.3517C90.5883 14.2279 90.805 14.0461 90.9676 13.8061C91.1311 13.5582 91.2304 13.2712 91.2655 12.945C91.3014 12.611 91.2655 12.3094 91.1577 12.0403C91.0507 11.7633 90.8777 11.5395 90.6385 11.3689C90.4074 11.1992 90.1009 11.0938 89.7191 11.0527L87.9056 10.8575L88.0404 9.60472L89.6869 9.78194C90.4107 9.85985 91.0064 10.0447 91.4738 10.3364C91.9501 10.621 92.2924 10.9917 92.5007 11.4486C92.7178 11.8985 92.7947 12.4177 92.7313 13.0063L92.7108 13.1972C92.6483 13.7778 92.4627 14.2688 92.154 14.67C91.8532 15.0722 91.4394 15.3656 90.9126 15.5502C90.3947 15.7278 89.7738 15.7777 89.0499 15.6998L87.4035 15.5225ZM85.9034 18.2456L86.8473 9.4763L88.279 9.63041L87.3351 18.3998L85.9034 18.2456Z" fill="white"/>
<path d="M99.7786 20.1839L102.44 11.8379L103.812 12.2754L101.151 20.6213L99.7786 20.1839ZM100.922 20.5484L101.312 19.3251L105.028 20.5099L104.638 21.7332L100.922 20.5484Z" fill="white"/>
<path d="M110.755 23.7391L117.77 17.66L119.843 18.8455L118.244 28.0225L116.953 27.2838L118.419 19.1367L118.792 19.6682L117.532 18.9474L118.21 19.0176L112.005 24.454L110.755 23.7391ZM113.711 22.5822L114.727 21.7252L117.914 23.5482L117.701 24.8639L113.711 22.5822Z" fill="white"/>
<path d="M128.079 30.824L129.728 25.0329L130.822 26.0414L129.435 30.7687L129.216 30.387L130.151 31.2491L129.735 31.0452L134.219 29.1726L135.252 30.1241L129.746 32.3611L128.079 30.824ZM126.103 33.605L128.567 30.9314L129.6 31.883L127.135 34.5566L126.103 33.605Z" fill="white"/>
<path d="M138.957 47.9516L145.098 41.0629L145.835 42.3419L140.344 48.4127L140.309 47.8234L140.992 49.0088L140.476 48.6415L148.386 46.7716L149.105 48.0194L140.16 50.0417L138.957 47.9516Z" fill="white"/>
<path d="M144.998 59.7112L153.226 56.7054L153.721 58.058L145.492 61.0637L144.998 59.7112Z" fill="white"/>
<path d="M147.806 67.8478L149.12 67.631L149.447 69.6082C149.526 70.0897 149.672 70.5075 149.884 70.8617C150.105 71.2145 150.375 71.5023 150.696 71.7251C151.016 71.9479 151.373 72.0958 151.766 72.1688C152.169 72.2484 152.587 72.2523 153.021 72.1807C153.487 72.1039 153.893 71.9638 154.241 71.7605C154.59 71.5652 154.876 71.3111 155.1 70.9985C155.324 70.6858 155.476 70.3284 155.556 69.926C155.643 69.5224 155.647 69.0799 155.568 68.5984L155.242 66.6211L156.556 66.4043L156.863 68.2632C156.991 69.0446 156.985 69.743 156.843 70.3582C156.703 70.9814 156.463 71.5196 156.125 71.9728C155.786 72.4259 155.379 72.7889 154.906 73.0617C154.432 73.3345 153.926 73.5152 153.39 73.6037L153.129 73.6467C152.624 73.73 152.099 73.7193 151.555 73.6145C151.018 73.5084 150.513 73.2958 150.039 72.9768C149.572 72.6564 149.165 72.225 148.816 71.6826C148.476 71.1467 148.242 70.4881 148.113 69.7067L147.806 67.8478ZM147.611 66.6638L156.361 65.2203L156.595 66.6411L147.845 68.0846L147.611 66.6638Z" fill="white"/>
<path d="M149.803 83.8482L158.542 84.4469L158.445 85.8716L149.705 85.2728L149.803 83.8482ZM149.722 85.0334L150.967 85.1187L150.686 89.2131L149.441 89.1278L149.722 85.0334ZM153.541 85.295L154.786 85.3803L154.528 89.1395L153.283 89.0542L153.541 85.295ZM157.216 85.5468L158.461 85.6321L158.188 89.6188L156.943 89.5335L157.216 85.5468Z" fill="white"/>
<path d="M147.298 100.987C147.543 100.233 147.883 99.6248 148.32 99.1609C148.762 98.7072 149.257 98.3719 149.807 98.1551C150.357 97.9382 150.908 97.8226 151.459 97.8082C152.016 97.8039 152.522 97.8758 152.979 98.024L153.23 98.1055C153.732 98.2686 154.206 98.5191 154.651 98.8572C155.094 99.2029 155.463 99.6212 155.758 100.112C156.057 100.613 156.245 101.175 156.321 101.797C156.394 102.426 156.312 103.106 156.075 103.836C155.838 104.567 155.506 105.161 155.08 105.62C154.653 106.079 154.171 106.423 153.634 106.652C153.105 106.884 152.561 107.006 152.001 107.018C151.44 107.037 150.908 106.966 150.406 106.803L150.155 106.721C149.698 106.573 149.247 106.33 148.802 105.992C148.364 105.656 147.987 105.239 147.669 104.741C147.349 104.25 147.145 103.687 147.056 103.053C146.975 102.421 147.056 101.732 147.298 100.987ZM148.565 101.398C148.417 101.855 148.367 102.293 148.416 102.712C148.465 103.132 148.592 103.518 148.797 103.87C149.002 104.223 149.27 104.524 149.601 104.775C149.929 105.033 150.303 105.23 150.721 105.366C151.162 105.509 151.592 105.573 152.009 105.557C152.434 105.543 152.829 105.453 153.195 105.286C153.565 105.128 153.89 104.893 154.168 104.58C154.447 104.266 154.66 103.882 154.808 103.425C154.956 102.968 155.01 102.532 154.969 102.114C154.927 101.697 154.804 101.313 154.599 100.96C154.402 100.61 154.135 100.305 153.799 100.044C153.468 99.7937 153.082 99.5968 152.641 99.4535C152.222 99.3176 151.805 99.2539 151.391 99.2622C150.973 99.2781 150.578 99.3684 150.205 99.5333C149.832 99.6981 149.502 99.936 149.216 100.247C148.93 100.558 148.713 100.941 148.565 101.398Z" fill="white"/>
<path d="M132.449 128.403L137.947 133.833L136.935 134.858L131.437 129.427L132.449 128.403ZM139.598 131.82L140.503 132.714L135.84 137.435L134.935 136.542L139.598 131.82Z" fill="white"/>
<path d="M125.781 135.195L127.97 144.216L125.967 145.516L118.542 139.89L119.791 139.08L126.361 144.116L125.717 144.204L126.935 143.414L126.562 143.985L124.573 135.979L125.781 135.195ZM125.455 138.353L125.751 139.648L122.671 141.646L121.599 140.854L125.455 138.353Z" fill="white"/>
<path d="M105.52 146.078L110.058 148.835L111.249 148.422L109.06 154.122L107.507 154.661L109.494 149.513L109.848 150.279L103.854 146.656L105.52 146.078ZM110.814 144.241L113.686 152.517L112.325 152.989L109.454 144.713L110.814 144.241Z" fill="white"/>
<path d="M96.6307 148.654L97.6668 157.353L96.2488 157.522L95.2127 148.823L96.6307 148.654ZM95.451 148.795L95.5986 150.034L91.5235 150.52L91.3758 149.28L95.451 148.795ZM95.9038 152.596L96.0514 153.835L92.3099 154.281L92.1623 153.042L95.9038 152.596ZM96.3395 156.254L96.4872 157.493L92.5192 157.966L92.3716 156.727L96.3395 156.254Z" fill="white"/>
<path d="M79.0386 149.909L74.4098 157.956L72.0624 157.517L70.5574 148.324L72.0201 148.598L73.3122 156.774L72.7849 156.395L74.2121 156.662L73.5481 156.818L77.6231 149.645L79.0386 149.909ZM76.6264 151.973L75.9489 153.116L72.3394 152.442L72.1086 151.129L76.6264 151.973Z" fill="white"/>
<path d="M55.4624 143.304L53.7274 152.368L52.4387 151.649L54.0351 143.621L54.3674 144.108L53.173 143.441L53.8046 143.492L47.9753 149.157L46.718 148.455L53.3565 142.128L55.4624 143.304Z" fill="white"/>
<path d="M44.2478 136.32L38.7368 143.129L37.6175 142.223L43.1285 135.414L44.2478 136.32Z" fill="white"/>
<path d="M38.5624 131.753L31.9542 137.594L31.0005 136.516L37.6087 130.674L38.5624 131.753ZM35.0019 127.725L33.9597 132.362L32.8788 131.139L33.8653 126.439L35.0019 127.725ZM35.635 133.043L34.7269 133.846L33.2169 132.138C32.989 131.88 32.7421 131.703 32.4759 131.608C32.2038 131.517 31.9324 131.506 31.6618 131.574C31.3859 131.637 31.1251 131.777 30.8794 131.994C30.6396 132.206 30.4719 132.445 30.3761 132.711C30.2751 132.971 30.2528 133.242 30.3091 133.523C30.3655 133.804 30.5076 134.074 30.7354 134.331L32.2455 136.04L31.3104 136.866L29.9275 135.302C29.4825 134.798 29.1736 134.292 29.0009 133.782C28.8223 133.278 28.7957 132.789 28.9213 132.315C29.0468 131.841 29.3493 131.392 29.8288 130.968L29.9727 130.841C30.4522 130.417 30.9375 130.175 31.4286 130.115C31.9145 130.048 32.3966 130.135 32.8749 130.374C33.348 130.607 33.807 130.975 34.2521 131.479L35.635 133.043Z" fill="white"/>
<path d="M28.1763 118.718L21.4333 122.494L20.7298 121.237L27.4728 117.462L28.1763 118.718ZM22.909 124.638L21.7991 125.259L18.5572 119.469L19.667 118.848L22.909 124.638Z" fill="white"/>
<path d="M21.9668 105.079C22.1913 105.855 22.2341 106.55 22.0954 107.165C21.9468 107.774 21.6435 108.295 21.1855 108.727C20.7253 109.152 20.1379 109.467 19.4231 109.674L14.374 111.134L13.974 109.751L19.1384 108.257C19.5688 108.133 19.9248 107.938 20.2064 107.674C20.488 107.409 20.6743 107.089 20.7654 106.713C20.8489 106.339 20.8228 105.917 20.6873 105.449C20.5517 104.98 20.35 104.613 20.0821 104.349C19.8121 104.078 19.4873 103.905 19.108 103.832C18.7286 103.758 18.3199 103.785 17.8819 103.911L12.7174 105.405L12.3174 104.021L17.3666 102.561C18.0814 102.355 18.7466 102.308 19.3623 102.421C19.9781 102.535 20.5125 102.813 20.9655 103.257C21.4086 103.695 21.7424 104.302 21.9668 105.079Z" fill="white"/>
<path d="M18.579 93.0653L9.74253 90.2208L9.68081 87.8336L18.356 84.4402L18.3945 85.9277L10.6687 88.9004L10.9294 88.3055L10.967 89.757L10.6749 89.1403L18.5418 91.6258L18.579 93.0653ZM16.0563 91.1379L14.797 90.7143L14.7021 87.0435L15.9375 86.5434L16.0563 91.1379Z" fill="white"/>
<path d="M18.7585 75.6805L10.1588 74.0123L10.4331 72.5987L19.0327 74.2669L18.7585 75.6805ZM18.987 74.5025L17.7265 74.258L18.4692 70.4293L19.7297 70.6739L18.987 74.5025Z" fill="white"/>
<path d="M23.8391 57.6342L16.9061 54.2202L17.5422 52.9283L24.4753 56.3423L23.8391 57.6342ZM15.9764 56.6516L14.8352 56.0897L17.7668 50.1363L18.9079 50.6982L15.9764 56.6516Z" fill="white"/>
<path d="M31.6606 44.6595C31.1513 45.266 30.6073 45.7024 30.0286 45.9686C29.4489 46.2235 28.8636 46.3483 28.2726 46.3431C27.6816 46.3378 27.1278 46.2384 26.6112 46.0449C26.0937 45.8402 25.6512 45.5835 25.2836 45.2748L25.0814 45.105C24.677 44.7655 24.3318 44.3555 24.0458 43.8751C23.7649 43.3885 23.5799 42.8624 23.4909 42.2966C23.4009 41.7196 23.4374 41.1287 23.6005 40.5239C23.7687 39.9131 24.0997 39.3136 24.5936 38.7254C25.0875 38.1373 25.6181 37.7106 26.1855 37.4453C26.753 37.1801 27.3286 37.0419 27.9125 37.0308C28.4903 37.0145 29.0405 37.1057 29.5632 37.3043C30.091 37.4968 30.5571 37.7628 30.9614 38.1024L31.1636 38.2721C31.5312 38.5808 31.858 38.9754 32.1441 39.4558C32.424 39.9311 32.6176 40.4593 32.7251 41.0405C32.8376 41.6156 32.8159 42.2137 32.66 42.8348C32.4979 43.4509 32.1648 44.0591 31.6606 44.6595ZM30.6405 43.8029C30.9492 43.4353 31.1596 43.0479 31.2717 42.6407C31.3839 42.2334 31.411 41.8279 31.3531 41.4241C31.2952 41.0203 31.1599 40.6403 30.9471 40.2841C30.7395 39.9217 30.4673 39.5991 30.1303 39.3161C29.775 39.0178 29.4009 38.7977 29.0081 38.6559C28.6092 38.5089 28.2089 38.4444 27.8073 38.4624C27.4047 38.4691 27.0156 38.5654 26.6401 38.7515C26.2645 38.9375 25.9223 39.2144 25.6137 39.5819C25.305 39.9495 25.0915 40.3344 24.9733 40.7365C24.855 41.1386 24.8248 41.5416 24.8827 41.9454C24.9345 42.344 25.0672 42.7271 25.281 43.0946C25.4937 43.4508 25.7777 43.7781 26.1331 44.0765C26.47 44.3594 26.8324 44.5749 27.22 44.7228C27.6128 44.8646 28.0131 44.9291 28.4208 44.9163C28.8285 44.9034 29.2232 44.8066 29.605 44.6257C29.9867 44.4448 30.3319 44.1705 30.6405 43.8029Z" fill="white"/>
<path d="M44.6919 31.6683C44.0233 32.1219 43.3752 32.3779 42.7477 32.4362C42.1224 32.4834 41.5334 32.3562 40.9806 32.0545C40.4345 31.7482 39.9526 31.2873 39.5349 30.6716L36.5841 26.3221L37.7757 25.5137L40.7939 29.9625C41.0455 30.3332 41.3406 30.6115 41.6794 30.7973C42.0182 30.9832 42.3805 31.0613 42.7663 31.0315C43.1477 30.9951 43.5403 30.84 43.9441 30.566C44.3479 30.292 44.6339 29.9868 44.802 29.6504C44.9768 29.3095 45.0404 28.9473 44.9929 28.5638C44.9454 28.1804 44.7937 27.7999 44.5377 27.4226L41.5195 22.9738L42.7111 22.1653L45.662 26.5148C46.0797 27.1305 46.3299 27.7487 46.4125 28.3693C46.4952 28.9899 46.3958 29.5843 46.1141 30.1523C45.8346 30.7093 45.3605 31.2146 44.6919 31.6683Z" fill="white"/>
<path d="M56.2781 24.2656L53.2896 15.9673L54.6444 15.4794L57.6329 23.7776L56.2781 24.2656ZM61.3361 22.444L57.4116 19.7632L58.947 19.2102L62.9506 21.8625L61.3361 22.444ZM56.1598 21.0685L55.7492 19.9282L57.8943 19.1557C58.2179 19.0391 58.4734 18.8748 58.6606 18.6628C58.8452 18.4433 58.9556 18.1952 58.992 17.9185C59.036 17.6391 59.0024 17.3451 58.8912 17.0365C58.7828 16.7354 58.6226 16.4913 58.4106 16.304C58.2061 16.1141 57.9629 15.9934 57.6807 15.9419C57.3986 15.8905 57.0957 15.923 56.7721 16.0396L54.6269 16.8121L54.2041 15.638L56.1686 14.9305C56.8008 14.7028 57.3855 14.6027 57.9226 14.6304C58.4571 14.6505 58.9214 14.8064 59.3155 15.0981C59.7097 15.3898 60.0152 15.8367 60.232 16.4388L60.2971 16.6195C60.5139 17.2216 60.5598 17.7621 60.4346 18.2408C60.3169 18.7168 60.0586 19.133 59.6597 19.4892C59.2684 19.8427 58.7566 20.1333 58.1243 20.361L56.1598 21.0685Z" fill="white"/>
<circle cx="73.4999" cy="13.0199" r="2.1" fill="white"/>
<circle cx="143.22" cy="119.7" r="2.1" fill="white"/>
</svg>
